<svg width="314" height="101" viewBox="0 0 314 101" fill="none" xmlns="http://www.w3.org/2000/svg">
<g clip-path="url(#clip0_977_78)">
<path d="M307 8H13C9.68629 8 7 10.6863 7 14V94C7 97.3137 9.68629 100 13 100H307C310.314 100 313 97.3137 313 94V14C313 10.6863 310.314 8 307 8Z" fill="white" stroke="white" stroke-width="2"/>
<path d="M298 0H10C4.47715 0 0 4.47715 0 10V84C0 89.5229 4.47715 94 10 94H298C303.523 94 308 89.5229 308 84V10C308 4.47715 303.523 0 298 0Z" fill="#4285F4"/>
<path d="M50.5559 59.5453C48.2612 59.5453 46.1482 58.9886 44.2169 57.8753C42.2857 56.762 40.7521 55.2284 39.6161 53.2745C38.48 51.3205 37.912 49.1621 37.912 46.7992C37.912 44.4363 38.48 42.2778 39.6161 40.3239C40.7521 38.3699 42.2857 36.8363 44.2169 35.723C46.1482 34.6097 48.2612 34.0531 50.5559 34.0531C52.3508 34.0531 54.0321 34.3711 55.5998 35.0073C57.1902 35.6435 58.4967 36.5409 59.5191 37.6997L57.4402 39.7786C56.6677 38.8243 55.6793 38.0973 54.4752 37.5974C53.271 37.0749 51.9759 36.8136 50.59 36.8136C48.8632 36.8136 47.2501 37.2339 45.7506 38.0746C44.2737 38.8925 43.0809 40.0626 42.1721 41.5849C41.286 43.0844 40.843 44.8225 40.843 46.7992C40.843 48.7758 41.286 50.5253 42.1721 52.0476C43.0809 53.5471 44.2851 54.7172 45.7846 55.5579C47.2842 56.3758 48.886 56.7848 50.59 56.7848C52.2259 56.7848 53.5891 56.5348 54.6796 56.035C55.7929 55.5124 56.7472 54.8308 57.5424 53.9902C58.1331 53.354 58.6103 52.5929 58.9738 51.7068C59.3373 50.798 59.5645 49.7983 59.6554 48.7077H50.6241V46.0153H62.3478C62.4614 46.6515 62.5182 47.2422 62.5182 47.7875C62.5182 49.2871 62.2796 50.7525 61.8025 52.1839C61.3253 53.5926 60.5642 54.8308 59.5191 55.8987C57.2698 58.3297 54.282 59.5453 50.5559 59.5453ZM73.8191 59.5453C72.1605 59.5453 70.6723 59.1477 69.3545 58.3525C68.0367 57.5573 67.0029 56.4667 66.2532 55.0807C65.5261 53.6721 65.1626 52.093 65.1626 50.3435C65.1626 48.6622 65.5034 47.1173 66.185 45.7086C66.8893 44.2999 67.8777 43.1753 69.15 42.3346C70.4224 41.494 71.8992 41.0736 73.5805 41.0736C75.2845 41.0736 76.7613 41.4599 78.011 42.2324C79.2606 42.9822 80.2148 44.0273 80.8737 45.3678C81.5553 46.7083 81.8961 48.2419 81.8961 49.9687C81.8961 50.3095 81.8621 50.6048 81.7939 50.8548H68.0594C68.1276 52.1725 68.4457 53.2858 69.0137 54.1946C69.5817 55.1035 70.2974 55.7851 71.1608 56.2395C72.0469 56.6939 72.967 56.9211 73.9213 56.9211C76.1479 56.9211 77.8633 55.876 79.0675 53.7857L81.5213 54.9785C80.7715 56.3872 79.7491 57.5005 78.454 58.3184C77.1817 59.1363 75.6367 59.5453 73.8191 59.5453ZM78.8289 48.4691C78.7834 47.7421 78.579 47.015 78.2154 46.288C77.8519 45.5609 77.2725 44.9475 76.4773 44.4476C75.7048 43.9478 74.7279 43.6978 73.5464 43.6978C72.1832 43.6978 71.0245 44.1409 70.0702 45.027C69.1387 45.8904 68.5252 47.0377 68.2298 48.4691H78.8289ZM91.4669 59.2726C90.7626 59.2726 90.1037 59.159 89.4902 58.9318C88.8995 58.7046 88.3997 58.3979 87.9907 58.0117C87.5363 57.58 87.1955 57.0801 86.9683 56.5121C86.7411 55.9441 86.6275 55.2511 86.6275 54.4332V44.2431H83.5943V41.6189H86.6275V36.7113H89.5243V41.6189H93.7503V44.2431H89.5243V53.7175C89.5243 54.6718 89.7061 55.3761 90.0696 55.8305C90.5013 56.3304 91.1261 56.5803 91.944 56.5803C92.6029 56.5803 93.2391 56.3872 93.8525 56.0009V58.8296C93.5117 58.9886 93.1596 59.1022 92.796 59.1704C92.4552 59.2386 92.0122 59.2726 91.4669 59.2726ZM116.554 59.5453C114.191 59.5453 112.044 58.9886 110.112 57.8753C108.181 56.762 106.659 55.2398 105.546 53.3086C104.455 51.3546 103.91 49.1848 103.91 46.7992C103.91 44.4135 104.455 42.2551 105.546 40.3239C106.659 38.3699 108.181 36.8363 110.112 35.723C112.044 34.6097 114.191 34.0531 116.554 34.0531C118.371 34.0531 120.03 34.4052 121.529 35.1096C123.052 35.7912 124.369 36.7681 125.483 38.0405L123.404 40.0512C122.472 38.9379 121.45 38.12 120.337 37.5974C119.246 37.0749 117.985 36.8136 116.554 36.8136C114.781 36.8136 113.157 37.2339 111.68 38.0746C110.203 38.8925 109.022 40.0626 108.136 41.5849C107.272 43.0844 106.841 44.8225 106.841 46.7992C106.841 48.7758 107.272 50.5253 108.136 52.0476C109.022 53.5471 110.203 54.7172 111.68 55.5579C113.157 56.3758 114.781 56.7848 116.554 56.7848C119.507 56.7848 122.018 55.5692 124.085 53.1382L126.198 55.183C125.062 56.5235 123.665 57.5913 122.007 58.3866C120.348 59.159 118.53 59.5453 116.554 59.5453ZM136.855 59.5453C135.196 59.5453 133.708 59.1477 132.39 58.3525C131.072 57.5573 130.039 56.4667 129.289 55.0807C128.562 53.6721 128.198 52.093 128.198 50.3435C128.198 48.6622 128.539 47.1173 129.221 45.7086C129.925 44.2999 130.913 43.1753 132.186 42.3346C133.458 41.494 134.935 41.0736 136.616 41.0736C138.32 41.0736 139.797 41.4599 141.047 42.2324C142.296 42.9822 143.25 44.0273 143.909 45.3678C144.591 46.7083 144.932 48.2419 144.932 49.9687C144.932 50.3095 144.898 50.6048 144.83 50.8548H131.095C131.163 52.1725 131.481 53.2858 132.049 54.1946C132.617 55.1035 133.333 55.7851 134.196 56.2395C135.083 56.6939 136.003 56.9211 136.957 56.9211C139.184 56.9211 140.899 55.876 142.103 53.7857L144.557 54.9785C143.807 56.3872 142.785 57.5005 141.49 58.3184C140.217 59.1363 138.672 59.5453 136.855 59.5453ZM141.865 48.4691C141.819 47.7421 141.615 47.015 141.251 46.288C140.888 45.5609 140.308 44.9475 139.513 44.4476C138.74 43.9478 137.764 43.6978 136.582 43.6978C135.219 43.6978 134.06 44.1409 133.106 45.027C132.174 45.8904 131.561 47.0377 131.265 48.4691H141.865ZM148.322 41.6189H151.083V44.3795H151.219C151.628 43.357 152.321 42.5618 153.298 41.9938C154.275 41.4258 155.343 41.1418 156.501 41.1418C157.001 41.1418 157.421 41.1759 157.762 41.244V44.2091C157.376 44.1182 156.853 44.0727 156.195 44.0727C154.718 44.0727 153.514 44.5612 152.582 45.5382C151.673 46.5152 151.219 47.7875 151.219 49.3552V59H148.322V41.6189ZM167.918 59.2726C167.214 59.2726 166.555 59.159 165.942 58.9318C165.351 58.7046 164.851 58.3979 164.442 58.0117C163.988 57.58 163.647 57.0801 163.42 56.5121C163.192 55.9441 163.079 55.2511 163.079 54.4332V44.2431H160.046V41.6189H163.079V36.7113H165.976V41.6189H170.202V44.2431H165.976V53.7175C165.976 54.6718 166.157 55.3761 166.521 55.8305C166.953 56.3304 167.577 56.5803 168.395 56.5803C169.054 56.5803 169.69 56.3872 170.304 56.0009V58.8296C169.963 58.9886 169.611 59.1022 169.247 59.1704C168.907 59.2386 168.464 59.2726 167.918 59.2726ZM175.586 38.4154C175.018 38.4154 174.53 38.2109 174.121 37.8019C173.712 37.393 173.508 36.9045 173.508 36.3365C173.508 35.7684 173.712 35.2913 174.121 34.9051C174.53 34.4961 175.018 34.2916 175.586 34.2916C176.154 34.2916 176.643 34.4961 177.052 34.9051C177.461 35.2913 177.665 35.7684 177.665 36.3365C177.665 36.9045 177.461 37.393 177.052 37.8019C176.666 38.2109 176.177 38.4154 175.586 38.4154ZM174.155 41.6189H177.018V59H174.155V41.6189ZM183.581 44.2431H180.378V41.6189H183.581V39.7445C183.581 38.6539 183.831 37.6997 184.331 36.8817C184.831 36.0638 185.501 35.439 186.342 35.0073C187.182 34.5529 188.114 34.3257 189.136 34.3257C190.113 34.3257 190.965 34.462 191.692 34.7347V37.5634C191.283 37.4043 190.897 37.2793 190.534 37.1885C190.17 37.0749 189.738 37.0181 189.239 37.0181C188.489 37.0181 187.841 37.2907 187.296 37.836C186.751 38.3586 186.478 39.097 186.478 40.0512V41.6189H197.248V59H194.385V44.2431H186.478V59H183.581V44.2431ZM195.816 38.5858C195.248 38.5858 194.76 38.3813 194.351 37.9723C193.942 37.5634 193.737 37.0749 193.737 36.5069C193.737 35.9388 193.942 35.4504 194.351 35.0414C194.76 34.6324 195.248 34.4279 195.816 34.4279C196.384 34.4279 196.873 34.6324 197.282 35.0414C197.691 35.4504 197.895 35.9388 197.895 36.5069C197.895 37.0749 197.691 37.5634 197.282 37.9723C196.895 38.3813 196.407 38.5858 195.816 38.5858ZM209.512 59.5453C207.831 59.5453 206.32 59.1477 204.979 58.3525C203.639 57.5345 202.594 56.4326 201.844 55.0467C201.094 53.638 200.719 52.0589 200.719 50.3095C200.719 48.56 201.094 46.9809 201.844 45.5723C202.594 44.1636 203.639 43.0617 204.979 42.2665C206.32 41.4713 207.831 41.0736 209.512 41.0736C211.398 41.0736 212.977 41.5167 214.249 42.4028C215.544 43.2662 216.464 44.4249 217.01 45.879L214.385 46.9696C213.954 45.9017 213.306 45.0951 212.443 44.5499C211.602 43.9819 210.58 43.6978 209.376 43.6978C208.353 43.6978 207.399 43.9819 206.513 44.5499C205.627 45.0951 204.911 45.8676 204.366 46.8673C203.843 47.867 203.582 49.0144 203.582 50.3095C203.582 51.6045 203.843 52.7519 204.366 53.7516C204.911 54.7513 205.627 55.5351 206.513 56.1032C207.399 56.6484 208.353 56.9211 209.376 56.9211C210.603 56.9211 211.659 56.6371 212.545 56.0691C213.431 55.5011 214.09 54.6945 214.522 53.6494L217.112 54.7399C216.521 56.1713 215.567 57.3301 214.249 58.2161C212.954 59.1022 211.375 59.5453 209.512 59.5453ZM225.633 59.5453C224.36 59.5453 223.224 59.2954 222.225 58.7955C221.225 58.2957 220.452 57.6141 219.907 56.7507C219.362 55.8646 219.089 54.8649 219.089 53.7516C219.089 51.9113 219.782 50.4799 221.168 49.4575C222.554 48.4123 224.303 47.8898 226.416 47.8898C227.462 47.8898 228.427 48.0034 229.313 48.2306C230.222 48.4578 230.915 48.719 231.392 49.0144V47.9579C231.392 46.6629 230.938 45.6291 230.029 44.8566C229.12 44.0614 227.973 43.6638 226.587 43.6638C225.61 43.6638 224.712 43.8796 223.894 44.3113C223.077 44.7203 222.429 45.2996 221.952 46.0494L219.771 44.4135C220.452 43.3684 221.384 42.5505 222.565 41.9597C223.77 41.369 225.099 41.0736 226.553 41.0736C228.916 41.0736 230.767 41.6985 232.108 42.9481C233.471 44.175 234.153 45.8563 234.153 47.992V59H231.392V56.5121H231.256C230.756 57.3528 230.006 58.0685 229.007 58.6592C228.007 59.2499 226.882 59.5453 225.633 59.5453ZM225.905 56.9892C226.882 56.9892 227.791 56.7393 228.632 56.2395C229.472 55.7396 230.143 55.0694 230.642 54.2287C231.142 53.3881 231.392 52.4679 231.392 51.4682C230.847 51.1047 230.177 50.8093 229.381 50.5821C228.586 50.3549 227.746 50.2413 226.859 50.2413C225.269 50.2413 224.065 50.5708 223.247 51.2296C222.452 51.8885 222.054 52.7405 222.054 53.7857C222.054 54.7399 222.418 55.5124 223.145 56.1032C223.872 56.6939 224.792 56.9892 225.905 56.9892ZM244.53 59.2726C243.825 59.2726 243.166 59.159 242.553 58.9318C241.962 58.7046 241.462 58.3979 241.053 58.0117C240.599 57.58 240.258 57.0801 240.031 56.5121C239.804 55.9441 239.69 55.2511 239.69 54.4332V44.2431H236.657V41.6189H239.69V36.7113H242.587V41.6189H246.813V44.2431H242.587V53.7175C242.587 54.6718 242.769 55.3761 243.132 55.8305C243.564 56.3304 244.189 56.5803 245.007 56.5803C245.666 56.5803 246.302 56.3872 246.915 56.0009V58.8296C246.575 58.9886 246.222 59.1022 245.859 59.1704C245.518 59.2386 245.075 59.2726 244.53 59.2726ZM257.301 59.5453C255.643 59.5453 254.155 59.1477 252.837 58.3525C251.519 57.5573 250.485 56.4667 249.736 55.0807C249.008 53.6721 248.645 52.093 248.645 50.3435C248.645 48.6622 248.986 47.1173 249.667 45.7086C250.372 44.2999 251.36 43.1753 252.632 42.3346C253.905 41.494 255.382 41.0736 257.063 41.0736C258.767 41.0736 260.244 41.4599 261.493 42.2324C262.743 42.9822 263.697 44.0273 264.356 45.3678C265.038 46.7083 265.378 48.2419 265.378 49.9687C265.378 50.3095 265.344 50.6048 265.276 50.8548H251.542C251.61 52.1725 251.928 53.2858 252.496 54.1946C253.064 55.1035 253.78 55.7851 254.643 56.2395C255.529 56.6939 256.449 56.9211 257.404 56.9211C259.63 56.9211 261.346 55.876 262.55 53.7857L265.004 54.9785C264.254 56.3872 263.231 57.5005 261.936 58.3184C260.664 59.1363 259.119 59.5453 257.301 59.5453ZM262.311 48.4691C262.266 47.7421 262.061 47.015 261.698 46.288C261.334 45.5609 260.755 44.9475 259.96 44.4476C259.187 43.9478 258.21 43.6978 257.029 43.6978C255.666 43.6978 254.507 44.1409 253.553 45.027C252.621 45.8904 252.008 47.0377 251.712 48.4691H262.311Z" fill="white"/>
</g>
<defs>
<clipPath id="clip0_977_78">
<rect width="314" height="101" fill="white"/>
</clipPath>
</defs>
</svg>
