<svg width="993" height="850" viewBox="0 0 993 850" fill="none" xmlns="http://www.w3.org/2000/svg">
<path d="M660.043 10.2827C660.043 19.0647 659.932 20.5654 659.209 20.5654C658.486 20.5654 658.375 19.1203 658.375 11.1164V1.66736H648.648C640.367 1.66736 638.921 1.5562 638.921 0.833624C638.921 0.11105 640.478 -0.000114441 649.482 -0.000114441H660.043V10.2827Z" fill="white"/>
<path d="M557.771 0.833624C557.771 1.5562 556.326 1.66736 548.322 1.66736H538.873V11.1164C538.873 19.1203 538.762 20.5654 538.039 20.5654C537.317 20.5654 537.205 19.0647 537.205 10.2827V-0.000114441H547.488C556.27 -0.000114441 557.771 0.11105 557.771 0.833624Z" fill="white"/>
<path d="M577.058 15.2853C586.118 16.8972 594.734 23.2892 599.013 31.4598C602.682 38.4077 602.793 39.4637 602.793 68.3666V94.2126L604.405 90.8776C607.907 83.4296 614.688 77.5378 623.025 74.7587C626.582 73.5914 628.361 73.3135 632.752 73.3135C638.866 73.3691 645.925 74.981 646.926 76.6485C647.648 77.7601 645.592 85.097 643.535 89.0989C636.587 102.55 619.968 109.331 605.85 104.607L602.793 103.55V172.806V242.062L614.577 253.846L626.416 265.685L614.632 277.468L602.793 289.307L602.682 399.361L602.515 509.414L601.014 514.806C595.567 534.537 581.449 549.711 562.496 556.215C553.547 559.272 557.549 559.16 448.885 559.16H348.503L336.997 570.666L325.436 582.227V633.085C325.436 682.109 325.492 684.11 326.548 688.612C330.161 703.564 340.944 715.848 355.173 721.184C362.676 724.018 365.233 724.241 391.857 724.241C414.868 724.241 416.536 724.185 416.814 723.24C416.925 722.74 417.37 720.405 417.703 718.127C418.537 712.624 420.038 707.955 423.095 701.229C425.763 695.504 427.152 691.113 427.152 688.501C427.152 687.667 426.541 685.778 425.818 684.332C422.094 677.162 422.594 664.767 426.763 658.32C428.264 656.041 431.432 654.207 433.933 654.207C436.379 654.207 437.324 653.317 436.49 651.817C436.212 651.205 436.045 649.871 436.212 648.871C436.434 647.648 436.268 646.814 435.712 646.369C435.267 646.036 434.934 645.036 434.934 644.146C434.934 640.478 440.158 640.089 440.881 643.702C441.103 644.758 441.659 645.591 442.493 645.869C444.994 646.87 445.661 649.816 443.827 652.15C442.326 653.984 442.437 654.54 444.216 655.429C445.772 656.208 445.772 656.208 445.606 661.432C445.439 668.158 446.161 671.66 448.551 675.384C450.664 678.663 450.886 679.886 449.719 680.831C447.94 682.276 442.771 675.05 441.048 668.658L440.325 666.157L439.269 668.38C437.546 671.993 438.157 674.995 442.104 682.776C445.883 690.224 446.773 693.448 447.662 703.119C448.274 709.122 449.552 716.57 450.997 721.851L451.664 724.241H466.616H481.623V697.005V669.77L480.345 669.547C479.678 669.381 478.233 669.158 477.121 668.936C473.897 668.436 468.45 665.434 465.615 662.6C456.277 653.206 455.888 638.088 464.782 628.583C470.117 622.858 475.842 620.579 483.902 620.968C488.126 621.191 489.293 621.469 492.906 623.247C504.023 628.75 509.081 641.478 504.912 653.484C502.244 661.321 494.463 667.936 486.625 669.047L483.568 669.492L483.402 696.894L483.291 724.241H498.854C512.193 724.241 514.472 724.129 514.75 723.407C514.973 722.907 515.806 722.573 516.974 722.573C518.419 722.573 518.863 722.351 518.863 721.573C518.863 720.405 514.028 712.568 513.305 712.568C513.027 712.568 512.082 711.901 511.082 711.123C509.637 709.9 509.359 709.289 509.414 707.344C509.47 706.121 509.303 704.009 509.081 702.786C508.747 700.674 508.858 700.34 510.248 699.451C511.526 698.617 513.027 698.45 518.919 698.45C522.865 698.395 526.089 698.284 526.089 698.172C526.089 698.006 525.422 697.172 524.588 696.338C523.143 694.837 522.976 694.782 516.807 694.782H510.526L504.634 691.614C499.354 688.779 498.798 688.334 498.965 687.056C499.187 684.888 500.743 684.999 506.024 687.556C508.581 688.779 511.193 689.835 511.86 689.891C513.472 690.057 518.308 688.612 518.308 688.056C518.308 687.779 518.085 687.556 517.807 687.556C517.529 687.556 517.196 686.389 517.029 684.888C516.862 683.443 516.529 681.498 516.362 680.553C516.029 679.108 516.195 678.663 517.251 677.885C517.974 677.385 519.197 676.995 520.031 676.995C521.642 676.995 525.589 679.441 528.034 681.942C529.202 683.11 530.258 683.665 531.481 683.665C532.648 683.665 534.093 684.388 536.038 685.889C539.151 688.334 544.932 695.338 546.655 698.617C548.822 702.953 548.6 707.288 545.932 709.622C544.487 710.901 539.929 712.012 535.927 712.012C533.204 712.068 533.092 712.068 534.426 712.791C535.205 713.235 537.428 714.013 539.373 714.569L542.875 715.514L542.653 718.516C542.486 720.572 542.041 721.851 541.096 722.851L539.874 724.185L570.333 724.352C599.903 724.574 600.959 724.574 605.294 725.797C622.302 730.577 634.92 743.139 639.589 760.091C640.811 764.482 640.867 765.094 641.034 807.17C641.145 845.299 641.089 849.857 640.311 849.857C639.589 849.857 639.477 845.411 639.477 809.06C639.477 765.261 639.422 764.26 636.587 756.423C632.029 744.028 622.025 733.745 609.908 729.132C601.515 725.964 611.575 726.242 482.179 725.908C370.903 725.63 363.288 725.575 360.175 724.63C344.167 719.961 332.162 709.345 326.881 695.282C323.713 686.889 323.769 687.501 323.769 632.696V582.227L312.207 570.666L300.646 559.16L187.591 559.272L74.4808 559.438L68.9226 560.939C62.475 562.718 54.3044 566.497 49.4687 569.944C47.6345 571.277 43.8549 574.724 41.1313 577.614C34.0168 585.118 29.9037 592.51 26.7911 603.515C25.6238 607.74 25.5682 608.518 25.4015 655.263L25.2347 702.786L37.0739 714.625L48.9129 726.464L37.0739 738.303L25.2903 750.087V800C25.2903 843.965 25.1791 849.857 24.4565 849.857C23.7339 849.857 23.6228 843.965 23.6228 800V750.087L11.8394 738.303L0.000244141 726.464L11.8394 714.625L23.6228 702.841V658.375C23.6228 632.974 23.9007 612.131 24.1786 609.741C25.9017 596.401 31.5712 584.673 40.8535 575.279C50.4692 565.497 63.142 559.494 77.0377 558.049C80.7061 557.715 120.281 557.493 191.982 557.493H301.258L312.93 545.821L324.602 534.148L336.275 545.821L347.947 557.493H449.107C545.71 557.493 550.49 557.437 555.27 556.437C565.775 554.269 574.946 549.489 582.728 542.208C591.954 533.481 597.513 523.588 600.014 511.415C601.126 505.968 601.126 504.134 601.126 397.638V289.307L589.342 277.524L577.503 265.685L589.342 253.846L601.126 242.062V172.917V103.828L599.847 104.162C586.229 108.164 574.779 105.551 565.831 96.4915C561.773 92.3784 559.216 87.7094 557.716 81.7065C556.382 76.3705 556.493 76.1483 560.939 74.7587C570.611 71.7017 580.893 73.1468 589.064 78.7606C593.566 81.8177 596.179 84.7079 599.013 89.8771L601.126 93.6567V69.4227V45.1887L598.124 46.1892C584.006 50.9693 566.942 43.9103 560.328 30.515C558.049 25.846 556.382 19.0649 557.271 18.0089C558.049 17.064 562.273 15.73 566.664 15.0074C571.055 14.3404 572 14.3405 577.058 15.2853ZM565.997 16.8972C563.663 17.3419 561.328 17.8977 560.828 18.2312C560.05 18.6203 563.941 21.0659 579.782 30.0703C590.676 36.2955 599.903 41.5203 600.181 41.6315C601.126 42.0206 600.014 37.6295 598.068 33.4608C593.955 24.6788 585.451 18.3979 575.446 16.7305C571.333 16.0635 570.777 16.0635 565.997 16.8972ZM624.97 75.9259C615.021 78.8718 607.406 86.1531 604.349 95.6577C603.682 97.7698 603.293 99.6041 603.46 99.7708C603.738 100.049 625.248 88.0984 640.311 79.3164L644.202 77.0375L641.145 76.0926C637.143 74.8142 629.028 74.7587 624.97 75.9259ZM562.774 76.037L559.717 77.0375L579.837 88.5431C590.954 94.8795 600.181 100.049 600.347 100.049C601.07 100.049 599.847 95.7133 598.013 91.8781C594.511 84.5411 588.397 79.1497 580.449 76.4817C575.391 74.7031 567.609 74.5363 562.774 76.037ZM473.119 624.581C459.112 631.14 455.722 649.482 466.393 660.877C469.506 664.156 474.564 666.879 478.733 667.38L481.623 667.713V661.988V656.263L475.175 649.76C470.951 645.425 468.95 643.09 469.395 642.812C469.84 642.534 472.063 644.424 475.453 647.759C478.399 650.705 481.012 653.095 481.234 653.095C481.456 653.095 481.623 649.093 481.623 644.202C481.623 636.643 481.734 635.309 482.457 635.309C483.179 635.309 483.291 636.698 483.291 644.313V653.373L489.016 647.648C493.684 643.035 494.907 642.034 495.408 642.645C495.908 643.257 494.741 644.758 489.683 649.76L483.291 656.152V661.933V667.713L486.014 667.38C497.742 665.99 506.691 652.928 504.19 640.922C503.189 636.087 501.633 633.085 498.409 629.639C493.518 624.414 488.793 622.469 481.623 622.691C477.677 622.802 476.232 623.136 473.119 624.581ZM428.319 710.345C425.596 715.681 422.983 721.017 422.539 722.128L421.649 724.241H433.544H445.439L443.493 718.516C442.437 715.403 440.659 709.845 439.603 706.176C438.491 702.508 437.213 698.784 436.768 697.895L435.934 696.227L434.6 698.45C433.878 699.618 431.043 705.009 428.319 710.345ZM523.532 717.682C523.755 718.404 524.199 720.128 524.588 721.573L525.255 724.241H531.258C534.982 724.241 537.15 724.018 536.928 723.685C536.761 723.407 536.928 722.684 537.317 722.073C538.317 720.405 537.65 720.016 530.814 718.182C522.976 716.181 523.088 716.181 523.532 717.682Z" fill="white"/>
<path d="M928.618 66.977C931.897 68.1998 935.565 70.9789 937.4 73.7025C941.013 78.8716 940.735 67.5328 940.623 218.995L940.457 357.118L939.178 359.452C936.51 364.566 932.675 367.734 927.395 369.29C924.838 370.069 920.169 370.18 894.49 370.18H864.587V433.655L864.642 497.186L865.809 494.407C872.757 478.288 888.154 468.005 905.44 468.005C912.11 468.005 915.667 468.561 921.114 470.562C925.838 472.229 925.838 472.229 924.115 479.4C920.169 495.796 907.663 507.969 891.044 511.637C884.819 513.027 874.814 512.582 868.866 510.637L864.587 509.247V529.09L864.642 548.878L932.119 586.396C980.698 613.353 999.652 624.136 999.652 624.803C999.652 625.526 981.977 615.91 934.231 589.342C898.214 569.332 867.81 552.435 866.699 551.879L864.587 550.823V578.503V606.239L868.866 606.628C878.371 607.406 887.598 610.797 891.989 615.021C897.769 620.635 896.658 627.916 889.265 632.807C873.758 643.146 841.186 640.422 833.46 628.25C828.958 621.135 833.794 613.353 845.077 609.407C849.135 607.962 857.416 606.406 860.751 606.406H862.919V578.559V550.768L858.584 553.158C827.513 570.221 722.295 629.028 722.295 629.25C722.295 629.472 754.088 647.314 792.996 668.936C852.525 702.063 863.808 708.122 864.809 707.677C865.476 707.399 895.935 690.502 932.564 670.103C969.137 649.76 999.207 633.085 999.374 633.085C999.541 633.085 999.652 633.53 999.652 634.03C999.597 634.753 981.31 645.202 932.508 672.271L865.42 709.567L865.253 779.712L865.142 849.857H792.051H718.96V739.581V629.25L720.127 628.416C720.794 627.972 753.199 609.907 792.107 588.23L862.919 548.878V528.812V508.803L858.028 510.47C851.247 512.749 841.464 513.138 834.572 511.415C816.674 506.913 804.224 493.073 801.556 474.786L801.222 472.396L804.113 471.118C808.726 469.061 814.507 468.005 820.787 468.005C839.296 468.005 855.082 479.066 861.585 496.63L862.863 499.965V435.1L862.919 370.235L826.624 370.069C790.495 369.902 790.384 369.902 787.716 368.679C783.825 366.845 779.934 362.954 778.1 358.897L776.488 355.45L776.321 236.393L776.21 117.335L757.979 117.168L739.804 117.001L736.747 115.278C733.189 113.277 730.744 110.165 729.799 106.329L729.132 103.661L694.56 103.495L660.043 103.384V113.388V123.393H649.482C640.478 123.393 638.921 123.282 638.921 122.56C638.921 121.837 640.367 121.726 648.648 121.726H658.375V111.999V102.272H693.67C721.461 102.272 729.021 102.105 729.187 101.549C729.299 101.216 729.688 99.8263 730.021 98.5479C730.91 95.213 733.801 91.7112 737.025 90.0994L739.748 88.6542L757.924 88.4874L776.044 88.3207L776.433 84.0408C777.044 76.0925 781.546 69.8118 788.216 67.2549C791.218 66.1433 792.218 66.1432 858.917 66.1989C914.833 66.1989 926.895 66.3656 928.618 66.977ZM798.388 68.978C792.274 71.8683 788.494 77.4821 787.994 84.5411L787.716 88.3207L806.558 88.4874C823.678 88.6542 825.568 88.7654 827.346 89.7103C836.462 94.546 838.352 105.774 831.293 112.833C827.068 117.057 825.845 117.279 805.28 117.279H787.883L787.994 236.337L788.161 355.45L789.717 358.619C791.662 362.509 795.331 365.9 799.388 367.401C802.39 368.512 803.112 368.512 864.475 368.401L926.561 368.234L929.729 366.678C933.453 364.844 935.899 362.231 937.9 357.952L939.345 354.895V218.162C939.345 84.7079 939.345 81.3729 938.289 78.6494C936.344 73.6469 931.119 69.0891 925.894 67.8663C924.671 67.5884 897.213 67.3661 862.641 67.4216L801.5 67.5328L798.388 68.978ZM738.081 91.5445C733.245 94.1569 730.91 98.3812 731.3 103.939C731.577 107.83 733.467 110.998 736.858 113.222L739.192 114.778L781.88 114.945C823.511 115.056 824.623 115.056 826.735 114C829.903 112.388 832.738 108.775 833.405 105.551C834.35 101.271 833.349 97.6586 830.236 94.3792C826.068 89.877 828.236 90.0994 781.491 90.2105L740.359 90.3217L738.081 91.5445ZM895.935 470.784C884.318 473.73 874.536 481.456 869.089 491.906C866.977 495.852 864.309 504.134 864.698 505.245C864.864 505.746 921.781 473.563 921.837 472.896C921.837 472.452 917.334 470.951 913.999 470.284C909.33 469.339 900.604 469.617 895.935 470.784ZM808.559 471.34C805.947 472.174 804.724 472.841 805.058 473.174C806.558 474.675 861.529 505.523 861.696 504.912C862.03 503.578 860.029 497.075 857.917 492.739C852.692 481.956 842.965 474.064 830.681 470.784C824.901 469.228 814.451 469.506 808.559 471.34ZM750.642 709.344V716.737L757.646 720.628C761.536 722.74 764.871 724.574 765.149 724.685C765.427 724.796 765.65 721.573 765.65 717.46L765.594 710.067L758.535 706.121C754.644 703.897 751.309 702.119 751.031 702.063C750.809 702.063 750.642 705.343 750.642 709.344ZM799.555 732.411V745.64L812.728 752.588C820.009 756.423 828.625 760.981 831.904 762.704L837.907 765.872L837.796 752.532L837.629 739.192L819.009 729.243C808.782 723.796 800.222 719.294 799.944 719.294C799.722 719.238 799.555 725.186 799.555 732.411ZM745.64 784.27V800.389L747.696 801.667C750.92 803.668 769.262 813.729 769.707 813.729C769.929 813.729 770.096 806.392 770.096 797.443V781.213L758.535 774.71C752.199 771.152 746.696 768.262 746.307 768.206C745.807 768.151 745.64 771.708 745.64 784.27Z" fill="white"/>
<path d="M883.374 77.9267C883.151 78.4825 878.594 78.7048 863.586 78.816C846.411 78.9272 844.021 78.816 844.021 78.0934C844.021 77.3709 846.522 77.2597 863.809 77.2597C879.372 77.2597 883.54 77.4264 883.374 77.9267Z" fill="white"/>
<path d="M845.744 147.516C852.081 149.35 858.361 154.297 861.363 159.855C864.364 165.469 864.587 167.303 864.642 190.926C864.642 205.044 864.864 212.159 865.198 211.325C866.254 208.601 870.423 203.321 872.98 201.487C880.483 195.928 890.21 194.595 898.714 197.985C900.215 198.596 900.271 198.708 899.993 201.542C899.604 205.489 896.824 211.047 893.49 214.715C887.098 221.719 875.703 224.665 866.921 221.608L864.587 220.774V248.232C864.587 272.243 864.475 275.689 863.753 275.689C863.03 275.689 862.919 272.299 862.919 248.398C862.919 222.719 862.864 221.163 861.919 221.441C852.025 224.442 843.076 222.608 836.017 216.161C831.404 211.936 828.791 207.156 827.68 200.764C827.402 198.986 827.457 198.874 830.014 197.707C833.683 196.095 841.575 195.762 846.022 197.04C852.247 198.819 858.306 203.432 861.307 208.712L862.919 211.492V191.593C862.919 180.699 862.808 171.75 862.641 171.75C862.53 171.75 860.974 172.139 859.195 172.584C844.688 176.363 829.514 166.414 827.569 151.852L827.235 149.128L829.903 148.128C833.46 146.905 842.354 146.516 845.744 147.516ZM832.571 149.017C831.015 149.406 830.237 149.851 830.57 150.184C830.848 150.462 838.074 154.686 846.578 159.522C863.92 169.36 863.975 169.36 860.696 162.412C857.917 156.465 852.692 151.685 846.578 149.517C843.298 148.294 836.295 148.072 832.571 149.017ZM881.539 198.819C877.426 200.097 874.536 201.987 871.312 205.378C868.422 208.435 866.032 212.77 865.365 216.161C864.976 217.995 865.031 217.995 866.31 217.328C868.422 216.161 894.768 201.153 896.213 200.208L897.603 199.375L896.213 198.819C892.267 197.318 886.486 197.318 881.539 198.819ZM832.738 198.485C831.626 198.819 830.681 199.208 830.681 199.43C830.737 199.764 860.863 217.161 862.53 217.828C863.419 218.162 862.474 215.16 860.418 210.88C855.471 200.764 844.132 195.651 832.738 198.485Z" fill="white"/>
<path d="M868.866 313.097C874.98 315.375 878.482 320.433 878.482 327.048C878.482 335.107 873.146 340.943 865.142 341.666C859.084 342.222 853.97 339.443 850.969 333.996C849.635 331.494 849.357 330.383 849.357 327.103C849.357 323.824 849.635 322.712 850.969 320.156C852.803 316.821 856.304 313.819 859.473 312.93C862.141 312.207 866.587 312.263 868.866 313.097Z" fill="white"/>
<path d="M538.873 112.277V121.726H548.322C556.326 121.726 557.771 121.837 557.771 122.56C557.771 123.282 556.27 123.393 547.488 123.393H537.205V113.111C537.205 104.328 537.317 102.828 538.039 102.828C538.762 102.828 538.873 104.273 538.873 112.277Z" fill="white"/>
</svg>
