<svg width="35" height="34" viewBox="0 0 35 34" fill="none" xmlns="http://www.w3.org/2000/svg">
<circle cx="17.5076" cy="17.1805" r="16.6863" fill="#D4D4D4"/>
<path fill-rule="evenodd" clip-rule="evenodd" d="M14.6981 10.496C15.4085 10.4633 15.6349 10.4561 17.4443 10.4561C19.2538 10.4561 19.4802 10.4639 20.1899 10.496C20.8997 10.5281 21.3841 10.6414 21.808 10.8055C22.2519 10.9732 22.6546 11.2354 22.9876 11.5745C23.3267 11.907 23.5883 12.3091 23.7555 12.7535C23.9202 13.1774 24.0328 13.6619 24.0655 14.3704C24.0982 15.0819 24.1055 15.3084 24.1055 17.1172C24.1055 18.9266 24.0976 19.1531 24.0655 19.8634C24.0334 20.5719 23.9202 21.0564 23.7555 21.4802C23.5883 21.9248 23.3263 22.3275 22.9876 22.6605C22.6546 22.9996 22.2519 23.2612 21.808 23.4283C21.3841 23.593 20.8997 23.7057 20.1912 23.7384C19.4802 23.7711 19.2538 23.7783 17.4443 23.7783C15.6349 23.7783 15.4085 23.7705 14.6981 23.7384C13.9896 23.7063 13.5052 23.593 13.0813 23.4283C12.6368 23.2612 12.234 22.9991 11.9011 22.6605C11.5622 22.3278 11.2999 21.9253 11.1326 21.4809C10.9685 21.057 10.8559 20.5725 10.8232 19.864C10.7905 19.1525 10.7832 18.926 10.7832 17.1172C10.7832 15.3078 10.7911 15.0813 10.8232 14.3716C10.8553 13.6619 10.9685 13.1774 11.1326 12.7535C11.3002 12.3091 11.5626 11.9066 11.9017 11.5739C12.2341 11.2351 12.6365 10.9729 13.0807 10.8055C13.5046 10.6414 13.989 10.5287 14.6975 10.496H14.6981ZM20.1361 11.695C19.4336 11.6629 19.2229 11.6563 17.4443 11.6563C15.6658 11.6563 15.4551 11.6629 14.7526 11.695C14.1029 11.7247 13.7504 11.8331 13.5155 11.9245C13.2048 12.0456 12.9826 12.1892 12.7495 12.4223C12.5284 12.6373 12.3584 12.899 12.2517 13.1883C12.1602 13.4233 12.0518 13.7757 12.0222 14.4255C11.9901 15.1279 11.9834 15.3387 11.9834 17.1172C11.9834 18.8957 11.9901 19.1065 12.0222 19.8089C12.0518 20.4587 12.1602 20.8111 12.2517 21.0461C12.3583 21.3349 12.5284 21.5971 12.7495 21.8121C12.9644 22.0331 13.2266 22.2033 13.5155 22.3099C13.7504 22.4013 14.1029 22.5097 14.7526 22.5394C15.4551 22.5715 15.6652 22.5781 17.4443 22.5781C19.2235 22.5781 19.4336 22.5715 20.1361 22.5394C20.7858 22.5097 21.1383 22.4013 21.3732 22.3099C21.6839 22.1888 21.9061 22.0452 22.1392 21.8121C22.3603 21.5971 22.5304 21.3349 22.637 21.0461C22.7284 20.8111 22.8368 20.4587 22.8665 19.8089C22.8986 19.1065 22.9053 18.8957 22.9053 17.1172C22.9053 15.3387 22.8986 15.1279 22.8665 14.4255C22.8368 13.7757 22.7284 13.4233 22.637 13.1883C22.5159 12.8777 22.3724 12.6554 22.1392 12.4223C21.9242 12.2013 21.6625 12.0312 21.3732 11.9245C21.1383 11.8331 20.7858 11.7247 20.1361 11.695ZM16.5935 19.1706C17.0687 19.3684 17.5978 19.3951 18.0904 19.2462C18.5831 19.0972 19.0087 18.7818 19.2947 18.3539C19.5807 17.926 19.7092 17.412 19.6583 16.8999C19.6074 16.3877 19.3803 15.9091 19.0158 15.5458C18.7834 15.3135 18.5024 15.1357 18.193 15.0251C17.8837 14.9145 17.5536 14.8738 17.2266 14.9061C16.8997 14.9383 16.5839 15.0427 16.3021 15.2116C16.0203 15.3805 15.7795 15.6098 15.597 15.883C15.4144 16.1562 15.2947 16.4664 15.2465 16.7914C15.1982 17.1164 15.2226 17.448 15.318 17.7624C15.4133 18.0769 15.5771 18.3662 15.7977 18.6097C16.0182 18.8532 16.29 19.0448 16.5935 19.1706ZM15.0233 14.6962C15.3413 14.3782 15.7187 14.126 16.1341 13.954C16.5495 13.7819 16.9947 13.6934 17.4443 13.6934C17.894 13.6934 18.3392 13.7819 18.7546 13.954C19.17 14.126 19.5474 14.3782 19.8654 14.6962C20.1833 15.0141 20.4355 15.3916 20.6076 15.8069C20.7796 16.2223 20.8682 16.6676 20.8682 17.1172C20.8682 17.5668 20.7796 18.012 20.6076 18.4274C20.4355 18.8428 20.1833 19.2203 19.8654 19.5382C19.2233 20.1803 18.3524 20.541 17.4443 20.541C16.5363 20.541 15.6654 20.1803 15.0233 19.5382C14.3812 18.8961 14.0205 18.0253 14.0205 17.1172C14.0205 16.2091 14.3812 15.3383 15.0233 14.6962ZM21.6275 14.2033C21.7063 14.1289 21.7694 14.0396 21.813 13.9404C21.8567 13.8413 21.8799 13.7344 21.8815 13.6261C21.8831 13.5178 21.8629 13.4103 21.8222 13.3099C21.7815 13.2096 21.7211 13.1184 21.6445 13.0418C21.5679 12.9652 21.4767 12.9048 21.3764 12.8641C21.276 12.8234 21.1685 12.8032 21.0602 12.8048C20.9519 12.8063 20.845 12.8296 20.7459 12.8733C20.6467 12.9169 20.5574 12.98 20.483 13.0587C20.3385 13.212 20.2594 13.4155 20.2624 13.6261C20.2655 13.8367 20.3505 14.0379 20.4995 14.1868C20.6484 14.3358 20.8496 14.4208 21.0602 14.4239C21.2708 14.4269 21.4743 14.3478 21.6275 14.2033Z" fill="black"/>
</svg>
