<svg width="34" height="34" viewBox="0 0 34 34" fill="none" xmlns="http://www.w3.org/2000/svg">
<circle cx="17.3138" cy="17.1805" r="16.6863" fill="#D4D4D4"/>
<path fill-rule="evenodd" clip-rule="evenodd" d="M15.8979 15.4672H18.3028V16.6651C18.6492 15.9762 19.5376 15.3571 20.8722 15.3571C23.4306 15.3571 24.038 16.7286 24.038 19.2449V23.9052H21.4479V19.818C21.4479 18.385 21.1014 17.5769 20.2195 17.5769C18.9963 17.5769 18.488 18.4478 18.488 19.8173V23.9052H15.8979V15.4672ZM11.4565 23.7951H14.0466V15.3571H11.4565V23.7951ZM14.4176 12.6058C14.4177 12.8229 14.3747 13.0378 14.291 13.2382C14.2073 13.4385 14.0846 13.6201 13.9301 13.7726C13.6169 14.0839 13.193 14.2581 12.7516 14.257C12.3108 14.2567 11.8879 14.0829 11.5743 13.7733C11.4204 13.6203 11.2981 13.4384 11.2145 13.2381C11.131 13.0377 11.0878 12.8229 11.0874 12.6058C11.0874 12.1674 11.2622 11.7478 11.575 11.4383C11.8883 11.1282 12.3114 10.9544 12.7522 10.9546C13.1938 10.9546 13.6173 11.1288 13.9301 11.4383C14.2422 11.7478 14.4176 12.1674 14.4176 12.6058Z" fill="black"/>
</svg>
