<svg width="1078" height="268" viewBox="0 0 1078 268" fill="none" xmlns="http://www.w3.org/2000/svg">
<g clip-path="url(#clip0_283_1026)">
<path d="M2 2C34.121 42.1515 149.173 122.455 352.413 122.455C606.462 122.455 1072.95 179.397 1088.28 267" stroke="#4F4F4F" stroke-width="3.68915" stroke-dasharray="36.89 36.89"/>
<mask id="mask0_283_1026" style="mask-type:luminance" maskUnits="userSpaceOnUse" x="372" y="83" width="171" height="118">
<path d="M542.426 83.4946H372.725V200.318H542.426V83.4946Z" fill="white"/>
</mask>
<g mask="url(#mask0_283_1026)">
<path fill-rule="evenodd" clip-rule="evenodd" d="M391.65 140.552C397.404 134.585 410.575 112.872 410.575 102.42C410.575 91.9678 402.102 83.4946 391.65 83.4946C381.198 83.4946 372.725 91.9678 372.725 102.42C372.725 112.872 384.541 134.465 391.65 140.552ZM391.65 113.849C398.849 113.849 404.685 108.013 404.685 100.814C404.685 93.615 398.849 87.779 391.65 87.779C384.451 87.779 378.615 93.615 378.615 100.814C378.615 108.013 384.451 113.849 391.65 113.849Z" fill="white" fill-opacity="0.1"/>
<path d="M401.576 100.966C401.576 106.448 397.132 110.893 391.649 110.893C386.167 110.893 381.723 106.448 381.723 100.966C381.723 95.4836 386.167 91.0393 391.649 91.0393C397.132 91.0393 401.576 95.4836 401.576 100.966Z" fill="white" fill-opacity="0.1"/>
</g>
<path d="M381.572 168.33C380.144 168.33 378.845 167.993 377.678 167.32C376.51 166.647 375.59 165.726 374.916 164.559C374.257 163.377 373.927 162.065 373.927 160.623C373.927 159.18 374.257 157.875 374.916 156.707C375.59 155.526 376.51 154.599 377.678 153.926C378.845 153.252 380.144 152.916 381.572 152.916C382.671 152.916 383.674 153.129 384.581 153.555C385.501 153.967 386.298 154.557 386.971 155.327L385.714 156.543C385.151 155.869 384.533 155.375 383.86 155.059C383.2 154.743 382.438 154.585 381.572 154.585C380.501 154.585 379.519 154.839 378.626 155.347C377.733 155.842 377.018 156.549 376.483 157.47C375.961 158.377 375.699 159.428 375.699 160.623C375.699 161.818 375.961 162.876 376.483 163.796C377.018 164.703 377.733 165.41 378.626 165.919C379.519 166.413 380.501 166.661 381.572 166.661C383.358 166.661 384.876 165.926 386.127 164.456L387.404 165.692C386.717 166.503 385.872 167.148 384.87 167.629C383.867 168.096 382.768 168.33 381.572 168.33ZM389.371 153.246H391.123V157.594L391.04 159.036H391.123C391.411 158.5 391.864 158.054 392.483 157.697C393.115 157.339 393.801 157.161 394.543 157.161C395.821 157.161 396.796 157.539 397.469 158.294C398.143 159.036 398.479 160.025 398.479 161.262V168H396.728V161.529C396.728 160.582 396.487 159.881 396.006 159.428C395.526 158.974 394.9 158.748 394.131 158.748C393.582 158.748 393.073 158.912 392.606 159.242C392.153 159.572 391.789 159.998 391.514 160.52C391.253 161.042 391.123 161.584 391.123 162.148V168H389.371V153.246ZM401.003 153.246H402.754V157.594L402.672 159.036H402.754C403.043 158.5 403.496 158.054 404.114 157.697C404.746 157.339 405.433 157.161 406.175 157.161C407.453 157.161 408.428 157.539 409.101 158.294C409.774 159.036 410.111 160.025 410.111 161.262V168H408.359V161.529C408.359 160.582 408.119 159.881 407.638 159.428C407.157 158.974 406.532 158.748 405.763 158.748C405.213 158.748 404.705 158.912 404.238 159.242C403.785 159.572 403.42 159.998 403.146 160.52C402.885 161.042 402.754 161.584 402.754 162.148V168H401.003V153.246ZM413.788 168.124C413.417 168.124 413.101 168 412.84 167.753C412.593 167.492 412.469 167.176 412.469 166.805C412.469 166.448 412.593 166.145 412.84 165.898C413.101 165.637 413.417 165.507 413.788 165.507C414.145 165.507 414.448 165.637 414.695 165.898C414.956 166.145 415.086 166.448 415.086 166.805C415.086 167.176 414.956 167.492 414.695 167.753C414.448 168 414.145 168.124 413.788 168.124ZM422.016 168.33C420.862 168.33 419.804 167.979 418.843 167.279C417.881 166.578 417.222 165.596 416.864 164.332L418.534 163.652C418.767 164.531 419.2 165.252 419.832 165.816C420.464 166.379 421.206 166.661 422.057 166.661C422.909 166.661 423.63 166.434 424.221 165.981C424.812 165.513 425.107 164.882 425.107 164.085C425.107 163.398 424.853 162.835 424.345 162.395C423.85 161.942 423.033 161.523 421.892 161.138L420.965 160.808C419.921 160.437 419.069 159.95 418.41 159.345C417.75 158.741 417.421 157.903 417.421 156.831C417.421 156.13 417.613 155.485 417.998 154.894C418.382 154.29 418.918 153.809 419.605 153.452C420.292 153.094 421.061 152.916 421.913 152.916C422.765 152.916 423.507 153.074 424.139 153.39C424.771 153.706 425.272 154.09 425.643 154.544C426.028 154.997 426.295 155.444 426.447 155.883L424.798 156.584C424.661 156.076 424.345 155.615 423.85 155.203C423.369 154.791 422.73 154.585 421.934 154.585C421.178 154.585 420.532 154.798 419.997 155.224C419.461 155.65 419.193 156.185 419.193 156.831C419.193 157.408 419.42 157.882 419.873 158.253C420.326 158.61 421.013 158.947 421.934 159.263L422.902 159.592C424.152 160.046 425.128 160.616 425.828 161.303C426.529 161.976 426.879 162.896 426.879 164.064C426.879 165.012 426.632 165.809 426.137 166.454C425.657 167.1 425.045 167.574 424.303 167.876C423.562 168.179 422.799 168.33 422.016 168.33ZM432.454 168.33C431.685 168.33 430.998 168.179 430.394 167.876C429.789 167.574 429.322 167.162 428.992 166.64C428.663 166.104 428.498 165.5 428.498 164.827C428.498 163.714 428.917 162.848 429.755 162.23C430.593 161.598 431.651 161.282 432.928 161.282C433.56 161.282 434.144 161.351 434.68 161.488C435.229 161.626 435.648 161.784 435.937 161.962V161.323C435.937 160.54 435.662 159.915 435.113 159.448C434.563 158.967 433.869 158.727 433.031 158.727C432.441 158.727 431.898 158.857 431.403 159.118C430.909 159.366 430.517 159.716 430.229 160.169L428.91 159.18C429.322 158.548 429.885 158.054 430.6 157.697C431.328 157.339 432.132 157.161 433.011 157.161C434.44 157.161 435.559 157.539 436.37 158.294C437.194 159.036 437.606 160.053 437.606 161.344V168H435.937V166.496H435.855C435.552 167.004 435.099 167.437 434.494 167.794C433.89 168.151 433.21 168.33 432.454 168.33ZM432.619 166.784C433.21 166.784 433.759 166.633 434.268 166.331C434.776 166.029 435.181 165.623 435.484 165.115C435.786 164.607 435.937 164.05 435.937 163.446C435.607 163.226 435.202 163.047 434.721 162.91C434.24 162.773 433.732 162.704 433.196 162.704C432.235 162.704 431.506 162.903 431.012 163.302C430.531 163.7 430.291 164.215 430.291 164.847C430.291 165.424 430.51 165.891 430.95 166.248C431.39 166.606 431.946 166.784 432.619 166.784ZM440.043 157.491H441.712V159.036H441.794C442.097 158.5 442.55 158.054 443.154 157.697C443.759 157.339 444.398 157.161 445.071 157.161C445.84 157.161 446.507 157.346 447.07 157.717C447.647 158.088 448.059 158.583 448.306 159.201C448.677 158.583 449.165 158.088 449.769 157.717C450.387 157.346 451.102 157.161 451.912 157.161C453.121 157.161 454.028 157.532 454.632 158.274C455.251 159.002 455.56 159.998 455.56 161.262V168H453.829V161.529C453.829 160.554 453.63 159.847 453.231 159.407C452.833 158.967 452.242 158.748 451.459 158.748C450.937 158.748 450.463 158.899 450.037 159.201C449.611 159.503 449.275 159.908 449.027 160.417C448.794 160.925 448.677 161.475 448.677 162.065V168H446.926V161.55C446.926 160.561 446.726 159.847 446.328 159.407C445.93 158.967 445.346 158.748 444.576 158.748C444.054 158.748 443.58 158.906 443.154 159.221C442.729 159.524 442.392 159.936 442.145 160.458C441.911 160.966 441.794 161.516 441.794 162.106V168H440.043V157.491ZM463.411 168.33C462.614 168.33 461.893 168.151 461.247 167.794C460.615 167.423 460.141 166.977 459.825 166.454H459.743V168H458.074V153.246H459.825V157.594L459.743 159.057H459.825C460.141 158.521 460.615 158.074 461.247 157.717C461.893 157.346 462.614 157.161 463.411 157.161C464.345 157.161 465.197 157.401 465.966 157.882C466.736 158.363 467.34 159.029 467.78 159.881C468.219 160.733 468.439 161.687 468.439 162.745C468.439 163.817 468.219 164.778 467.78 165.63C467.34 166.468 466.736 167.128 465.966 167.608C465.197 168.089 464.345 168.33 463.411 168.33ZM463.205 166.743C463.809 166.743 464.38 166.578 464.915 166.248C465.451 165.919 465.877 165.452 466.193 164.847C466.523 164.229 466.687 163.528 466.687 162.745C466.687 161.962 466.523 161.268 466.193 160.664C465.877 160.046 465.451 159.572 464.915 159.242C464.38 158.912 463.809 158.748 463.205 158.748C462.6 158.748 462.03 158.912 461.495 159.242C460.959 159.572 460.533 160.039 460.217 160.643C459.901 161.248 459.743 161.948 459.743 162.745C459.743 163.542 459.901 164.243 460.217 164.847C460.533 165.452 460.959 165.919 461.495 166.248C462.03 166.578 462.6 166.743 463.205 166.743ZM470.37 153.246H472.121V157.594L472.039 159.036H472.121C472.41 158.5 472.863 158.054 473.481 157.697C474.113 157.339 474.8 157.161 475.542 157.161C476.819 157.161 477.795 157.539 478.468 158.294C479.141 159.036 479.478 160.025 479.478 161.262V168H477.726V161.529C477.726 160.582 477.486 159.881 477.005 159.428C476.524 158.974 475.899 158.748 475.13 158.748C474.58 158.748 474.072 158.912 473.605 159.242C473.151 159.572 472.787 159.998 472.513 160.52C472.252 161.042 472.121 161.584 472.121 162.148V168H470.37V153.246ZM485.259 168.33C484.49 168.33 483.803 168.179 483.199 167.876C482.594 167.574 482.127 167.162 481.797 166.64C481.468 166.104 481.303 165.5 481.303 164.827C481.303 163.714 481.722 162.848 482.56 162.23C483.398 161.598 484.456 161.282 485.733 161.282C486.365 161.282 486.949 161.351 487.485 161.488C488.034 161.626 488.453 161.784 488.742 161.962V161.323C488.742 160.54 488.467 159.915 487.918 159.448C487.368 158.967 486.674 158.727 485.836 158.727C485.246 158.727 484.703 158.857 484.208 159.118C483.714 159.366 483.322 159.716 483.034 160.169L481.715 159.18C482.127 158.548 482.69 158.054 483.405 157.697C484.133 157.339 484.937 157.161 485.816 157.161C487.245 157.161 488.364 157.539 489.175 158.294C489.999 159.036 490.411 160.053 490.411 161.344V168H488.742V166.496H488.66C488.357 167.004 487.904 167.437 487.299 167.794C486.695 168.151 486.015 168.33 485.259 168.33ZM485.424 166.784C486.015 166.784 486.564 166.633 487.073 166.331C487.581 166.029 487.986 165.623 488.289 165.115C488.591 164.607 488.742 164.05 488.742 163.446C488.412 163.226 488.007 163.047 487.526 162.91C487.045 162.773 486.537 162.704 486.001 162.704C485.04 162.704 484.311 162.903 483.817 163.302C483.336 163.7 483.096 164.215 483.096 164.847C483.096 165.424 483.315 165.891 483.755 166.248C484.195 166.606 484.751 166.784 485.424 166.784ZM493.878 155.553C493.535 155.553 493.239 155.43 492.992 155.183C492.745 154.935 492.621 154.64 492.621 154.296C492.621 153.953 492.745 153.665 492.992 153.431C493.239 153.184 493.535 153.06 493.878 153.06C494.222 153.06 494.517 153.184 494.764 153.431C495.012 153.665 495.135 153.953 495.135 154.296C495.135 154.64 495.012 154.935 494.764 155.183C494.531 155.43 494.235 155.553 493.878 155.553ZM491.859 172.657C491.529 172.657 491.22 172.609 490.931 172.513V170.844C491.041 170.912 491.179 170.967 491.344 171.009C491.508 171.05 491.66 171.07 491.797 171.07C492.223 171.07 492.532 170.933 492.724 170.658C492.917 170.397 493.013 170.006 493.013 169.484V157.491H494.744V169.484C494.744 170.542 494.49 171.331 493.981 171.853C493.473 172.389 492.765 172.657 491.859 172.657ZM498.527 155.553C498.183 155.553 497.888 155.43 497.641 155.183C497.393 154.935 497.27 154.64 497.27 154.296C497.27 153.953 497.393 153.665 497.641 153.431C497.888 153.184 498.183 153.06 498.527 153.06C498.87 153.06 499.166 153.184 499.413 153.431C499.66 153.665 499.784 153.953 499.784 154.296C499.784 154.64 499.66 154.935 499.413 155.183C499.179 155.43 498.884 155.553 498.527 155.553ZM497.661 157.491H499.392V168H497.661V157.491ZM502.145 157.491H503.814V159.036H503.897C504.185 158.514 504.645 158.074 505.277 157.717C505.909 157.346 506.582 157.161 507.297 157.161C508.561 157.161 509.522 157.532 510.182 158.274C510.855 159.002 511.191 159.998 511.191 161.262V168H509.44V161.529C509.44 160.554 509.206 159.847 508.739 159.407C508.272 158.967 507.633 158.748 506.823 158.748C506.26 158.748 505.751 158.906 505.298 159.221C504.858 159.537 504.515 159.956 504.268 160.479C504.02 160.987 503.897 161.523 503.897 162.086V168H502.145V157.491ZM516.954 168.33C516.185 168.33 515.498 168.179 514.894 167.876C514.289 167.574 513.822 167.162 513.492 166.64C513.163 166.104 512.998 165.5 512.998 164.827C512.998 163.714 513.417 162.848 514.255 162.23C515.093 161.598 516.151 161.282 517.428 161.282C518.06 161.282 518.644 161.351 519.18 161.488C519.729 161.626 520.149 161.784 520.437 161.962V161.323C520.437 160.54 520.162 159.915 519.613 159.448C519.063 158.967 518.369 158.727 517.531 158.727C516.941 158.727 516.398 158.857 515.903 159.118C515.409 159.366 515.017 159.716 514.729 160.169L513.41 159.18C513.822 158.548 514.385 158.054 515.1 157.697C515.828 157.339 516.632 157.161 517.511 157.161C518.94 157.161 520.059 157.539 520.87 158.294C521.694 159.036 522.106 160.053 522.106 161.344V168H520.437V166.496H520.355C520.052 167.004 519.599 167.437 518.995 167.794C518.39 168.151 517.71 168.33 516.954 168.33ZM517.119 166.784C517.71 166.784 518.26 166.633 518.768 166.331C519.276 166.029 519.681 165.623 519.984 165.115C520.286 164.607 520.437 164.05 520.437 163.446C520.107 163.226 519.702 163.047 519.221 162.91C518.74 162.773 518.232 162.704 517.696 162.704C516.735 162.704 516.007 162.903 515.512 163.302C515.031 163.7 514.791 164.215 514.791 164.847C514.791 165.424 515.011 165.891 515.45 166.248C515.89 166.606 516.446 166.784 517.119 166.784ZM529.058 172.781C527.822 172.781 526.798 172.492 525.988 171.915C525.191 171.338 524.655 170.645 524.38 169.834L525.967 169.154C526.201 169.758 526.585 170.246 527.121 170.617C527.671 171.002 528.316 171.194 529.058 171.194C530.144 171.194 530.982 170.878 531.572 170.246C532.177 169.614 532.479 168.721 532.479 167.567V166.393H532.397C532.053 166.928 531.565 167.368 530.933 167.712C530.315 168.041 529.608 168.206 528.811 168.206C527.904 168.206 527.073 167.973 526.318 167.505C525.576 167.038 524.985 166.386 524.545 165.548C524.106 164.71 523.886 163.755 523.886 162.683C523.886 161.626 524.106 160.678 524.545 159.84C524.985 158.988 525.576 158.329 526.318 157.861C527.073 157.394 527.904 157.161 528.811 157.161C529.608 157.161 530.315 157.333 530.933 157.676C531.565 158.006 532.053 158.445 532.397 158.995H532.479V157.491H534.148V167.588C534.148 169.278 533.681 170.562 532.747 171.441C531.813 172.334 530.583 172.781 529.058 172.781ZM529.058 166.619C529.69 166.619 530.26 166.461 530.769 166.145C531.291 165.829 531.703 165.376 532.005 164.785C532.321 164.195 532.479 163.494 532.479 162.683C532.479 161.859 532.321 161.152 532.005 160.561C531.703 159.97 531.291 159.524 530.769 159.221C530.26 158.906 529.69 158.748 529.058 158.748C528.426 158.748 527.849 158.906 527.327 159.221C526.805 159.537 526.386 159.991 526.07 160.582C525.768 161.172 525.617 161.873 525.617 162.683C525.617 163.494 525.768 164.201 526.07 164.806C526.386 165.397 526.805 165.85 527.327 166.166C527.849 166.468 528.426 166.619 529.058 166.619ZM539.996 168.33C539.227 168.33 538.54 168.179 537.936 167.876C537.331 167.574 536.864 167.162 536.534 166.64C536.205 166.104 536.04 165.5 536.04 164.827C536.04 163.714 536.459 162.848 537.297 162.23C538.135 161.598 539.193 161.282 540.47 161.282C541.102 161.282 541.686 161.351 542.222 161.488C542.771 161.626 543.19 161.784 543.479 161.962V161.323C543.479 160.54 543.204 159.915 542.655 159.448C542.105 158.967 541.411 158.727 540.573 158.727C539.983 158.727 539.44 158.857 538.945 159.118C538.451 159.366 538.059 159.716 537.771 160.169L536.452 159.18C536.864 158.548 537.427 158.054 538.142 157.697C538.87 157.339 539.673 157.161 540.553 157.161C541.981 157.161 543.101 157.539 543.912 158.294C544.736 159.036 545.148 160.053 545.148 161.344V168H543.479V166.496H543.396C543.094 167.004 542.641 167.437 542.036 167.794C541.432 168.151 540.752 168.33 539.996 168.33ZM540.161 166.784C540.752 166.784 541.301 166.633 541.81 166.331C542.318 166.029 542.723 165.623 543.025 165.115C543.328 164.607 543.479 164.05 543.479 163.446C543.149 163.226 542.744 163.047 542.263 162.91C541.782 162.773 541.274 162.704 540.738 162.704C539.776 162.704 539.048 162.903 538.554 163.302C538.073 163.7 537.833 164.215 537.833 164.847C537.833 165.424 538.052 165.891 538.492 166.248C538.932 166.606 539.488 166.784 540.161 166.784ZM547.585 157.491H549.254V159.18H549.336C549.542 158.603 549.941 158.129 550.532 157.758C551.122 157.374 551.74 157.181 552.386 157.181C552.867 157.181 553.279 157.25 553.623 157.387V159.283C553.183 159.064 552.688 158.954 552.139 158.954C551.631 158.954 551.163 159.098 550.738 159.386C550.312 159.675 549.968 160.066 549.707 160.561C549.46 161.042 549.336 161.564 549.336 162.127V168H547.585V157.491ZM377.966 196.803C376.963 195.649 376.098 194.254 375.37 192.619C374.655 190.971 374.298 189.219 374.298 187.365C374.298 185.51 374.655 183.765 375.37 182.13C376.098 180.482 376.963 179.081 377.966 177.927L379.244 178.833C378.31 179.946 377.54 181.258 376.936 182.769C376.331 184.267 376.029 185.798 376.029 187.365C376.029 188.931 376.331 190.469 376.936 191.981C377.54 193.478 378.31 194.783 379.244 195.896L377.966 196.803ZM385.555 179.246H387.533L393.138 194H391.221L389.738 189.94H383.37L381.887 194H379.97L385.555 179.246ZM389.14 188.292L387.182 182.975L386.585 181.389H386.502L385.925 182.975L383.968 188.292H389.14ZM398.033 194.33C396.769 194.33 395.801 193.959 395.128 193.217C394.468 192.475 394.138 191.438 394.138 190.105V183.491H395.89V189.837C395.89 190.84 396.117 191.575 396.57 192.042C397.023 192.509 397.635 192.743 398.404 192.743C398.995 192.743 399.517 192.585 399.97 192.269C400.437 191.953 400.794 191.541 401.042 191.033C401.303 190.524 401.433 189.989 401.433 189.425V183.491H403.185V194H401.516V192.475H401.433C401.145 192.997 400.685 193.437 400.053 193.794C399.421 194.151 398.747 194.33 398.033 194.33ZM405.772 183.491H407.441V185.18H407.524C407.73 184.603 408.128 184.129 408.719 183.758C409.309 183.374 409.928 183.181 410.573 183.181C411.054 183.181 411.466 183.25 411.81 183.387V185.283C411.37 185.064 410.876 184.954 410.326 184.954C409.818 184.954 409.351 185.098 408.925 185.386C408.499 185.675 408.155 186.066 407.894 186.561C407.647 187.042 407.524 187.564 407.524 188.127V194H405.772V183.491ZM416.456 194.33C415.687 194.33 415 194.179 414.395 193.876C413.791 193.574 413.324 193.162 412.994 192.64C412.664 192.104 412.499 191.5 412.499 190.827C412.499 189.714 412.918 188.848 413.756 188.23C414.594 187.598 415.652 187.282 416.93 187.282C417.562 187.282 418.146 187.351 418.681 187.488C419.231 187.626 419.65 187.784 419.938 187.962V187.323C419.938 186.54 419.664 185.915 419.114 185.448C418.565 184.967 417.871 184.727 417.033 184.727C416.442 184.727 415.9 184.857 415.405 185.118C414.91 185.366 414.519 185.716 414.23 186.169L412.912 185.18C413.324 184.548 413.887 184.054 414.601 183.697C415.329 183.339 416.133 183.161 417.012 183.161C418.441 183.161 419.561 183.539 420.371 184.294C421.195 185.036 421.608 186.053 421.608 187.344V194H419.938V192.496H419.856C419.554 193.004 419.1 193.437 418.496 193.794C417.892 194.151 417.212 194.33 416.456 194.33ZM416.621 192.784C417.212 192.784 417.761 192.633 418.269 192.331C418.778 192.029 419.183 191.623 419.485 191.115C419.787 190.607 419.938 190.05 419.938 189.446C419.609 189.226 419.204 189.047 418.723 188.91C418.242 188.773 417.734 188.704 417.198 188.704C416.236 188.704 415.508 188.903 415.013 189.302C414.533 189.7 414.292 190.215 414.292 190.847C414.292 191.424 414.512 191.891 414.952 192.248C415.391 192.606 415.948 192.784 416.621 192.784ZM424.044 183.491H425.714V185.036H425.796C426.084 184.514 426.545 184.074 427.177 183.717C427.809 183.346 428.482 183.161 429.196 183.161C430.46 183.161 431.422 183.532 432.081 184.274C432.754 185.002 433.091 185.998 433.091 187.262V194H431.339V187.529C431.339 186.554 431.106 185.847 430.639 185.407C430.171 184.967 429.533 184.748 428.722 184.748C428.159 184.748 427.651 184.906 427.197 185.221C426.758 185.537 426.414 185.956 426.167 186.479C425.92 186.987 425.796 187.523 425.796 188.086V194H424.044V183.491ZM438.854 194.33C438.084 194.33 437.398 194.179 436.793 193.876C436.189 193.574 435.722 193.162 435.392 192.64C435.062 192.104 434.897 191.5 434.897 190.827C434.897 189.714 435.316 188.848 436.154 188.23C436.992 187.598 438.05 187.282 439.328 187.282C439.96 187.282 440.544 187.351 441.079 187.488C441.629 187.626 442.048 187.784 442.336 187.962V187.323C442.336 186.54 442.062 185.915 441.512 185.448C440.963 184.967 440.269 184.727 439.431 184.727C438.84 184.727 438.297 184.857 437.803 185.118C437.308 185.366 436.917 185.716 436.628 186.169L435.309 185.18C435.722 184.548 436.285 184.054 436.999 183.697C437.727 183.339 438.531 183.161 439.41 183.161C440.839 183.161 441.959 183.539 442.769 184.294C443.593 185.036 444.005 186.053 444.005 187.344V194H442.336V192.496H442.254C441.952 193.004 441.498 193.437 440.894 193.794C440.289 194.151 439.609 194.33 438.854 194.33ZM439.019 192.784C439.609 192.784 440.159 192.633 440.667 192.331C441.175 192.029 441.581 191.623 441.883 191.115C442.185 190.607 442.336 190.05 442.336 189.446C442.007 189.226 441.601 189.047 441.121 188.91C440.64 188.773 440.131 188.704 439.596 188.704C438.634 188.704 437.906 188.903 437.411 189.302C436.93 189.7 436.69 190.215 436.69 190.847C436.69 191.424 436.91 191.891 437.349 192.248C437.789 192.606 438.345 192.784 439.019 192.784ZM450.958 198.781C449.721 198.781 448.698 198.492 447.887 197.915C447.09 197.338 446.555 196.645 446.28 195.834L447.867 195.154C448.1 195.758 448.485 196.246 449.021 196.617C449.57 197.002 450.216 197.194 450.958 197.194C452.043 197.194 452.881 196.878 453.472 196.246C454.076 195.614 454.378 194.721 454.378 193.567V192.393H454.296C453.952 192.928 453.465 193.368 452.833 193.712C452.215 194.041 451.507 194.206 450.71 194.206C449.804 194.206 448.972 193.973 448.217 193.505C447.475 193.038 446.884 192.386 446.445 191.548C446.005 190.71 445.785 189.755 445.785 188.683C445.785 187.626 446.005 186.678 446.445 185.84C446.884 184.988 447.475 184.329 448.217 183.861C448.972 183.394 449.804 183.161 450.71 183.161C451.507 183.161 452.215 183.333 452.833 183.676C453.465 184.006 453.952 184.445 454.296 184.995H454.378V183.491H456.047V193.588C456.047 195.278 455.58 196.562 454.646 197.441C453.712 198.334 452.482 198.781 450.958 198.781ZM450.958 192.619C451.589 192.619 452.16 192.461 452.668 192.145C453.19 191.829 453.602 191.376 453.904 190.785C454.22 190.195 454.378 189.494 454.378 188.683C454.378 187.859 454.22 187.152 453.904 186.561C453.602 185.97 453.19 185.524 452.668 185.221C452.16 184.906 451.589 184.748 450.958 184.748C450.326 184.748 449.749 184.906 449.227 185.221C448.705 185.537 448.286 185.991 447.97 186.582C447.667 187.172 447.516 187.873 447.516 188.683C447.516 189.494 447.667 190.201 447.97 190.806C448.286 191.397 448.705 191.85 449.227 192.166C449.749 192.468 450.326 192.619 450.958 192.619ZM461.896 194.33C461.126 194.33 460.439 194.179 459.835 193.876C459.23 193.574 458.763 193.162 458.434 192.64C458.104 192.104 457.939 191.5 457.939 190.827C457.939 189.714 458.358 188.848 459.196 188.23C460.034 187.598 461.092 187.282 462.37 187.282C463.001 187.282 463.585 187.351 464.121 187.488C464.671 187.626 465.09 187.784 465.378 187.962V187.323C465.378 186.54 465.103 185.915 464.554 185.448C464.004 184.967 463.311 184.727 462.473 184.727C461.882 184.727 461.339 184.857 460.845 185.118C460.35 185.366 459.959 185.716 459.67 186.169L458.351 185.18C458.763 184.548 459.327 184.054 460.041 183.697C460.769 183.339 461.573 183.161 462.452 183.161C463.881 183.161 465 183.539 465.811 184.294C466.635 185.036 467.047 186.053 467.047 187.344V194H465.378V192.496H465.296C464.993 193.004 464.54 193.437 463.936 193.794C463.331 194.151 462.651 194.33 461.896 194.33ZM462.06 192.784C462.651 192.784 463.201 192.633 463.709 192.331C464.217 192.029 464.623 191.623 464.925 191.115C465.227 190.607 465.378 190.05 465.378 189.446C465.048 189.226 464.643 189.047 464.162 188.91C463.682 188.773 463.173 188.704 462.637 188.704C461.676 188.704 460.948 188.903 460.453 189.302C459.972 189.7 459.732 190.215 459.732 190.847C459.732 191.424 459.952 191.891 460.391 192.248C460.831 192.606 461.387 192.784 462.06 192.784ZM474.821 194.33C474.024 194.33 473.303 194.151 472.658 193.794C472.026 193.423 471.552 192.977 471.236 192.454H471.153V194H469.484V179.246H471.236V183.594L471.153 185.057H471.236C471.552 184.521 472.026 184.074 472.658 183.717C473.303 183.346 474.024 183.161 474.821 183.161C475.755 183.161 476.607 183.401 477.376 183.882C478.146 184.363 478.75 185.029 479.19 185.881C479.629 186.733 479.849 187.687 479.849 188.745C479.849 189.817 479.629 190.778 479.19 191.63C478.75 192.468 478.146 193.128 477.376 193.608C476.607 194.089 475.755 194.33 474.821 194.33ZM474.615 192.743C475.22 192.743 475.79 192.578 476.326 192.248C476.861 191.919 477.287 191.452 477.603 190.847C477.933 190.229 478.098 189.528 478.098 188.745C478.098 187.962 477.933 187.268 477.603 186.664C477.287 186.046 476.861 185.572 476.326 185.242C475.79 184.912 475.22 184.748 474.615 184.748C474.011 184.748 473.441 184.912 472.905 185.242C472.369 185.572 471.943 186.039 471.627 186.643C471.311 187.248 471.153 187.948 471.153 188.745C471.153 189.542 471.311 190.243 471.627 190.847C471.943 191.452 472.369 191.919 472.905 192.248C473.441 192.578 474.011 192.743 474.615 192.743ZM485.239 194.33C484.47 194.33 483.783 194.179 483.179 193.876C482.574 193.574 482.107 193.162 481.777 192.64C481.448 192.104 481.283 191.5 481.283 190.827C481.283 189.714 481.702 188.848 482.54 188.23C483.378 187.598 484.436 187.282 485.713 187.282C486.345 187.282 486.929 187.351 487.465 187.488C488.014 187.626 488.433 187.784 488.722 187.962V187.323C488.722 186.54 488.447 185.915 487.898 185.448C487.348 184.967 486.654 184.727 485.816 184.727C485.226 184.727 484.683 184.857 484.188 185.118C483.694 185.366 483.302 185.716 483.014 186.169L481.695 185.18C482.107 184.548 482.67 184.054 483.385 183.697C484.113 183.339 484.916 183.161 485.796 183.161C487.224 183.161 488.344 183.539 489.155 184.294C489.979 185.036 490.391 186.053 490.391 187.344V194H488.722V192.496H488.639C488.337 193.004 487.884 193.437 487.279 193.794C486.675 194.151 485.995 194.33 485.239 194.33ZM485.404 192.784C485.995 192.784 486.544 192.633 487.053 192.331C487.561 192.029 487.966 191.623 488.268 191.115C488.571 190.607 488.722 190.05 488.722 189.446C488.392 189.226 487.987 189.047 487.506 188.91C487.025 188.773 486.517 188.704 485.981 188.704C485.019 188.704 484.291 188.903 483.797 189.302C483.316 189.7 483.076 190.215 483.076 190.847C483.076 191.424 483.295 191.891 483.735 192.248C484.175 192.606 484.731 192.784 485.404 192.784ZM497.178 194.33C496.244 194.33 495.392 194.089 494.623 193.608C493.867 193.128 493.27 192.468 492.83 191.63C492.391 190.778 492.171 189.817 492.171 188.745C492.171 187.687 492.391 186.733 492.83 185.881C493.27 185.029 493.867 184.363 494.623 183.882C495.392 183.401 496.244 183.161 497.178 183.161C497.989 183.161 498.71 183.346 499.342 183.717C499.974 184.074 500.455 184.521 500.784 185.057H500.867L500.784 183.594V179.246H502.536V194H500.867V192.454H500.784C500.455 192.977 499.974 193.423 499.342 193.794C498.71 194.151 497.989 194.33 497.178 194.33ZM497.384 192.743C498.002 192.743 498.573 192.578 499.095 192.248C499.63 191.919 500.056 191.452 500.372 190.847C500.702 190.243 500.867 189.542 500.867 188.745C500.867 187.948 500.702 187.248 500.372 186.643C500.056 186.039 499.63 185.572 499.095 185.242C498.573 184.912 498.002 184.748 497.384 184.748C496.78 184.748 496.21 184.912 495.674 185.242C495.138 185.572 494.705 186.046 494.376 186.664C494.06 187.268 493.902 187.962 493.902 188.745C493.902 189.528 494.06 190.229 494.376 190.847C494.705 191.452 495.138 191.919 495.674 192.248C496.21 192.578 496.78 192.743 497.384 192.743ZM504.237 195.896C505.171 194.783 505.941 193.478 506.545 191.981C507.15 190.469 507.452 188.931 507.452 187.365C507.452 185.798 507.15 184.267 506.545 182.769C505.941 181.258 505.171 179.946 504.237 178.833L505.515 177.927C506.518 179.081 507.376 180.482 508.091 182.13C508.819 183.765 509.183 185.51 509.183 187.365C509.183 189.219 508.819 190.971 508.091 192.619C507.376 194.254 506.518 195.649 505.515 196.803L504.237 195.896Z" fill="#404245"/>
</g>
<defs>
<clipPath id="clip0_283_1026">
<rect width="1078" height="268" fill="white"/>
</clipPath>
</defs>
</svg>
