<svg width="1078" height="268" viewBox="0 0 1078 268" fill="none" xmlns="http://www.w3.org/2000/svg">
<path d="M2 2C34.121 42.1515 149.173 122.455 352.413 122.455C606.462 122.455 1072.95 179.397 1088.28 267" stroke="#4F4F4F" stroke-width="3.68915" stroke-dasharray="36.89 36.89"/>
<g clip-path="url(#clip0_849_320)">
<path d="M376.759 152.802H383.301L399.041 178.429H399.336L399.041 171.641V152.802H404.501V188.021H398.746L382.219 161.065H381.924L382.219 167.853V188.021H376.759V152.802ZM418.81 188.808C417.006 188.808 415.399 188.463 413.989 187.775C412.579 187.053 411.481 186.053 410.694 184.774C409.907 183.462 409.513 181.987 409.513 180.347C409.513 177.757 410.48 175.707 412.415 174.199C414.383 172.69 416.859 171.936 419.843 171.936C421.318 171.936 422.646 172.083 423.827 172.379C425.007 172.641 425.942 172.936 426.631 173.264V171.985C426.631 170.444 426.057 169.198 424.909 168.247C423.761 167.263 422.286 166.771 420.482 166.771C419.203 166.771 417.99 167.05 416.842 167.607C415.727 168.165 414.825 168.935 414.137 169.919L410.349 167.017C411.464 165.476 412.907 164.279 414.678 163.426C416.449 162.574 418.416 162.147 420.58 162.147C424.22 162.147 427.024 163.049 428.992 164.853C430.959 166.624 431.943 169.132 431.943 172.379V188.021H426.631V185.02H426.385C425.663 186.102 424.647 187.004 423.335 187.725C422.023 188.447 420.515 188.808 418.81 188.808ZM419.744 184.331C421.056 184.331 422.237 184.02 423.286 183.397C424.335 182.774 425.155 181.938 425.745 180.888C426.336 179.839 426.631 178.708 426.631 177.494C425.876 177.068 424.991 176.724 423.974 176.461C422.991 176.199 421.958 176.068 420.876 176.068C418.843 176.068 417.35 176.478 416.399 177.297C415.448 178.084 414.973 179.117 414.973 180.396C414.973 181.544 415.416 182.495 416.301 183.249C417.186 183.971 418.334 184.331 419.744 184.331ZM448.913 199.432C445.83 199.432 443.272 198.727 441.239 197.317C439.239 195.907 437.894 194.235 437.206 192.3L442.272 190.185C442.797 191.497 443.633 192.546 444.781 193.333C445.961 194.153 447.339 194.563 448.913 194.563C451.208 194.563 452.995 193.874 454.274 192.497C455.586 191.152 456.242 189.25 456.242 186.791V184.479H455.947C455.127 185.66 454.028 186.594 452.651 187.283C451.307 187.939 449.749 188.267 447.978 188.267C445.879 188.267 443.928 187.725 442.125 186.643C440.321 185.561 438.878 184.036 437.796 182.069C436.747 180.068 436.222 177.789 436.222 175.232C436.222 172.674 436.747 170.411 437.796 168.444C438.878 166.443 440.321 164.902 442.125 163.82C443.928 162.705 445.879 162.147 447.978 162.147C449.716 162.147 451.274 162.492 452.651 163.18C454.028 163.869 455.127 164.804 455.947 165.984H456.242V162.934H461.407V186.643C461.407 189.365 460.882 191.677 459.833 193.579C458.783 195.514 457.308 196.973 455.406 197.957C453.536 198.94 451.372 199.432 448.913 199.432ZM448.962 183.348C450.274 183.348 451.487 183.036 452.602 182.413C453.717 181.757 454.602 180.823 455.258 179.609C455.914 178.363 456.242 176.904 456.242 175.232C456.242 172.674 455.537 170.69 454.127 169.28C452.749 167.837 451.028 167.115 448.962 167.115C447.617 167.115 446.388 167.443 445.273 168.099C444.158 168.722 443.272 169.64 442.617 170.854C441.961 172.067 441.633 173.526 441.633 175.232C441.633 176.937 441.961 178.396 442.617 179.609C443.272 180.823 444.158 181.757 445.273 182.413C446.388 183.036 447.617 183.348 448.962 183.348ZM467.569 162.934H472.734V166.23H472.98C473.701 165.082 474.767 164.115 476.177 163.328C477.587 162.541 479.178 162.147 480.948 162.147C483.211 162.147 485.261 162.721 487.097 163.869C488.933 165.017 490.376 166.607 491.426 168.64C492.508 170.641 493.049 172.92 493.049 175.477C493.049 178.035 492.508 180.331 491.426 182.364C490.376 184.364 488.933 185.938 487.097 187.086C485.261 188.234 483.211 188.808 480.948 188.808C479.178 188.808 477.587 188.414 476.177 187.627C474.767 186.84 473.701 185.889 472.98 184.774H472.734L472.98 188.267V198.645H467.569V162.934ZM480.161 183.84C481.473 183.84 482.703 183.495 483.851 182.807C484.998 182.118 485.917 181.134 486.605 179.855C487.294 178.576 487.638 177.117 487.638 175.477C487.638 173.838 487.294 172.395 486.605 171.149C485.917 169.87 484.998 168.886 483.851 168.198C482.703 167.509 481.473 167.165 480.161 167.165C478.85 167.165 477.62 167.509 476.472 168.198C475.357 168.886 474.456 169.87 473.767 171.149C473.078 172.395 472.734 173.838 472.734 175.477C472.734 177.117 473.078 178.576 473.767 179.855C474.456 181.134 475.357 182.118 476.472 182.807C477.62 183.495 478.85 183.84 480.161 183.84ZM506.89 188.808C503.84 188.808 501.511 187.906 499.905 186.102C498.331 184.266 497.544 181.724 497.544 178.478V162.934H502.955V177.74C502.955 179.773 503.429 181.298 504.381 182.315C505.365 183.331 506.644 183.84 508.218 183.84C509.497 183.84 510.628 183.512 511.612 182.856C512.596 182.167 513.35 181.265 513.875 180.15C514.398 179.035 514.662 177.839 514.662 176.56V162.934H520.072V188.021H514.957V184.774H514.662C513.973 185.955 512.907 186.922 511.464 187.676C510.021 188.43 508.496 188.808 506.89 188.808ZM526.37 162.934H531.535V166.624H531.781C532.338 165.345 533.305 164.295 534.683 163.475C536.06 162.623 537.518 162.197 539.06 162.197C540.273 162.197 541.29 162.36 542.11 162.688V168.296C540.666 167.771 539.372 167.509 538.224 167.509C536.977 167.509 535.863 167.837 534.879 168.493C533.928 169.149 533.174 170.034 532.617 171.149C532.058 172.231 531.781 173.428 531.781 174.74V188.021H526.37V162.934Z" fill="#404245"/>
<path fill-rule="evenodd" clip-rule="evenodd" d="M391.65 140.552C397.404 134.585 410.575 112.872 410.575 102.42C410.575 91.9678 402.102 83.4946 391.65 83.4946C381.198 83.4946 372.725 91.9678 372.725 102.42C372.725 112.872 384.541 134.465 391.65 140.552ZM391.65 113.849C398.849 113.849 404.685 108.013 404.685 100.814C404.685 93.615 398.849 87.779 391.65 87.779C384.451 87.779 378.615 93.615 378.615 100.814C378.615 108.013 384.451 113.849 391.65 113.849Z" fill="white" fill-opacity="0.1"/>
<path d="M401.576 100.966C401.576 106.448 397.132 110.893 391.649 110.893C386.167 110.893 381.723 106.448 381.723 100.966C381.723 95.4836 386.167 91.0393 391.649 91.0393C397.132 91.0393 401.576 95.4836 401.576 100.966Z" fill="white" fill-opacity="0.1"/>
</g>
<defs>
<clipPath id="clip0_849_320">
<rect width="169.701" height="116.823" fill="white" transform="translate(372.725 83.4946)"/>
</clipPath>
</defs>
</svg>
