<svg width="280" height="81" viewBox="0 0 280 81" fill="none" xmlns="http://www.w3.org/2000/svg">
<path d="M94.9837 5.47693H97.5117L101.006 19.6269L101.33 20.9452H101.438L101.84 19.6269L106.143 5.47693H108.511L112.625 19.6269L113.027 20.9452H113.135L116.928 5.47811H119.456L114.265 24.7392H111.899L107.811 10.8046L107.381 9.29814H107.273L106.816 10.8046L102.565 24.7392H100.199L94.9825 5.47811L94.9837 5.47693Z" fill="#666666"/>
<path d="M122.766 24.1996C121.689 23.5534 120.85 22.6754 120.251 21.5641C119.648 20.4517 119.349 19.2234 119.349 17.879C119.349 16.5347 119.648 15.3039 120.251 14.1927C120.85 13.0803 121.688 12.2022 122.766 11.5573C123.84 10.9111 125.05 10.5892 126.396 10.5892C127.742 10.5892 128.95 10.9111 130.027 11.5573C131.101 12.2034 131.939 13.0815 132.542 14.1927C133.141 15.3051 133.441 16.5335 133.441 17.879C133.441 19.2245 133.141 20.4517 132.542 21.5641C131.939 22.6765 131.102 23.5546 130.027 24.1996C128.95 24.8457 127.74 25.17 126.396 25.17C125.052 25.17 123.84 24.8457 122.766 24.1996ZM128.749 22.4659C129.475 22.0434 130.057 21.4387 130.497 20.6482C130.935 19.86 131.156 18.9358 131.156 17.879C131.156 16.8222 130.935 15.8956 130.497 15.1075C130.057 14.3193 129.475 13.7134 128.749 13.2898C128.023 12.8697 127.238 12.659 126.396 12.659C125.554 12.659 124.764 12.8697 124.028 13.2898C123.292 13.7122 122.706 14.3193 122.269 15.1075C121.829 15.8956 121.61 16.8199 121.61 17.879C121.61 18.9382 121.829 19.86 122.269 20.6482C122.706 21.4387 123.293 22.0422 124.028 22.4659C124.764 22.886 125.553 23.0966 126.396 23.0966C127.24 23.0966 128.023 22.886 128.749 22.4659Z" fill="#666666"/>
<path d="M135.835 11.0176H138.013V13.0365H138.123C138.517 12.336 139.108 11.7537 139.897 11.2875C140.685 10.8212 141.519 10.5892 142.397 10.5892C143.401 10.5892 144.274 10.8307 145.018 11.3135C145.762 11.7975 146.296 12.4437 146.62 13.2507C147.104 12.4425 147.745 11.7975 148.541 11.3135C149.34 10.8295 150.268 10.5892 151.325 10.5892C152.903 10.5892 154.09 11.0685 154.888 12.0271C155.686 12.9856 156.085 14.2909 156.085 15.9418V24.738H153.827V16.2921C153.827 15.0175 153.566 14.0945 153.046 13.5205C152.528 12.9466 151.756 12.6602 150.734 12.6602C150.052 12.6602 149.434 12.8578 148.878 13.2519C148.322 13.646 147.887 14.1761 147.573 14.8389C147.259 15.5027 147.103 16.2199 147.103 16.9915V24.7392H144.816V16.3193C144.816 15.027 144.556 14.0945 144.036 13.5217C143.516 12.9478 142.754 12.6614 141.752 12.6614C141.07 12.6614 140.45 12.8626 139.896 13.2661C139.34 13.6685 138.905 14.2081 138.591 14.8791C138.277 15.5536 138.12 16.2755 138.12 17.0471V24.7404H135.834V11.02L135.835 11.0176Z" fill="#666666"/>
<path d="M161.948 24.228C160.908 23.5996 160.096 22.7345 159.514 21.6316C158.93 20.5286 158.639 19.2873 158.639 17.905C158.639 16.5228 158.912 15.3584 159.46 14.2472C160.008 13.1348 160.781 12.246 161.787 11.5833C162.791 10.9194 163.955 10.5892 165.284 10.5892C166.612 10.5892 167.792 10.8886 168.778 11.4886C169.764 12.091 170.522 12.9206 171.049 13.9773C171.579 15.0353 171.844 16.2459 171.844 17.6092C171.844 17.879 171.816 18.111 171.764 18.3074H160.927C160.979 19.3476 161.231 20.2269 161.679 20.9429C162.127 21.6612 162.696 22.1996 163.386 22.5582C164.076 22.9168 164.797 23.0943 165.551 23.0943C167.309 23.0943 168.663 22.2706 169.613 20.6198L171.55 21.5618C170.957 22.6742 170.156 23.5523 169.142 24.1972C168.129 24.8422 166.905 25.1676 165.473 25.1676C164.162 25.1676 162.989 24.8528 161.949 24.2256L161.948 24.228ZM169.424 16.4258C169.387 15.8518 169.226 15.2791 168.94 14.7051C168.654 14.1288 168.201 13.646 167.581 13.2519C166.963 12.8578 166.187 12.6602 165.254 12.6602C164.18 12.6602 163.269 13.0057 162.525 13.6957C161.781 14.3856 161.292 15.2956 161.058 16.4258H169.423H169.424Z" fill="#666666"/>
<path d="M174.506 11.0176H176.684V13.0365H176.794C177.17 12.3537 177.77 11.775 178.595 11.3005C179.42 10.8259 180.298 10.5892 181.23 10.5892C182.88 10.5892 184.139 11.0685 185.01 12.0271C185.878 12.9856 186.314 14.2909 186.314 15.9418V24.738H184.028V16.2921C184.028 15.0175 183.724 14.0945 183.113 13.5205C182.505 12.9466 181.671 12.6602 180.614 12.6602C179.878 12.6602 179.218 12.8661 178.636 13.278C178.054 13.6921 177.601 14.2341 177.279 14.9063C176.955 15.5785 176.795 16.2838 176.795 17.0163V24.738H174.508V11.0176H174.506Z" fill="#666666"/>
<path d="M100.631 36.8986H95.225V34.72H108.294V36.8986H102.918V53.9822H100.631V36.8986Z" fill="#666666"/>
<path d="M111.146 53.4722C110.107 52.8438 109.295 51.9788 108.713 50.8758C108.129 49.7729 107.838 48.5315 107.838 47.1493C107.838 45.7671 108.111 44.6026 108.659 43.4914C109.206 42.379 109.98 41.4902 110.986 40.8275C111.99 40.1637 113.154 39.8335 114.482 39.8335C115.811 39.8335 116.99 40.1329 117.977 40.7329C118.962 41.3352 119.721 42.1648 120.248 43.2216C120.778 44.2795 121.043 45.4902 121.043 46.8535C121.043 47.1233 121.015 47.3552 120.963 47.5516H110.126C110.178 48.5919 110.43 49.4711 110.878 50.1871C111.326 50.9054 111.895 51.4439 112.585 51.8024C113.275 52.161 113.996 52.3385 114.75 52.3385C116.508 52.3385 117.862 51.5149 118.812 49.864L120.749 50.806C120.156 51.9184 119.355 52.7965 118.341 53.4414C117.327 54.0876 116.104 54.4118 114.672 54.4118C113.361 54.4118 112.187 54.0971 111.148 53.4698L111.146 53.4722ZM118.623 45.67C118.586 45.0961 118.425 44.5233 118.139 43.9494C117.853 43.3731 117.4 42.8902 116.78 42.4962C116.162 42.1021 115.386 41.9045 114.453 41.9045C113.379 41.9045 112.468 42.25 111.724 42.9399C110.98 43.6299 110.491 44.5399 110.257 45.67H118.622H118.623Z" fill="#666666"/>
<path d="M126.473 53.4568C125.415 52.8213 124.591 51.9503 123.999 50.8474C123.408 49.7457 123.111 48.5031 123.111 47.1232C123.111 45.7434 123.409 44.4961 123.999 43.3837C124.591 42.2713 125.415 41.4003 126.473 40.7743C127.532 40.1459 128.723 39.8323 130.051 39.8323C131.54 39.8323 132.789 40.1755 133.803 40.8678C134.816 41.5577 135.536 42.4772 135.967 43.6239L133.897 44.4842C133.555 43.6417 133.05 43.0026 132.378 42.5624C131.704 42.1222 130.895 41.9032 129.945 41.9032C129.137 41.9032 128.385 42.1222 127.684 42.5624C126.986 43.0026 126.426 43.6156 126.003 44.4038C125.583 45.1943 125.373 46.1008 125.373 47.1232C125.373 48.1457 125.583 49.0498 126.003 49.8403C126.426 50.6285 126.986 51.2438 127.684 51.6817C128.385 52.1219 129.137 52.3408 129.945 52.3408C130.913 52.3408 131.747 52.1172 132.445 51.6687C133.145 51.2225 133.663 50.5847 134.005 49.7598L136.049 50.6202C135.583 51.7503 134.834 52.6651 133.804 53.3633C132.773 54.0639 131.521 54.4142 130.053 54.4142C128.724 54.4142 127.534 54.0946 126.474 53.458L126.473 53.4568Z" fill="#666666"/>
<path d="M138.52 34.72H140.807V40.3968L140.697 42.2795H140.807C141.183 41.579 141.778 40.9967 142.594 40.5305C143.408 40.0642 144.301 39.8323 145.269 39.8323C146.937 39.8323 148.21 40.321 149.088 41.2973C149.968 42.276 150.405 43.5718 150.405 45.186V53.9822H148.121V45.5363C148.121 44.2972 147.808 43.3837 147.18 42.7908C146.551 42.1991 145.735 41.9044 144.733 41.9044C144.015 41.9044 143.356 42.1186 142.756 42.5505C142.154 42.9801 141.68 43.5363 141.33 44.2168C140.98 44.8996 140.807 45.6073 140.807 46.3422V53.9834H138.52V34.7223V34.72Z" fill="#666666"/>
<path d="M153.686 40.2619H155.864V42.2808H155.974C156.368 41.5802 156.959 40.998 157.748 40.5317C158.536 40.0654 159.37 39.8335 160.248 39.8335C161.252 39.8335 162.125 40.0749 162.869 40.5578C163.613 41.0418 164.147 41.6879 164.471 42.495C164.955 41.6867 165.596 41.0418 166.392 40.5578C167.191 40.0737 168.119 39.8335 169.176 39.8335C170.754 39.8335 171.941 40.3128 172.739 41.2713C173.537 42.2299 173.936 43.5352 173.936 45.186V53.9823H171.678V45.5363C171.678 44.2618 171.417 43.3387 170.897 42.7648C170.379 42.1908 169.607 41.9045 168.585 41.9045C167.903 41.9045 167.285 42.1021 166.729 42.4962C166.173 42.8902 165.738 43.4204 165.424 44.0831C165.11 44.747 164.954 45.4641 164.954 46.2357V53.9835H162.667V45.5635C162.667 44.2712 162.407 43.3387 161.887 42.766C161.367 42.192 160.605 41.9056 159.603 41.9056C158.92 41.9056 158.301 42.1068 157.747 42.5104C157.191 42.9127 156.756 43.4523 156.442 44.1233C156.127 44.7979 155.971 45.5198 155.971 46.2913V53.9846H153.685V40.2642L153.686 40.2619Z" fill="#666666"/>
<path d="M178.778 53.8201C177.99 53.4261 177.379 52.8829 176.95 52.193C176.519 51.503 176.304 50.7173 176.304 49.8392C176.304 48.386 176.852 47.2511 177.944 46.4345C179.038 45.6203 180.418 45.2109 182.086 45.2109C182.91 45.2109 183.677 45.3008 184.385 45.4807C185.094 45.6606 185.636 45.8665 186.013 46.1008V45.2665C186.013 44.244 185.654 43.4228 184.936 42.8038C184.218 42.1861 183.314 41.8761 182.22 41.8761C181.45 41.8761 180.74 42.0429 180.095 42.3754C179.45 42.7056 178.94 43.1683 178.564 43.7612L176.844 42.4689C177.379 41.6441 178.12 40.998 179.06 40.5317C180.002 40.0654 181.048 39.8335 182.194 39.8335C184.058 39.8335 185.523 40.3222 186.591 41.2985C187.657 42.2772 188.191 43.6085 188.191 45.2937V53.9835H186.013V52.0202H185.905C185.509 52.6841 184.918 53.2486 184.131 53.7148C183.34 54.1811 182.454 54.4154 181.468 54.4154C180.481 54.4154 179.568 54.2166 178.778 53.8225V53.8201ZM183.834 51.8036C184.497 51.4095 185.026 50.8794 185.42 50.2167C185.816 49.5528 186.013 48.8262 186.013 48.0357C185.582 47.7493 185.052 47.5173 184.426 47.3374C183.798 47.1576 183.135 47.0676 182.434 47.0676C181.18 47.0676 180.235 47.328 179.597 47.8475C178.961 48.3682 178.643 49.0404 178.643 49.8664C178.643 50.619 178.929 51.2309 179.503 51.6971C180.077 52.1634 180.803 52.3953 181.681 52.3953C182.453 52.3953 183.169 52.1977 183.832 51.8036H183.834Z" fill="#666666"/>
<path d="M191.363 34.72H193.65V46.825L200.104 40.2619H203.008V40.3695L197.629 45.8037L203.142 53.8757V53.9834H200.426L196.016 47.3919L193.65 49.761V53.9846H191.363V34.7235V34.72Z" fill="#666666"/>
<path d="M207.123 53.4722C206.083 52.8438 205.271 51.9788 204.689 50.8758C204.105 49.7729 203.814 48.5315 203.814 47.1493C203.814 45.7671 204.087 44.6026 204.635 43.4914C205.183 42.379 205.956 41.4902 206.962 40.8275C207.966 40.1637 209.13 39.8335 210.459 39.8335C211.787 39.8335 212.966 40.1329 213.953 40.7329C214.938 41.3352 215.697 42.1648 216.224 43.2216C216.754 44.2795 217.019 45.4902 217.019 46.8535C217.019 47.1233 216.991 47.3552 216.939 47.5516H206.102C206.154 48.5919 206.406 49.4711 206.854 50.1871C207.302 50.9054 207.871 51.4439 208.561 51.8024C209.251 52.161 209.972 52.3385 210.726 52.3385C212.484 52.3385 213.838 51.5149 214.788 49.864L216.725 50.806C216.132 51.9184 215.331 52.7965 214.317 53.4414C213.304 54.0876 212.08 54.4118 210.648 54.4118C209.337 54.4118 208.164 54.0971 207.124 53.4698L207.123 53.4722ZM214.599 45.67C214.562 45.0961 214.401 44.5233 214.115 43.9494C213.829 43.3731 213.376 42.8902 212.756 42.4962C212.138 42.1021 211.362 41.9045 210.429 41.9045C209.355 41.9045 208.444 42.25 207.7 42.9399C206.956 43.6299 206.467 44.5399 206.233 45.67H214.598H214.599Z" fill="#666666"/>
<path d="M219.681 40.2619H221.859V42.4689H221.969C222.239 41.7163 222.757 41.0879 223.527 40.5862C224.297 40.082 225.105 39.8335 225.947 39.8335C226.575 39.8335 227.114 39.9317 227.562 40.1293V42.5766C226.986 42.2902 226.341 42.1459 225.625 42.1459C224.962 42.1459 224.351 42.334 223.795 42.7127C223.239 43.089 222.796 43.5967 222.465 44.2369C222.132 44.8736 221.968 45.5612 221.968 46.2996V53.9846H219.681V40.2642V40.2619Z" fill="#666666"/>
<path d="M230.33 53.3775C229.343 52.6852 228.644 51.8036 228.231 50.7267L230.276 49.812C230.617 50.6368 231.123 51.2746 231.797 51.7231C232.469 52.1717 233.208 52.3953 234.014 52.3953C234.876 52.3953 235.61 52.2202 236.22 51.8699C236.828 51.522 237.134 51.0226 237.134 50.3764C237.134 49.8025 236.892 49.3409 236.408 48.993C235.924 48.6427 235.162 48.3434 234.124 48.0913L232.456 47.6605C231.362 47.3907 230.464 46.9363 229.766 46.2902C229.065 45.644 228.718 44.8097 228.718 43.7872C228.718 42.9967 228.954 42.3033 229.429 41.7033C229.903 41.1009 230.536 40.6394 231.326 40.3175C232.114 39.9933 232.966 39.8335 233.88 39.8335C235.082 39.8335 236.151 40.0915 237.093 40.6134C238.035 41.1341 238.704 41.8595 239.098 42.792L237.108 43.7068C236.498 42.4879 235.412 41.8761 233.854 41.8761C233.102 41.8761 232.443 42.0512 231.877 42.4015C231.311 42.7518 231.028 43.1967 231.028 43.7328C231.028 44.2369 231.226 44.644 231.621 44.9565C232.015 45.2712 232.606 45.528 233.395 45.7245L235.385 46.2345C236.729 46.5765 237.741 47.0818 238.425 47.754C239.105 48.4285 239.447 49.2475 239.447 50.2167C239.447 51.0593 239.205 51.8001 238.721 52.4344C238.237 53.071 237.58 53.5621 236.758 53.9018C235.934 54.2438 235.018 54.4142 234.014 54.4142C232.546 54.4142 231.315 54.0686 230.33 53.3787V53.3775Z" fill="#666666"/>
<mask id="mask0_2_2033" style="mask-type:luminance" maskUnits="userSpaceOnUse" x="15" y="11" width="42" height="38">
<path d="M55.9731 47.9481C56.1434 47.7315 56.2227 47.5055 56.2783 47.225C56.4096 46.7339 56.4049 46.167 56.3197 45.8629V13.0306C56.3197 12.0389 55.5153 11.2354 54.524 11.2354H47.0039C46.0125 11.2354 45.201 12.0779 45.2081 13.0317L45.0886 29.2006L41.4428 23.6303C41.0571 22.9593 40.3734 22.4978 39.6719 22.4635L32.3517 22.4658C31.6277 22.4658 31.0445 22.8504 30.6175 23.4978L26.4582 29.4503V13.0317C26.4582 12.0401 25.7661 11.2365 24.7748 11.2365H17.1435C16.1522 11.2365 15.3478 12.0412 15.3478 13.0329V46.2984C15.136 47.5173 15.8789 48.6593 17.2441 48.6593H24.7748C24.7748 48.6593 24.7807 48.6593 24.7831 48.6593H24.8233C25.5319 48.6699 26.1388 48.2545 26.5575 47.6037L35.8816 33.4975L45.3702 47.6286C45.3879 47.6593 45.4057 47.6889 45.4234 47.7185C45.4305 47.7327 45.44 47.7457 45.4483 47.7587C45.453 47.7658 45.4566 47.7729 45.4613 47.78C45.5216 47.8806 45.5902 47.9753 45.6683 48.0617C45.9853 48.4344 46.3367 48.5906 46.7531 48.6403C46.8359 48.6522 46.9187 48.6605 47.0039 48.6605H54.6352C54.6446 48.6605 54.6541 48.6593 54.6636 48.6593C55.3189 48.6486 55.6868 48.3421 55.9719 47.9504L55.9731 47.9481Z" fill="white"/>
</mask>
<g mask="url(#mask0_2_2033)">
<path opacity="0.3" d="M24.6637 11.2341H16.9957C16.0039 11.2341 15.2 12.0384 15.2 13.0305V46.8616C15.2 47.8538 16.0039 48.6581 16.9957 48.6581H24.6637C25.6554 48.6581 26.4594 47.8538 26.4594 46.8616V13.0305C26.4594 12.0384 25.6554 11.2341 24.6637 11.2341Z" fill="url(#paint0_linear_2_2033)"/>
<path d="M54.5239 48.6581H46.8926C45.9013 48.6581 45.0969 47.8533 45.0969 46.8616V13.0305C45.0898 12.0767 45.9013 11.2341 46.8926 11.2341H54.5239C55.5153 11.2341 56.3197 12.0388 56.3197 13.0305V46.8616C56.3197 47.8533 55.5153 48.6581 54.5239 48.6581Z" fill="#00BFA5"/>
<g opacity="0.3">
<path d="M56.1387 46.8581V13.027C56.1387 12.1406 55.423 11.3477 54.4282 11.2341C55.5236 11.2341 56.3209 12.0329 56.3114 13.027V46.8581H56.1387Z" fill="#04A88C"/>
</g>
<g opacity="0.3">
<path d="M45.272 46.9528H45.0993V13.1217C45.0851 12.4684 45.3631 11.9808 45.7345 11.6684C46.0232 11.4258 46.4171 11.2578 46.7471 11.24C46.8205 11.2365 46.9045 11.2341 46.9814 11.2341H54.5713L54.6233 11.2365C55.1 11.2341 55.6797 11.5205 56.0228 12.04C56.2144 12.3311 56.3362 12.698 56.3197 13.1228C56.3197 12.1797 55.5555 11.4116 54.6138 11.4116H46.9826C46.3911 11.4116 45.9108 11.6424 45.6127 12.0341C45.4447 12.2542 45.2921 12.5394 45.2602 12.8506C45.2306 13.1418 45.2318 13.4329 45.2318 13.5299L45.2744 46.9516L45.272 46.9528Z" fill="#1CE9B6"/>
</g>
<path d="M24.6636 48.6581L17.1814 48.509C16.19 48.509 15.2366 47.8546 15.2366 46.8629V13.0317C15.2366 12.0401 16.041 11.2354 17.0323 11.2354H24.6636C25.6549 11.2354 26.4593 12.0401 26.4593 13.0317V46.8629C26.4593 47.8546 25.6549 48.6593 24.6636 48.6593V48.6581Z" fill="#4285F4"/>
<path d="M30.5027 25.3829L45.259 47.6261C45.7333 48.4628 46.2692 48.6581 46.9932 48.6581H54.5157C56.4522 48.6581 56.5657 46.2877 56.2499 45.7421L41.2428 23.4965C40.8158 22.8492 40.2326 22.4646 39.5086 22.4646" fill="#1CE9B6"/>
<g opacity="0.4">
<path d="M47.1423 48.6616C46.4218 48.6616 45.7759 48.548 45.2909 47.6805L35.8521 33.4477L30.5796 25.429L30.7239 25.3331L45.4057 47.5373L45.4565 47.6249C45.9262 48.4533 46.4632 48.6604 47.1423 48.6604V48.6616Z" fill="#46F7C5"/>
</g>
<g opacity="0.3">
<path d="M26.4546 29.7354H26.3765L26.4132 12.9335L26.4546 12.911V29.7354Z" fill="#2A6FD3"/>
</g>
<g opacity="0.3">
<path d="M15.3903 46.3326H15.2354V13.0684C15.2354 12.9702 15.2401 12.8755 15.2519 12.7844C15.3241 12.2613 15.5985 11.8495 15.983 11.5726C16.2752 11.3619 16.6289 11.2377 17.0157 11.2377H24.7298C25.2409 11.2377 25.7318 11.5098 26.0536 11.898C26.3055 12.2009 26.4487 12.6092 26.4487 12.9358H26.4108C26.4108 12.3157 25.6998 11.3927 24.7298 11.3927H17.0157C16.5011 11.3927 16.0433 11.6317 15.7464 12.014C15.608 12.1915 15.3028 12.6483 15.3028 13.2719L15.3903 46.335V46.3326Z" fill="#4FC3F7"/>
</g>
<g opacity="0.3">
<path d="M54.5157 48.6663H47.0027C46.2823 48.6663 45.7772 48.5243 45.272 47.6321L45.4199 47.548C45.886 48.3705 46.3237 48.4936 47.0027 48.4936H54.5157C55.1699 48.4936 55.6123 48.2534 55.927 47.7102C56.341 46.993 56.302 46.1599 56.1375 45.8747L41.0725 23.5545L41.2156 23.4575L56.2842 45.7836C56.4983 46.154 56.3221 47.4167 56.0772 47.7977C55.811 48.2119 55.4148 48.6675 54.5169 48.6675L54.5157 48.6663Z" fill="#24CE9E"/>
</g>
<path d="M24.8043 48.6569H17.1328C15.5607 48.6569 14.813 47.1445 15.3986 45.741L30.5074 23.4966C30.9345 22.8493 31.5177 22.4646 32.2416 22.4646L39.5618 22.4623C41.0583 22.4623 41.9609 24.067 41.2475 25.3829L26.5398 47.6262C26.1222 48.2771 25.5295 48.6581 24.8055 48.6581L24.8043 48.6569Z" fill="#4FC3F7"/>
<g opacity="0.3">
<path d="M18.3229 48.6474L17.218 48.6569C16.4325 48.6652 15.8742 48.3551 15.5146 47.8131C15.1313 47.2356 15.0887 46.4841 15.3986 45.7398L15.4152 45.7149L30.5157 23.4741C30.9771 22.7747 31.5863 22.4611 32.3067 22.4611H39.621C39.8954 22.4682 40.1628 22.5333 40.3923 22.6445C40.5733 22.7321 40.7436 22.8457 40.8903 22.9889C41.024 23.119 41.1411 23.2741 41.2452 23.4504C41.2452 23.4504 40.2799 22.635 39.6245 22.635H32.3067C31.6478 22.635 31.0883 22.9214 30.66 23.5711L15.556 45.8096C15.272 46.496 15.3099 47.1918 15.6589 47.7184C15.9854 48.2107 16.5355 48.5658 17.2157 48.5681L18.3241 48.6474H18.3229Z" fill="#6ED2F4"/>
</g>
<g opacity="0.3">
<path d="M24.8044 48.6568C24.5181 48.6568 18.3525 48.6675 17.1411 48.6568C17.0347 48.6568 16.9672 48.6533 16.9436 48.6509C16.5686 48.6273 16.2172 48.49 15.9369 48.2805L15.6494 48.0012C15.9038 48.1918 16.5627 48.4474 16.9069 48.4687C17.1849 48.4864 24.7287 48.4864 24.8044 48.4864C25.4775 48.4864 26.0406 48.1231 26.4593 47.4711L41.1494 25.2337C41.4759 24.6314 41.4203 23.9817 41.0713 23.3959C40.9459 23.1853 40.7673 22.8551 40.5129 22.7084C40.0859 22.461 40.2409 22.5533 40.5129 22.7084C40.7685 22.8539 40.9909 23.0539 41.1659 23.3237C41.5681 23.9403 41.5764 24.7734 41.2807 25.3118C41.2771 25.3189 41.2748 25.3284 41.27 25.3355C40.0575 27.1958 38.0382 30.2324 35.8828 33.4939C31.52 40.0973 26.5895 47.5551 26.5895 47.5551C26.1293 48.2793 25.5343 48.6557 24.8055 48.6557L24.8044 48.6568Z" fill="#30A5CE"/>
</g>
</g>
<g opacity="0.3">
<path d="M18.7216 53.6366C18.7216 52.9763 18.1313 52.5148 17.5102 52.5148L8.78823 52.4355C8.5682 52.4331 8.3529 52.3728 8.16362 52.2604L8.14351 52.2485C8.0962 52.226 8.05124 52.1976 8.0122 52.1621L7.9566 52.1124C8.08555 52.2177 8.23697 52.2899 8.39903 52.3243C8.41441 52.329 8.5126 52.3444 8.52916 52.3467C8.57884 52.3527 8.62853 52.355 8.67703 52.3562H17.5102C17.7989 52.3562 18.0485 52.4461 18.2496 52.6C18.3939 52.71 18.5276 52.8639 18.608 53.0461C18.6849 53.2189 18.7239 53.3597 18.7216 53.6355V53.6366Z" fill="#4FC3F7"/>
<path d="M1.18534 0.00244141H17.5327C18.0934 0.00244141 18.7216 0.482924 18.7216 1.17758C18.7216 0.574046 18.0236 0.152736 17.5351 0.152736H1.18888C1.15576 0.152736 1.14748 0.157481 1.09543 0.164581L0.895508 0.041503C0.955839 0.0273021 1.06704 0.00244141 1.18652 0.00244141H1.18534Z" fill="#4FC3F7"/>
</g>
<g opacity="0.3">
<path d="M62.6946 7.52893C63.3997 7.52893 63.9722 7.95141 63.9722 8.65909L64.0054 51.1326C64.0136 51.5373 63.8764 51.9054 63.6185 52.1681C63.3559 52.4355 62.9927 52.5787 62.561 52.5728L53.8875 52.5669C53.2747 52.5669 52.8287 53.0059 52.8287 53.6106L52.8181 58.6165C52.8181 58.891 52.895 59.2733 53.128 59.5017C53.4131 59.7821 53.8638 59.8815 53.8638 59.8815C53.7976 59.878 53.7313 59.8779 53.671 59.8685C53.0121 59.7596 52.6465 59.2638 52.6465 58.6153L52.6572 53.6095C52.6572 52.9053 53.1753 52.3941 53.8887 52.3941L62.5621 52.4C62.9454 52.4048 63.266 52.2805 63.4955 52.0474C63.7203 51.819 63.8397 51.4947 63.8326 51.135L63.8362 8.66027C63.8362 8.04727 63.2885 7.54195 62.6946 7.52893Z" fill="#1CE9B6"/>
<path d="M53.8875 7.53241C53.1138 7.53241 52.6454 6.97622 52.6454 6.26736V1.13493C52.6454 0.587014 53.1399 0.0012207 53.8366 0.0012207C53.8556 0.0012207 67.2396 0.0154227 70.0917 0.00240526C70.4561 0.00122186 70.7518 0.204763 70.7518 0.204763L70.514 0.146777C70.4833 0.14086 70.3981 0.139699 70.3662 0.139699C69.3973 0.139699 53.8567 0.1397 53.8366 0.140883C53.2582 0.166918 52.8181 0.542044 52.8181 1.13375L52.7814 6.26618C52.7814 6.87918 53.2274 7.52768 53.8378 7.52768" fill="#1CE9B6"/>
</g>
<path d="M17.5256 59.885H1.19716C0.535882 59.885 0 59.3489 0 58.6874V1.20006C0 0.538537 0.535882 0.00244141 1.19598 0.00244141H17.5244C18.1857 0.00244141 18.7216 0.538537 18.7216 1.20006V6.28988C18.7216 6.9514 18.1857 7.48747 17.5244 7.48747H8.67822C8.01694 7.48747 7.48106 8.02356 7.48106 8.68508V51.1598C7.48106 51.8213 8.01694 52.3574 8.67822 52.3574H17.5244C18.1857 52.3574 18.7216 52.8935 18.7216 53.555V58.6874C18.7216 59.3489 18.1857 59.885 17.5256 59.885Z" fill="#4285F4"/>
<g opacity="0.3">
<path d="M1.16991 59.8839C0.720387 59.8839 0.346569 59.6165 0.113525 59.1987C0.316995 59.5656 0.778352 59.7099 1.16991 59.7099L17.5078 59.7005C18.1502 59.7005 18.5689 59.2295 18.5689 58.7727L18.608 53.6497C18.608 53.6497 18.5926 53.2462 18.5607 53.1906L18.4684 52.8154L18.5488 52.9302C18.5488 52.9302 18.7239 53.2178 18.7227 53.5125C18.7227 53.6095 18.7204 53.7207 18.7204 53.7846L18.7227 58.7715C18.7227 59.3229 18.1821 59.8744 17.509 59.8744L1.1711 59.8839H1.16991Z" fill="#2A6FD3"/>
<path d="M8.56932 52.3516C8.25702 52.3516 7.29291 51.9515 7.29291 51.2427V8.76799C7.29291 8.06742 7.82642 7.28519 8.53975 7.28519L17.2901 7.27808C17.8887 7.27808 18.5322 6.99526 18.5322 6.37279V1.28297C18.5322 0.669967 18.0342 0.00133527 17.4214 0.00133527C17.858 -0.0175992 18.2495 0.165841 18.4861 0.487727C18.6423 0.699556 18.7357 0.97174 18.718 1.28771V6.33017C18.718 6.33017 18.718 6.40711 18.699 6.49942C18.6659 6.66036 18.608 6.82366 18.5133 6.9633C18.3997 7.12898 18.2377 7.26745 18.0579 7.36094C17.8355 7.47573 17.5717 7.49346 17.2842 7.48636H8.61901C8.41909 7.48518 8.23928 7.55619 8.08194 7.64376C7.68092 7.86742 7.44078 8.31238 7.47863 8.76799V51.2451C7.47981 51.4936 7.58746 51.7066 7.72705 51.89C7.93052 52.1575 8.25347 52.3279 8.57406 52.3539L8.56696 52.3516H8.56932Z" fill="#2A6FD3"/>
</g>
<path d="M53.8379 0.00244141H70.0929C70.7507 0.00244141 71.2842 0.538537 71.2842 1.20006V58.6874C71.2842 59.3489 70.7507 59.885 70.0929 59.885H53.8379C53.1801 59.885 52.6466 59.3489 52.6466 58.6874V53.5976C52.6466 52.9361 53.1801 52.4 53.8379 52.4H62.645C63.3027 52.4 63.8363 51.8639 63.8363 51.2024V8.72767C63.8363 8.06615 63.3027 7.53008 62.645 7.53008H53.8379C53.1801 7.53008 52.6466 6.99399 52.6466 6.33246V1.20006C52.6466 0.538537 53.1801 0.00244141 53.8379 0.00244141Z" fill="#00BFA5"/>
<g opacity="0.3">
<path d="M70.475 59.8224C70.8619 59.6402 71.1126 59.1171 71.1126 58.6875L71.1221 1.25694C71.1221 0.814346 70.8666 0.247494 70.4845 0.071167C70.8926 0.201341 71.1789 0.551617 71.2664 0.976459C71.2854 1.0664 71.2854 1.1599 71.2854 1.25575V58.6863C71.2854 59.1822 70.9967 59.6259 70.475 59.8212V59.8224Z" fill="#04A88C"/>
</g>
<g opacity="0.3">
<path d="M70.2656 59.872C70.2254 59.8779 70.1142 59.8839 70.074 59.8839L54.2258 59.8803H54.0922C53.8745 59.8826 53.7065 59.8862 53.561 59.8531C53.4344 59.8235 53.2664 59.7572 53.1221 59.6448C53.1115 59.6365 53.076 59.6045 53.0429 59.575C53.0133 59.5477 52.9861 59.5229 52.9861 59.5229C52.9861 59.5229 53.2972 59.6744 53.4344 59.698C53.7243 59.7489 53.8828 59.7324 54.091 59.73H54.2258L70.1118 59.7454C70.3473 59.7454 70.7625 59.6436 70.9577 59.5099L70.8796 59.5821C70.7566 59.6968 70.5886 59.788 70.41 59.8401C70.41 59.8401 70.3047 59.8649 70.2656 59.8708V59.872Z" fill="#04A88C"/>
</g>
<g opacity="0.4">
<path d="M52.6454 6.26624C52.6454 6.87924 53.2783 7.37744 53.8875 7.37744H62.6947C63.3997 7.37744 63.8303 7.89104 63.8303 8.59872C63.7794 8.06974 63.3039 7.5301 62.6947 7.5301H53.8875C53.1825 7.5301 52.6939 6.99757 52.6525 6.46504L52.6454 6.26624Z" fill="#04A88C"/>
</g>
<g opacity="0.4">
<path d="M0.89432 0.0415039L1.09424 0.164582C0.524053 0.266355 0.172712 0.776408 0.172712 1.20598L0.16325 58.6365C0.16325 59.0791 0.41877 59.646 0.800867 59.8223C0.392744 59.6921 0.106467 59.3418 0.0189278 58.917C4.33637e-07 58.827 0 58.7336 0 58.6377V1.20717C0 0.711322 0.350157 0.163396 0.89432 0.0426885V0.0415039Z" fill="#4FC3F7"/>
</g>
<path d="M17.7871 59.8887H1.45863C0.797358 59.8887 0.261475 59.3526 0.261475 58.6911V1.20372C0.261475 0.542199 0.797357 0.00610352 1.45745 0.00610352H17.7859C18.4472 0.00610352 18.9831 0.542199 18.9831 1.20372V6.29354C18.9831 6.95506 18.4472 7.49113 17.7859 7.49113H8.93969C8.27842 7.49113 7.74254 8.02722 7.74254 8.68875V51.1634C7.74254 51.825 8.27842 52.3611 8.93969 52.3611H17.7859C18.4472 52.3611 18.9831 52.8971 18.9831 53.5586V58.6911C18.9831 59.3526 18.4472 59.8887 17.7871 59.8887Z" fill="url(#paint1_linear_2_2033)"/>
<g opacity="0.3">
<path d="M1.43139 59.8874C0.981859 59.8874 0.608044 59.6199 0.375 59.2022C0.57847 59.569 1.03982 59.7134 1.43139 59.7134L17.7693 59.704C18.4116 59.704 18.8304 59.2329 18.8304 58.7761L18.8694 53.6532C18.8694 53.6532 18.8541 53.2497 18.8221 53.194L18.7299 52.8189L18.8103 52.9337C18.8103 52.9337 18.9854 53.2213 18.9842 53.5159C18.9842 53.613 18.9818 53.7242 18.9818 53.7881L18.9842 58.775C18.9842 59.3265 18.4436 59.8779 17.7705 59.8779L1.43257 59.8874H1.43139Z" fill="url(#paint2_linear_2_2033)"/>
<path d="M8.8308 52.3562C8.5185 52.3562 7.55438 51.9562 7.55438 51.2473V8.77263C7.55438 8.07206 8.0879 7.28983 8.80123 7.28983L17.5516 7.28272C18.1502 7.28272 18.7937 6.9999 18.7937 6.37743V1.28761C18.7937 0.674606 18.2957 0.00597394 17.6829 0.00597394C18.1194 -0.0129605 18.511 0.17048 18.7476 0.492365C18.9037 0.704194 18.9972 0.976378 18.9794 1.29235V6.33481C18.9794 6.33481 18.9794 6.41175 18.9605 6.50406C18.9274 6.665 18.8694 6.8283 18.7748 6.96794C18.6612 7.13362 18.4992 7.27206 18.3194 7.36555C18.097 7.48034 17.8332 7.4981 17.5457 7.491H8.88048C8.68056 7.48981 8.50075 7.56083 8.34342 7.6484C7.94239 7.87206 7.70225 8.31702 7.74011 8.77263V51.2497C7.74129 51.4982 7.84894 51.7112 7.98853 51.8946C8.192 52.1621 8.51495 52.3325 8.83553 52.3586L8.82843 52.3562H8.8308Z" fill="url(#paint3_linear_2_2033)"/>
</g>
<path d="M54.0993 0.00720215H70.3544C71.0121 0.00720215 71.5456 0.543298 71.5456 1.20482V58.6922C71.5456 59.3537 71.0121 59.8898 70.3544 59.8898H54.0993C53.4415 59.8898 52.908 59.3537 52.908 58.6922V53.6024C52.908 52.9408 53.4415 52.4047 54.0993 52.4047H62.9064C63.5641 52.4047 64.0977 51.8687 64.0977 51.2072V8.73243C64.0977 8.07091 63.5641 7.53484 62.9064 7.53484H54.0993C53.4415 7.53484 52.908 6.99875 52.908 6.33722V1.20482C52.908 0.543298 53.4415 0.00720215 54.0993 0.00720215Z" fill="url(#paint4_linear_2_2033)"/>
<g opacity="0.3">
<path d="M70.7365 59.8259C71.1233 59.6437 71.3741 59.1206 71.3741 58.691L71.3835 1.26048C71.3835 0.817886 71.128 0.251034 70.7459 0.074707C71.154 0.204881 71.4403 0.555157 71.5279 0.979999C71.5468 1.06994 71.5468 1.16344 71.5468 1.25929V58.6898C71.5468 59.1857 71.2581 59.6295 70.7365 59.8247V59.8259Z" fill="url(#paint5_linear_2_2033)"/>
</g>
<g opacity="0.3">
<path d="M70.5271 59.8768C70.4869 59.8827 70.3757 59.8886 70.3355 59.8886L54.4873 59.885H54.3536C54.136 59.8874 53.968 59.891 53.8225 59.8578C53.6959 59.8282 53.5279 59.762 53.3836 59.6496C53.3729 59.6413 53.3375 59.6093 53.3043 59.5797C53.2748 59.5525 53.2476 59.5276 53.2476 59.5276C53.2476 59.5276 53.5587 59.6791 53.6959 59.7028C53.9857 59.7537 54.1442 59.7371 54.3524 59.7347H54.4873L70.3733 59.7501C70.6087 59.7501 71.0239 59.6484 71.2191 59.5146L71.1411 59.5868C71.018 59.7016 70.8501 59.7928 70.6714 59.8448C70.6714 59.8448 70.5661 59.8696 70.5271 59.8756V59.8768Z" fill="url(#paint6_linear_2_2033)"/>
</g>
<path d="M101.566 71.1861C100.759 71.1861 100.026 70.9961 99.367 70.6161C98.7078 70.236 98.1881 69.7164 97.8081 69.0571C97.4358 68.3901 97.2496 67.6494 97.2496 66.835C97.2496 66.0206 97.4358 65.2838 97.8081 64.6246C98.1881 63.9576 98.7078 63.434 99.367 63.054C100.026 62.6739 100.759 62.4839 101.566 62.4839C102.186 62.4839 102.753 62.6041 103.264 62.8446C103.784 63.0772 104.234 63.4108 104.614 63.8451L103.904 64.5315C103.586 64.1515 103.237 63.8722 102.857 63.6938C102.485 63.5155 102.054 63.4263 101.566 63.4263C100.961 63.4263 100.406 63.5698 99.9022 63.8567C99.398 64.1359 98.9947 64.5354 98.6923 65.055C98.3975 65.5669 98.2502 66.1603 98.2502 66.835C98.2502 67.5098 98.3975 68.107 98.6923 68.6267C98.9947 69.1386 99.398 69.538 99.9022 69.825C100.406 70.1042 100.961 70.2438 101.566 70.2438C102.574 70.2438 103.431 69.8288 104.137 68.999L104.858 69.697C104.47 70.1546 103.993 70.5191 103.427 70.7906C102.861 71.0543 102.241 71.1861 101.566 71.1861ZM105.969 62.6701H106.958V65.1248L106.911 65.9392H106.958C107.12 65.6367 107.376 65.3847 107.725 65.183C108.082 64.9813 108.47 64.8805 108.889 64.8805C109.61 64.8805 110.161 65.0938 110.541 65.5204C110.921 65.9392 111.111 66.4976 111.111 67.1957V71H110.122V67.3469C110.122 66.8118 109.986 66.4162 109.715 66.1603C109.443 65.9043 109.09 65.7763 108.656 65.7763C108.346 65.7763 108.059 65.8694 107.795 66.0555C107.539 66.2417 107.334 66.4821 107.179 66.7769C107.031 67.0716 106.958 67.3779 106.958 67.6959V71H105.969V62.6701ZM112.536 62.6701H113.524V65.1248L113.478 65.9392H113.524C113.687 65.6367 113.943 65.3847 114.292 65.183C114.649 64.9813 115.037 64.8805 115.456 64.8805C116.177 64.8805 116.728 65.0938 117.108 65.5204C117.488 65.9392 117.678 66.4976 117.678 67.1957V71H116.689V67.3469C116.689 66.8118 116.553 66.4162 116.282 66.1603C116.01 65.9043 115.657 65.7763 115.223 65.7763C114.913 65.7763 114.626 65.8694 114.362 66.0555C114.106 66.2417 113.901 66.4821 113.745 66.7769C113.598 67.0716 113.524 67.3779 113.524 67.6959V71H112.536V62.6701ZM119.754 71.0698C119.544 71.0698 119.366 71 119.219 70.8604C119.079 70.713 119.009 70.5346 119.009 70.3252C119.009 70.1236 119.079 69.9529 119.219 69.8133C119.366 69.666 119.544 69.5923 119.754 69.5923C119.956 69.5923 120.126 69.666 120.266 69.8133C120.413 69.9529 120.487 70.1236 120.487 70.3252C120.487 70.5346 120.413 70.713 120.266 70.8604C120.126 71 119.956 71.0698 119.754 71.0698ZM126.751 71.1861C126.099 71.1861 125.502 70.9884 124.959 70.5928C124.416 70.1973 124.044 69.6427 123.842 68.9291L124.785 68.5452C124.917 69.0416 125.161 69.4488 125.518 69.7668C125.874 70.0848 126.293 70.2438 126.774 70.2438C127.255 70.2438 127.662 70.1158 127.996 69.8599C128.329 69.5962 128.496 69.2394 128.496 68.7895C128.496 68.4017 128.353 68.0837 128.066 67.8356C127.786 67.5796 127.325 67.343 126.681 67.1259L126.158 66.9397C125.568 66.7303 125.087 66.455 124.715 66.1137C124.343 65.7725 124.157 65.2993 124.157 64.6944C124.157 64.2988 124.265 63.9343 124.482 63.6008C124.699 63.2595 125.002 62.9881 125.39 62.7864C125.778 62.5847 126.212 62.4839 126.693 62.4839C127.174 62.4839 127.592 62.5731 127.949 62.7515C128.306 62.9299 128.589 63.147 128.799 63.403C129.016 63.6589 129.167 63.911 129.252 64.1592L128.322 64.5548C128.244 64.2678 128.066 64.008 127.786 63.7753C127.515 63.5426 127.154 63.4263 126.704 63.4263C126.278 63.4263 125.913 63.5465 125.611 63.7869C125.308 64.0274 125.157 64.3298 125.157 64.6944C125.157 65.0201 125.285 65.2877 125.541 65.4971C125.797 65.6988 126.185 65.8888 126.704 66.0672L127.251 66.2533C127.957 66.5093 128.508 66.8311 128.903 67.2189C129.299 67.599 129.497 68.1186 129.497 68.7779C129.497 69.3131 129.357 69.7629 129.078 70.1274C128.806 70.492 128.461 70.7596 128.042 70.9302C127.623 71.1008 127.193 71.1861 126.751 71.1861ZM132.644 71.1861C132.21 71.1861 131.822 71.1008 131.481 70.9302C131.139 70.7596 130.876 70.5269 130.69 70.2322C130.503 69.9297 130.41 69.5884 130.41 69.2084C130.41 68.5801 130.647 68.0915 131.12 67.7425C131.593 67.3857 132.19 67.2073 132.912 67.2073C133.268 67.2073 133.598 67.2461 133.901 67.3237C134.211 67.4012 134.447 67.4904 134.61 67.5912V67.2306C134.61 66.7885 134.455 66.4356 134.145 66.1719C133.835 65.9004 133.443 65.7647 132.97 65.7647C132.636 65.7647 132.33 65.8384 132.051 65.9857C131.772 66.1254 131.55 66.3231 131.388 66.5791L130.643 66.0206C130.876 65.6639 131.194 65.3847 131.597 65.183C132.008 64.9813 132.462 64.8805 132.958 64.8805C133.765 64.8805 134.397 65.0938 134.855 65.5204C135.32 65.9392 135.553 66.5132 135.553 67.2422V71H134.61V70.1507H134.564C134.393 70.4377 134.137 70.682 133.796 70.8837C133.455 71.0853 133.071 71.1861 132.644 71.1861ZM132.737 70.3136C133.071 70.3136 133.381 70.2283 133.668 70.0576C133.955 69.887 134.184 69.6582 134.354 69.3712C134.525 69.0843 134.61 68.7701 134.61 68.4289C134.424 68.3048 134.195 68.204 133.924 68.1264C133.652 68.0488 133.365 68.0101 133.063 68.0101C132.52 68.0101 132.109 68.1225 131.83 68.3474C131.558 68.5724 131.423 68.8632 131.423 69.22C131.423 69.5457 131.547 69.8095 131.795 70.0111C132.043 70.2128 132.357 70.3136 132.737 70.3136ZM136.928 65.0667H137.871V65.9392H137.917C138.088 65.6367 138.344 65.3847 138.685 65.183C139.026 64.9813 139.387 64.8805 139.767 64.8805C140.201 64.8805 140.578 64.9852 140.896 65.1946C141.221 65.404 141.454 65.6833 141.594 66.0323C141.803 65.6833 142.078 65.404 142.42 65.1946C142.769 64.9852 143.172 64.8805 143.629 64.8805C144.312 64.8805 144.824 65.0899 145.165 65.5088C145.514 65.9198 145.689 66.4821 145.689 67.1957V71H144.711V67.3469C144.711 66.7962 144.599 66.3968 144.374 66.1486C144.149 65.9004 143.816 65.7763 143.374 65.7763C143.079 65.7763 142.811 65.8616 142.571 66.0323C142.33 66.2029 142.14 66.4317 142.001 66.7187C141.869 67.0057 141.803 67.3159 141.803 67.6494V71H140.814V67.3586C140.814 66.8001 140.702 66.3968 140.477 66.1486C140.252 65.9004 139.922 65.7763 139.488 65.7763C139.193 65.7763 138.925 65.8655 138.685 66.0439C138.445 66.2145 138.255 66.4472 138.115 66.742C137.983 67.0289 137.917 67.3392 137.917 67.6727V71H136.928V65.0667ZM150.121 71.1861C149.671 71.1861 149.264 71.0853 148.9 70.8837C148.543 70.6742 148.275 70.4222 148.097 70.1274H148.05V71H147.108V62.6701H148.097V65.1248L148.05 65.9508H148.097C148.275 65.6484 148.543 65.3963 148.9 65.1946C149.264 64.9852 149.671 64.8805 150.121 64.8805C150.649 64.8805 151.13 65.0162 151.564 65.2877C151.998 65.5592 152.339 65.9353 152.588 66.4162C152.836 66.8971 152.96 67.4361 152.96 68.0333C152.96 68.6383 152.836 69.1812 152.588 69.6621C152.339 70.1352 151.998 70.5075 151.564 70.779C151.13 71.0504 150.649 71.1861 150.121 71.1861ZM150.005 70.2903C150.346 70.2903 150.668 70.1973 150.971 70.0111C151.273 69.825 151.513 69.5613 151.692 69.22C151.878 68.871 151.971 68.4754 151.971 68.0333C151.971 67.5912 151.878 67.1996 151.692 66.8583C151.513 66.5093 151.273 66.2417 150.971 66.0555C150.668 65.8694 150.346 65.7763 150.005 65.7763C149.664 65.7763 149.342 65.8694 149.039 66.0555C148.737 66.2417 148.496 66.5054 148.318 66.8467C148.14 67.1879 148.05 67.5835 148.05 68.0333C148.05 68.4832 148.14 68.8787 148.318 69.22C148.496 69.5613 148.737 69.825 149.039 70.0111C149.342 70.1973 149.664 70.2903 150.005 70.2903ZM154.05 62.6701H155.039V65.1248L154.992 65.9392H155.039C155.202 65.6367 155.458 65.3847 155.807 65.183C156.163 64.9813 156.551 64.8805 156.97 64.8805C157.691 64.8805 158.242 65.0938 158.622 65.5204C159.002 65.9392 159.192 66.4976 159.192 67.1957V71H158.203V67.3469C158.203 66.8118 158.067 66.4162 157.796 66.1603C157.525 65.9043 157.172 65.7763 156.737 65.7763C156.427 65.7763 156.14 65.8694 155.876 66.0555C155.62 66.2417 155.415 66.4821 155.26 66.7769C155.112 67.0716 155.039 67.3779 155.039 67.6959V71H154.05V62.6701ZM162.456 71.1861C162.022 71.1861 161.634 71.1008 161.293 70.9302C160.952 70.7596 160.688 70.5269 160.502 70.2322C160.316 69.9297 160.222 69.5884 160.222 69.2084C160.222 68.5801 160.459 68.0915 160.932 67.7425C161.405 67.3857 162.002 67.2073 162.724 67.2073C163.081 67.2073 163.41 67.2461 163.713 67.3237C164.023 67.4012 164.259 67.4904 164.422 67.5912V67.2306C164.422 66.7885 164.267 66.4356 163.957 66.1719C163.647 65.9004 163.255 65.7647 162.782 65.7647C162.448 65.7647 162.142 65.8384 161.863 65.9857C161.584 66.1254 161.363 66.3231 161.2 66.5791L160.455 66.0206C160.688 65.6639 161.006 65.3847 161.409 65.183C161.82 64.9813 162.274 64.8805 162.77 64.8805C163.577 64.8805 164.209 65.0938 164.667 65.5204C165.132 65.9392 165.365 66.5132 165.365 67.2422V71H164.422V70.1507H164.376C164.205 70.4377 163.949 70.682 163.608 70.8837C163.267 71.0853 162.883 71.1861 162.456 71.1861ZM162.549 70.3136C162.883 70.3136 163.193 70.2283 163.48 70.0576C163.767 69.887 163.996 69.6582 164.166 69.3712C164.337 69.0843 164.422 68.7701 164.422 68.4289C164.236 68.3048 164.007 68.204 163.736 68.1264C163.464 68.0488 163.178 68.0101 162.875 68.0101C162.332 68.0101 161.921 68.1225 161.642 68.3474C161.37 68.5724 161.235 68.8632 161.235 69.22C161.235 69.5457 161.359 69.8095 161.607 70.0111C161.855 70.2128 162.169 70.3136 162.549 70.3136ZM167.322 63.9731C167.128 63.9731 166.961 63.9033 166.822 63.7637C166.682 63.624 166.612 63.4573 166.612 63.2634C166.612 63.0695 166.682 62.9066 166.822 62.7748C166.961 62.6352 167.128 62.5653 167.322 62.5653C167.516 62.5653 167.683 62.6352 167.822 62.7748C167.962 62.9066 168.032 63.0695 168.032 63.2634C168.032 63.4573 167.962 63.624 167.822 63.7637C167.691 63.9033 167.524 63.9731 167.322 63.9731ZM166.182 73.6293C165.996 73.6293 165.821 73.6021 165.658 73.5478V72.6055C165.721 72.6443 165.798 72.6753 165.891 72.6986C165.984 72.7218 166.07 72.7335 166.147 72.7335C166.388 72.7335 166.562 72.6559 166.671 72.5008C166.779 72.3534 166.834 72.1324 166.834 71.8376V65.0667H167.811V71.8376C167.811 72.4349 167.667 72.8808 167.38 73.1756C167.093 73.478 166.694 73.6293 166.182 73.6293ZM169.947 63.9731C169.753 63.9731 169.586 63.9033 169.446 63.7637C169.307 63.624 169.237 63.4573 169.237 63.2634C169.237 63.0695 169.307 62.9066 169.446 62.7748C169.586 62.6352 169.753 62.5653 169.947 62.5653C170.141 62.5653 170.307 62.6352 170.447 62.7748C170.586 62.9066 170.656 63.0695 170.656 63.2634C170.656 63.4573 170.586 63.624 170.447 63.7637C170.315 63.9033 170.148 63.9731 169.947 63.9731ZM169.458 65.0667H170.435V71H169.458V65.0667ZM171.989 65.0667H172.932V65.9392H172.978C173.141 65.6445 173.401 65.3963 173.758 65.1946C174.115 64.9852 174.495 64.8805 174.898 64.8805C175.611 64.8805 176.154 65.0899 176.527 65.5088C176.907 65.9198 177.097 66.4821 177.097 67.1957V71H176.108V67.3469C176.108 66.7962 175.976 66.3968 175.712 66.1486C175.449 65.9004 175.088 65.7763 174.63 65.7763C174.312 65.7763 174.025 65.8655 173.769 66.0439C173.521 66.2223 173.327 66.4589 173.188 66.7536C173.048 67.0406 172.978 67.343 172.978 67.661V71H171.989V65.0667ZM180.35 71.1861C179.916 71.1861 179.528 71.1008 179.187 70.9302C178.846 70.7596 178.582 70.5269 178.396 70.2322C178.21 69.9297 178.117 69.5884 178.117 69.2084C178.117 68.5801 178.353 68.0915 178.826 67.7425C179.299 67.3857 179.897 67.2073 180.618 67.2073C180.975 67.2073 181.304 67.2461 181.607 67.3237C181.917 67.4012 182.154 67.4904 182.316 67.5912V67.2306C182.316 66.7885 182.161 66.4356 181.851 66.1719C181.541 65.9004 181.149 65.7647 180.676 65.7647C180.343 65.7647 180.036 65.8384 179.757 65.9857C179.478 66.1254 179.257 66.3231 179.094 66.5791L178.349 66.0206C178.582 65.6639 178.9 65.3847 179.303 65.183C179.714 64.9813 180.168 64.8805 180.664 64.8805C181.471 64.8805 182.103 65.0938 182.561 65.5204C183.026 65.9392 183.259 66.5132 183.259 67.2422V71H182.316V70.1507H182.27C182.099 70.4377 181.843 70.682 181.502 70.8837C181.161 71.0853 180.777 71.1861 180.35 71.1861ZM180.443 70.3136C180.777 70.3136 181.087 70.2283 181.374 70.0576C181.661 69.887 181.89 69.6582 182.061 69.3712C182.231 69.0843 182.316 68.7701 182.316 68.4289C182.13 68.3048 181.902 68.204 181.63 68.1264C181.359 68.0488 181.072 68.0101 180.769 68.0101C180.226 68.0101 179.815 68.1225 179.536 68.3474C179.264 68.5724 179.129 68.8632 179.129 69.22C179.129 69.5457 179.253 69.8095 179.501 70.0111C179.749 70.2128 180.063 70.3136 180.443 70.3136ZM187.184 73.6991C186.486 73.6991 185.908 73.5362 185.45 73.2105C185 72.8847 184.698 72.493 184.543 72.0354L185.439 71.6515C185.57 71.9928 185.788 72.2681 186.09 72.4775C186.4 72.6947 186.765 72.8033 187.184 72.8033C187.796 72.8033 188.27 72.6249 188.603 72.2681C188.944 71.9113 189.115 71.4072 189.115 70.7557V70.0925H189.068C188.875 70.395 188.599 70.6432 188.242 70.8371C187.893 71.0233 187.494 71.1163 187.044 71.1163C186.532 71.1163 186.063 70.9845 185.636 70.7208C185.218 70.4571 184.884 70.0887 184.636 69.6156C184.388 69.1424 184.264 68.6034 184.264 67.9984C184.264 67.4012 184.388 66.8661 184.636 66.3929C184.884 65.9121 185.218 65.5398 185.636 65.2761C186.063 65.0124 186.532 64.8805 187.044 64.8805C187.494 64.8805 187.893 64.9775 188.242 65.1714C188.599 65.3575 188.875 65.6057 189.068 65.9159H189.115V65.0667H190.057V70.7673C190.057 71.7213 189.794 72.4465 189.266 72.9429C188.739 73.447 188.045 73.6991 187.184 73.6991ZM187.184 70.2205C187.541 70.2205 187.862 70.1313 188.149 69.9529C188.444 69.7746 188.677 69.5186 188.847 69.1851C189.026 68.8516 189.115 68.456 189.115 67.9984C189.115 67.5331 189.026 67.1336 188.847 66.8001C188.677 66.4666 188.444 66.2145 188.149 66.0439C187.862 65.8655 187.541 65.7763 187.184 65.7763C186.827 65.7763 186.501 65.8655 186.206 66.0439C185.912 66.2223 185.675 66.4783 185.497 66.8118C185.326 67.1453 185.241 67.5408 185.241 67.9984C185.241 68.456 185.326 68.8555 185.497 69.1967C185.675 69.5302 185.912 69.7862 186.206 69.9646C186.501 70.1352 186.827 70.2205 187.184 70.2205ZM193.359 71.1861C192.925 71.1861 192.537 71.1008 192.196 70.9302C191.854 70.7596 191.591 70.5269 191.405 70.2322C191.218 69.9297 191.125 69.5884 191.125 69.2084C191.125 68.5801 191.362 68.0915 191.835 67.7425C192.308 67.3857 192.905 67.2073 193.627 67.2073C193.983 67.2073 194.313 67.2461 194.616 67.3237C194.926 67.4012 195.162 67.4904 195.325 67.5912V67.2306C195.325 66.7885 195.17 66.4356 194.86 66.1719C194.55 65.9004 194.158 65.7647 193.685 65.7647C193.351 65.7647 193.045 65.8384 192.766 65.9857C192.486 66.1254 192.265 66.3231 192.103 66.5791L191.358 66.0206C191.591 65.6639 191.909 65.3847 192.312 65.183C192.723 64.9813 193.177 64.8805 193.673 64.8805C194.48 64.8805 195.112 65.0938 195.569 65.5204C196.035 65.9392 196.268 66.5132 196.268 67.2422V71H195.325V70.1507H195.279C195.108 70.4377 194.852 70.682 194.511 70.8837C194.17 71.0853 193.786 71.1861 193.359 71.1861ZM193.452 70.3136C193.786 70.3136 194.096 70.2283 194.383 70.0576C194.67 69.887 194.899 69.6582 195.069 69.3712C195.24 69.0843 195.325 68.7701 195.325 68.4289C195.139 68.3048 194.91 68.204 194.639 68.1264C194.367 68.0488 194.08 68.0101 193.778 68.0101C193.235 68.0101 192.824 68.1225 192.545 68.3474C192.273 68.5724 192.137 68.8632 192.137 69.22C192.137 69.5457 192.262 69.8095 192.51 70.0111C192.758 70.2128 193.072 70.3136 193.452 70.3136ZM197.643 65.0667H198.586V66.0206H198.632C198.748 65.6949 198.973 65.4273 199.307 65.2179C199.64 65.0007 199.989 64.8921 200.354 64.8921C200.625 64.8921 200.858 64.9309 201.052 65.0085V66.0788C200.804 65.9547 200.525 65.8927 200.214 65.8927C199.927 65.8927 199.664 65.9741 199.423 66.137C199.183 66.2999 198.989 66.5209 198.842 66.8001C198.702 67.0716 198.632 67.3663 198.632 67.6843V71H197.643V65.0667ZM206.781 72.5822C206.215 71.9307 205.726 71.1435 205.315 70.2205C204.912 69.2898 204.71 68.3009 204.71 67.2539C204.71 66.2068 204.912 65.2218 205.315 64.2988C205.726 63.3681 206.215 62.577 206.781 61.9255L207.502 62.4374C206.975 63.0656 206.54 63.8063 206.199 64.6595C205.858 65.5049 205.687 66.3697 205.687 67.2539C205.687 68.138 205.858 69.0067 206.199 69.8599C206.54 70.7053 206.975 71.4421 207.502 72.0703L206.781 72.5822ZM211.065 62.6701H212.182L215.346 71H214.264L213.427 68.7081H209.832L208.994 71H207.912L211.065 62.6701ZM213.089 67.7774L211.984 64.7758L211.647 63.88H211.6L211.274 64.7758L210.169 67.7774H213.089ZM218.11 71.1861C217.396 71.1861 216.85 70.9767 216.47 70.5579C216.097 70.1391 215.911 69.5535 215.911 68.8012V65.0667H216.9V68.6499C216.9 69.2161 217.028 69.6311 217.284 69.8948C217.54 70.1585 217.885 70.2903 218.319 70.2903C218.653 70.2903 218.948 70.2011 219.204 70.0227C219.467 69.8444 219.669 69.6117 219.809 69.3247C219.956 69.0377 220.03 68.7352 220.03 68.4173V65.0667H221.019V71H220.076V70.1391H220.03C219.867 70.4338 219.607 70.682 219.25 70.8837C218.893 71.0853 218.513 71.1861 218.11 71.1861ZM222.479 65.0667H223.421V66.0206H223.468C223.584 65.6949 223.809 65.4273 224.143 65.2179C224.476 65.0007 224.825 64.8921 225.19 64.8921C225.461 64.8921 225.694 64.9309 225.888 65.0085V66.0788C225.64 65.9547 225.36 65.8927 225.05 65.8927C224.763 65.8927 224.5 65.9741 224.259 66.137C224.019 66.2999 223.825 66.5209 223.677 66.8001C223.538 67.0716 223.468 67.3663 223.468 67.6843V71H222.479V65.0667ZM228.511 71.1861C228.077 71.1861 227.689 71.1008 227.348 70.9302C227.006 70.7596 226.743 70.5269 226.556 70.2322C226.37 69.9297 226.277 69.5884 226.277 69.2084C226.277 68.5801 226.514 68.0915 226.987 67.7425C227.46 67.3857 228.057 67.2073 228.779 67.2073C229.135 67.2073 229.465 67.2461 229.767 67.3237C230.078 67.4012 230.314 67.4904 230.477 67.5912V67.2306C230.477 66.7885 230.322 66.4356 230.012 66.1719C229.702 65.9004 229.31 65.7647 228.837 65.7647C228.503 65.7647 228.197 65.8384 227.918 65.9857C227.638 66.1254 227.417 66.3231 227.255 66.5791L226.51 66.0206C226.743 65.6639 227.061 65.3847 227.464 65.183C227.875 64.9813 228.329 64.8805 228.825 64.8805C229.632 64.8805 230.264 65.0938 230.721 65.5204C231.187 65.9392 231.419 66.5132 231.419 67.2422V71H230.477V70.1507H230.431C230.26 70.4377 230.004 70.682 229.663 70.8837C229.321 71.0853 228.938 71.1861 228.511 71.1861ZM228.604 70.3136C228.938 70.3136 229.248 70.2283 229.535 70.0576C229.822 69.887 230.051 69.6582 230.221 69.3712C230.392 69.0843 230.477 68.7701 230.477 68.4289C230.291 68.3048 230.062 68.204 229.791 68.1264C229.519 68.0488 229.232 68.0101 228.93 68.0101C228.387 68.0101 227.976 68.1225 227.697 68.3474C227.425 68.5724 227.289 68.8632 227.289 69.22C227.289 69.5457 227.414 69.8095 227.662 70.0111C227.91 70.2128 228.224 70.3136 228.604 70.3136ZM232.795 65.0667H233.738V65.9392H233.784C233.947 65.6445 234.207 65.3963 234.564 65.1946C234.92 64.9852 235.3 64.8805 235.704 64.8805C236.417 64.8805 236.96 65.0899 237.332 65.5088C237.713 65.9198 237.903 66.4821 237.903 67.1957V71H236.914V67.3469C236.914 66.7962 236.782 66.3968 236.518 66.1486C236.254 65.9004 235.894 65.7763 235.436 65.7763C235.118 65.7763 234.831 65.8655 234.575 66.0439C234.327 66.2223 234.133 66.4589 233.994 66.7536C233.854 67.0406 233.784 67.343 233.784 67.661V71H232.795V65.0667ZM241.866 73.6991C241.168 73.6991 240.59 73.5362 240.132 73.2105C239.682 72.8847 239.38 72.493 239.225 72.0354L240.121 71.6515C240.253 71.9928 240.47 72.2681 240.772 72.4775C241.082 72.6947 241.447 72.8033 241.866 72.8033C242.479 72.8033 242.952 72.6249 243.285 72.2681C243.626 71.9113 243.797 71.4072 243.797 70.7557V70.0925H243.751C243.557 70.395 243.281 70.6432 242.925 70.8371C242.575 71.0233 242.176 71.1163 241.726 71.1163C241.214 71.1163 240.745 70.9845 240.318 70.7208C239.9 70.4571 239.566 70.0887 239.318 69.6156C239.07 69.1424 238.946 68.6034 238.946 67.9984C238.946 67.4012 239.07 66.8661 239.318 66.3929C239.566 65.9121 239.9 65.5398 240.318 65.2761C240.745 65.0124 241.214 64.8805 241.726 64.8805C242.176 64.8805 242.575 64.9775 242.925 65.1714C243.281 65.3575 243.557 65.6057 243.751 65.9159H243.797V65.0667H244.739V70.7673C244.739 71.7213 244.476 72.4465 243.948 72.9429C243.421 73.447 242.727 73.6991 241.866 73.6991ZM241.866 70.2205C242.223 70.2205 242.544 70.1313 242.831 69.9529C243.126 69.7746 243.359 69.5186 243.529 69.1851C243.708 68.8516 243.797 68.456 243.797 67.9984C243.797 67.5331 243.708 67.1336 243.529 66.8001C243.359 66.4666 243.126 66.2145 242.831 66.0439C242.544 65.8655 242.223 65.7763 241.866 65.7763C241.509 65.7763 241.183 65.8655 240.889 66.0439C240.594 66.2223 240.357 66.4783 240.179 66.8118C240.008 67.1453 239.923 67.5408 239.923 67.9984C239.923 68.456 240.008 68.8555 240.179 69.1967C240.357 69.5302 240.594 69.7862 240.889 69.9646C241.183 70.1352 241.509 70.2205 241.866 70.2205ZM248.041 71.1861C247.607 71.1861 247.219 71.1008 246.878 70.9302C246.536 70.7596 246.273 70.5269 246.087 70.2322C245.9 69.9297 245.807 69.5884 245.807 69.2084C245.807 68.5801 246.044 68.0915 246.517 67.7425C246.99 67.3857 247.587 67.2073 248.309 67.2073C248.665 67.2073 248.995 67.2461 249.298 67.3237C249.608 67.4012 249.844 67.4904 250.007 67.5912V67.2306C250.007 66.7885 249.852 66.4356 249.542 66.1719C249.232 65.9004 248.84 65.7647 248.367 65.7647C248.033 65.7647 247.727 65.8384 247.448 65.9857C247.169 66.1254 246.948 66.3231 246.785 66.5791L246.04 66.0206C246.273 65.6639 246.591 65.3847 246.994 65.183C247.405 64.9813 247.859 64.8805 248.355 64.8805C249.162 64.8805 249.794 65.0938 250.252 65.5204C250.717 65.9392 250.95 66.5132 250.95 67.2422V71H250.007V70.1507H249.961C249.79 70.4377 249.534 70.682 249.193 70.8837C248.852 71.0853 248.468 71.1861 248.041 71.1861ZM248.134 70.3136C248.468 70.3136 248.778 70.2283 249.065 70.0576C249.352 69.887 249.581 69.6582 249.751 69.3712C249.922 69.0843 250.007 68.7701 250.007 68.4289C249.821 68.3048 249.592 68.204 249.321 68.1264C249.049 68.0488 248.762 68.0101 248.46 68.0101C247.917 68.0101 247.506 68.1225 247.227 68.3474C246.955 68.5724 246.82 68.8632 246.82 69.22C246.82 69.5457 246.944 69.8095 247.192 70.0111C247.44 70.2128 247.754 70.3136 248.134 70.3136ZM255.339 71.1861C254.889 71.1861 254.482 71.0853 254.117 70.8837C253.76 70.6742 253.493 70.4222 253.314 70.1274H253.268V71H252.325V62.6701H253.314V65.1248L253.268 65.9508H253.314C253.493 65.6484 253.76 65.3963 254.117 65.1946C254.482 64.9852 254.889 64.8805 255.339 64.8805C255.866 64.8805 256.347 65.0162 256.781 65.2877C257.215 65.5592 257.557 65.9353 257.805 66.4162C258.053 66.8971 258.177 67.4361 258.177 68.0333C258.177 68.6383 258.053 69.1812 257.805 69.6621C257.557 70.1352 257.215 70.5075 256.781 70.779C256.347 71.0504 255.866 71.1861 255.339 71.1861ZM255.222 70.2903C255.563 70.2903 255.885 70.1973 256.188 70.0111C256.49 69.825 256.731 69.5613 256.909 69.22C257.095 68.871 257.188 68.4754 257.188 68.0333C257.188 67.5912 257.095 67.1996 256.909 66.8583C256.731 66.5093 256.49 66.2417 256.188 66.0555C255.885 65.8694 255.563 65.7763 255.222 65.7763C254.881 65.7763 254.559 65.8694 254.257 66.0555C253.954 66.2417 253.714 66.5054 253.535 66.8467C253.357 67.1879 253.268 67.5835 253.268 68.0333C253.268 68.4832 253.357 68.8787 253.535 69.22C253.714 69.5613 253.954 69.825 254.257 70.0111C254.559 70.1973 254.881 70.2903 255.222 70.2903ZM261.22 71.1861C260.786 71.1861 260.398 71.1008 260.057 70.9302C259.716 70.7596 259.452 70.5269 259.266 70.2322C259.08 69.9297 258.987 69.5884 258.987 69.2084C258.987 68.5801 259.223 68.0915 259.696 67.7425C260.169 67.3857 260.767 67.2073 261.488 67.2073C261.845 67.2073 262.174 67.2461 262.477 67.3237C262.787 67.4012 263.024 67.4904 263.186 67.5912V67.2306C263.186 66.7885 263.031 66.4356 262.721 66.1719C262.411 65.9004 262.019 65.7647 261.546 65.7647C261.213 65.7647 260.906 65.8384 260.627 65.9857C260.348 66.1254 260.127 66.3231 259.964 66.5791L259.219 66.0206C259.452 65.6639 259.77 65.3847 260.173 65.183C260.584 64.9813 261.038 64.8805 261.534 64.8805C262.341 64.8805 262.973 65.0938 263.431 65.5204C263.896 65.9392 264.129 66.5132 264.129 67.2422V71H263.186V70.1507H263.14C262.969 70.4377 262.713 70.682 262.372 70.8837C262.031 71.0853 261.647 71.1861 261.22 71.1861ZM261.313 70.3136C261.647 70.3136 261.957 70.2283 262.244 70.0576C262.531 69.887 262.76 69.6582 262.93 69.3712C263.101 69.0843 263.186 68.7701 263.186 68.4289C263 68.3048 262.771 68.204 262.5 68.1264C262.229 68.0488 261.942 68.0101 261.639 68.0101C261.096 68.0101 260.685 68.1225 260.406 68.3474C260.134 68.5724 259.999 68.8632 259.999 69.22C259.999 69.5457 260.123 69.8095 260.371 70.0111C260.619 70.2128 260.933 70.3136 261.313 70.3136ZM267.961 71.1861C267.433 71.1861 266.952 71.0504 266.518 70.779C266.091 70.5075 265.754 70.1352 265.506 69.6621C265.258 69.1812 265.134 68.6383 265.134 68.0333C265.134 67.4361 265.258 66.8971 265.506 66.4162C265.754 65.9353 266.091 65.5592 266.518 65.2877C266.952 65.0162 267.433 64.8805 267.961 64.8805C268.418 64.8805 268.825 64.9852 269.182 65.1946C269.539 65.3963 269.81 65.6484 269.997 65.9508H270.043L269.997 65.1248V62.6701H270.985V71H270.043V70.1274H269.997C269.81 70.4222 269.539 70.6742 269.182 70.8837C268.825 71.0853 268.418 71.1861 267.961 71.1861ZM268.077 70.2903C268.426 70.2903 268.748 70.1973 269.043 70.0111C269.345 69.825 269.585 69.5613 269.764 69.22C269.95 68.8787 270.043 68.4832 270.043 68.0333C270.043 67.5835 269.95 67.1879 269.764 66.8467C269.585 66.5054 269.345 66.2417 269.043 66.0555C268.748 65.8694 268.426 65.7763 268.077 65.7763C267.736 65.7763 267.414 65.8694 267.111 66.0555C266.809 66.2417 266.565 66.5093 266.378 66.8583C266.2 67.1996 266.111 67.5912 266.111 68.0333C266.111 68.4754 266.2 68.871 266.378 69.22C266.565 69.5613 266.809 69.825 267.111 70.0111C267.414 70.1973 267.736 70.2903 268.077 70.2903ZM271.946 72.0703C272.473 71.4421 272.908 70.7053 273.249 69.8599C273.59 69.0067 273.761 68.138 273.761 67.2539C273.761 66.3697 273.59 65.5049 273.249 64.6595C272.908 63.8063 272.473 63.0656 271.946 62.4374L272.667 61.9255C273.233 62.577 273.718 63.3681 274.122 64.2988C274.533 65.2218 274.738 66.2068 274.738 67.2539C274.738 68.3009 274.533 69.2898 274.122 70.2205C273.718 71.1435 273.233 71.9307 272.667 72.5822L271.946 72.0703Z" fill="#757575"/>
<defs>
<linearGradient id="paint0_linear_2_2033" x1="9.18813" y1="18.3002" x2="32.4799" y2="41.5833" gradientUnits="userSpaceOnUse">
<stop stop-color="white" stop-opacity="0.2"/>
<stop offset="0.16" stop-color="white" stop-opacity="0.14"/>
<stop offset="0.44" stop-color="white" stop-opacity="0.06"/>
<stop offset="0.72" stop-color="white" stop-opacity="0.02"/>
<stop offset="1" stop-color="white" stop-opacity="0"/>
</linearGradient>
<linearGradient id="paint1_linear_2_2033" x1="0.261475" y1="29.9486" x2="18.9842" y2="29.9486" gradientUnits="userSpaceOnUse">
<stop stop-color="white" stop-opacity="0.1"/>
<stop offset="1" stop-color="white" stop-opacity="0"/>
</linearGradient>
<linearGradient id="paint2_linear_2_2033" x1="0.376183" y1="56.3537" x2="18.983" y2="56.3537" gradientUnits="userSpaceOnUse">
<stop stop-color="white" stop-opacity="0.1"/>
<stop offset="1" stop-color="white" stop-opacity="0"/>
</linearGradient>
<linearGradient id="paint3_linear_2_2033" x1="7.55438" y1="26.1817" x2="18.983" y2="26.1817" gradientUnits="userSpaceOnUse">
<stop stop-color="white" stop-opacity="0.1"/>
<stop offset="1" stop-color="white" stop-opacity="0"/>
</linearGradient>
<linearGradient id="paint4_linear_2_2033" x1="52.9068" y1="29.9485" x2="71.5468" y2="29.9485" gradientUnits="userSpaceOnUse">
<stop stop-color="white" stop-opacity="0.1"/>
<stop offset="1" stop-color="white" stop-opacity="0"/>
</linearGradient>
<linearGradient id="paint5_linear_2_2033" x1="70.7365" y1="29.9509" x2="71.5468" y2="29.9509" gradientUnits="userSpaceOnUse">
<stop stop-color="white" stop-opacity="0.1"/>
<stop offset="1" stop-color="white" stop-opacity="0"/>
</linearGradient>
<linearGradient id="paint6_linear_2_2033" x1="53.2487" y1="59.7028" x2="71.2203" y2="59.7028" gradientUnits="userSpaceOnUse">
<stop stop-color="white" stop-opacity="0.1"/>
<stop offset="1" stop-color="white" stop-opacity="0"/>
</linearGradient>
</defs>
</svg>
