<svg width="45" height="45" viewBox="0 0 45 45" fill="none" xmlns="http://www.w3.org/2000/svg">
<g clip-path="url(#clip0_157_403)">
<path d="M12.4927 0C12.9015 0 13.2936 0.162407 13.5827 0.451493C13.8718 0.74058 14.0342 1.13267 14.0342 1.5415V4.42409H30.5877V1.56131C30.5877 1.15248 30.7501 0.760399 31.0392 0.471313C31.3282 0.182226 31.7203 0.0198192 32.1292 0.0198192C32.538 0.0198192 32.9301 0.182226 33.2192 0.471313C33.5082 0.760399 33.6707 1.15248 33.6707 1.56131V4.42409H39.6384C40.8061 4.42409 41.9261 4.88781 42.752 5.71329C43.5779 6.53878 44.0421 7.65846 44.0427 8.82616V39.6406C44.0421 40.8083 43.5779 41.928 42.752 42.7535C41.9261 43.579 40.8061 44.0427 39.6384 44.0427H4.40427C3.23657 44.0427 2.11666 43.579 1.29076 42.7535C0.464862 41.928 0.000583852 40.8083 0 39.6406L0 8.82616C0.000583852 7.65846 0.464862 6.53878 1.29076 5.71329C2.11666 4.88781 3.23657 4.42409 4.40427 4.42409H10.9512V1.53929C10.9518 1.13084 11.1145 0.739325 11.4035 0.450715C11.6925 0.162104 12.0843 -4.16784e-07 12.4927 0V0ZM3.08299 17.0489V39.6406C3.08299 39.8142 3.11717 39.986 3.18357 40.1463C3.24997 40.3066 3.34729 40.4522 3.46998 40.5749C3.59268 40.6976 3.73833 40.795 3.89864 40.8614C4.05894 40.9278 4.23076 40.9619 4.40427 40.9619H39.6384C39.812 40.9619 39.9838 40.9278 40.1441 40.8614C40.3044 40.795 40.45 40.6976 40.5727 40.5749C40.6954 40.4522 40.7927 40.3066 40.8591 40.1463C40.9255 39.986 40.9597 39.8142 40.9597 39.6406V17.0798L3.08299 17.0489ZM14.6816 32.193V35.8618H11.0107V32.193H14.6816ZM23.8557 32.193V35.8618H20.187V32.193H23.8557ZM33.032 32.193V35.8618H29.3611V32.193H33.032ZM14.6816 23.4351V27.1039H11.0107V23.4351H14.6816ZM23.8557 23.4351V27.1039H20.187V23.4351H23.8557ZM33.032 23.4351V27.1039H29.3611V23.4351H33.032ZM10.9512 7.50488H4.40427C4.23076 7.50488 4.05894 7.53905 3.89864 7.60545C3.73833 7.67186 3.59268 7.76918 3.46998 7.89187C3.34729 8.01457 3.24997 8.16022 3.18357 8.32053C3.11717 8.48083 3.08299 8.65265 3.08299 8.82616V13.9681L40.9597 13.999V8.82616C40.9597 8.65265 40.9255 8.48083 40.8591 8.32053C40.7927 8.16022 40.6954 8.01457 40.5727 7.89187C40.45 7.76918 40.3044 7.67186 40.1441 7.60545C39.9838 7.53905 39.812 7.50488 39.6384 7.50488H33.6707V9.55066C33.6707 9.95949 33.5082 10.3516 33.2192 10.6407C32.9301 10.9298 32.538 11.0922 32.1292 11.0922C31.7203 11.0922 31.3282 10.9298 31.0392 10.6407C30.7501 10.3516 30.5877 9.95949 30.5877 9.55066V7.50488H14.0342V9.53084C14.0342 9.93967 13.8718 10.3318 13.5827 10.6208C13.2936 10.9099 12.9015 11.0723 12.4927 11.0723C12.0839 11.0723 11.6918 10.9099 11.4027 10.6208C11.1136 10.3318 10.9512 9.93967 10.9512 9.53084V7.50488Z" fill="white"/>
</g>
<defs>
<clipPath id="clip0_157_403">
<rect width="44.0427" height="44.0427" fill="white"/>
</clipPath>
</defs>
</svg>
