<svg width="314" height="101" viewBox="0 0 314 101" fill="none" xmlns="http://www.w3.org/2000/svg">
<rect x="7" y="8" width="306" height="92" rx="6" fill="white" stroke="white" stroke-width="2"/>
<rect width="308" height="94" rx="10" fill="#4285F4"/>
<path d="M51.0856 36.392V45.464H56.4136C57.7576 45.464 58.8976 45.032 59.8336 44.168C60.7696 43.28 61.2376 42.188 61.2376 40.892C61.2376 39.692 60.7936 38.648 59.9056 37.76C59.0416 36.848 57.9496 36.392 56.6296 36.392H51.0856ZM51.0856 59H47.7736V33.224H56.5576C58.7896 33.224 60.6856 33.968 62.2456 35.456C63.8296 36.92 64.6216 38.732 64.6216 40.892C64.6216 42.668 64.0336 44.252 62.8576 45.644C61.7056 47.012 60.2416 47.888 58.4656 48.272L58.3936 48.38L65.6296 58.856V59H61.7056L54.7576 48.56H51.0856V59ZM75.5786 59.576C72.9866 59.576 70.8506 58.688 69.1706 56.912C67.4906 55.136 66.6506 52.892 66.6506 50.18C66.6506 47.492 67.4666 45.26 69.0986 43.484C70.7306 41.684 72.8186 40.784 75.3626 40.784C77.9786 40.784 80.0546 41.636 81.5906 43.34C83.1506 45.02 83.9306 47.384 83.9306 50.432L83.8946 50.792H70.0346C70.0826 52.52 70.6586 53.912 71.7626 54.968C72.8666 56.024 74.1866 56.552 75.7226 56.552C77.8346 56.552 79.4906 55.496 80.6906 53.384L83.6426 54.824C82.8506 56.312 81.7466 57.476 80.3306 58.316C78.9386 59.156 77.3546 59.576 75.5786 59.576ZM70.2866 48.056H80.4026C80.3066 46.832 79.8026 45.824 78.8906 45.032C78.0026 44.216 76.8026 43.808 75.2906 43.808C74.0426 43.808 72.9626 44.192 72.0506 44.96C71.1626 45.728 70.5746 46.76 70.2866 48.056ZM95.0551 56.552C96.6871 56.552 98.0191 55.964 99.0511 54.788C100.131 53.612 100.671 52.076 100.671 50.18C100.671 48.332 100.131 46.808 99.0511 45.608C97.9951 44.408 96.6631 43.808 95.0551 43.808C93.4711 43.808 92.1391 44.408 91.0591 45.608C89.9791 46.808 89.4391 48.332 89.4391 50.18C89.4391 52.052 89.9791 53.576 91.0591 54.752C92.1391 55.952 93.4711 56.552 95.0551 56.552ZM94.9471 67.352C93.9631 67.352 93.0391 67.22 92.1751 66.956C91.3111 66.716 90.5191 66.368 89.7991 65.912C89.1031 65.456 88.5031 64.916 87.9991 64.292C87.4951 63.668 87.1111 62.972 86.8471 62.204L89.9791 60.908C90.3391 61.94 90.9631 62.768 91.8511 63.392C92.7391 64.016 93.7711 64.328 94.9471 64.328C96.7471 64.328 98.1511 63.788 99.1591 62.708C100.167 61.628 100.671 60.14 100.671 58.244V56.552H100.527C99.9031 57.488 99.0511 58.232 97.9711 58.784C96.9151 59.312 95.7631 59.576 94.5151 59.576C92.2111 59.576 90.2311 58.676 88.5751 56.876C86.9431 55.028 86.1271 52.796 86.1271 50.18C86.1271 47.564 86.9431 45.344 88.5751 43.52C90.2311 41.696 92.2111 40.784 94.5151 40.784C95.7631 40.784 96.9151 41.06 97.9711 41.612C99.0511 42.14 99.9031 42.872 100.527 43.808H100.671V41.36H103.839V58.244C103.839 61.076 103.035 63.296 101.427 64.904C99.7951 66.536 97.6351 67.352 94.9471 67.352ZM112.161 35.276C112.161 35.924 111.933 36.476 111.477 36.932C111.021 37.388 110.469 37.616 109.821 37.616C109.173 37.616 108.621 37.388 108.165 36.932C107.709 36.476 107.481 35.924 107.481 35.276C107.481 34.628 107.709 34.076 108.165 33.62C108.621 33.164 109.173 32.936 109.821 32.936C110.469 32.936 111.021 33.164 111.477 33.62C111.933 34.076 112.161 34.628 112.161 35.276ZM111.477 41.36V59H108.165V41.36H111.477ZM129.287 54.104C129.287 55.64 128.615 56.936 127.271 57.992C125.927 59.048 124.235 59.576 122.195 59.576C120.419 59.576 118.859 59.12 117.515 58.208C116.171 57.272 115.211 56.048 114.635 54.536L117.587 53.276C118.019 54.332 118.643 55.16 119.459 55.76C120.299 56.336 121.211 56.624 122.195 56.624C123.251 56.624 124.127 56.396 124.823 55.94C125.543 55.484 125.903 54.944 125.903 54.32C125.903 53.192 125.039 52.364 123.311 51.836L120.287 51.08C116.855 50.216 115.139 48.56 115.139 46.112C115.139 44.504 115.787 43.22 117.083 42.26C118.403 41.276 120.083 40.784 122.123 40.784C123.683 40.784 125.087 41.156 126.335 41.9C127.607 42.644 128.495 43.64 128.999 44.888L126.047 46.112C125.711 45.368 125.159 44.792 124.391 44.384C123.647 43.952 122.807 43.736 121.871 43.736C121.007 43.736 120.227 43.952 119.531 44.384C118.859 44.816 118.523 45.344 118.523 45.968C118.523 46.976 119.471 47.696 121.367 48.128L124.031 48.812C127.535 49.676 129.287 51.44 129.287 54.104ZM138.979 59.288C137.539 59.288 136.339 58.844 135.379 57.956C134.443 57.068 133.963 55.832 133.939 54.248V44.384H130.843V41.36H133.939V35.96H137.251V41.36H141.571V44.384H137.251V53.168C137.251 54.344 137.479 55.148 137.935 55.58C138.391 55.988 138.907 56.192 139.483 56.192C139.747 56.192 139.999 56.168 140.239 56.12C140.503 56.048 140.743 55.964 140.959 55.868L142.003 58.82C141.139 59.132 140.131 59.288 138.979 59.288ZM152.465 59.576C149.873 59.576 147.737 58.688 146.057 56.912C144.377 55.136 143.537 52.892 143.537 50.18C143.537 47.492 144.353 45.26 145.985 43.484C147.617 41.684 149.705 40.784 152.249 40.784C154.865 40.784 156.941 41.636 158.477 43.34C160.037 45.02 160.817 47.384 160.817 50.432L160.781 50.792H146.921C146.969 52.52 147.545 53.912 148.649 54.968C149.753 56.024 151.073 56.552 152.609 56.552C154.721 56.552 156.377 55.496 157.577 53.384L160.529 54.824C159.737 56.312 158.633 57.476 157.217 58.316C155.825 59.156 154.241 59.576 152.465 59.576ZM147.173 48.056H157.289C157.193 46.832 156.689 45.824 155.777 45.032C154.889 44.216 153.689 43.808 152.177 43.808C150.929 43.808 149.849 44.192 148.937 44.96C148.049 45.728 147.461 46.76 147.173 48.056ZM167.158 59H163.846V41.36H167.014V44.24H167.158C167.494 43.304 168.178 42.512 169.21 41.864C170.266 41.192 171.298 40.856 172.306 40.856C173.266 40.856 174.082 41 174.754 41.288L173.746 44.492C173.338 44.324 172.69 44.24 171.802 44.24C170.554 44.24 169.462 44.744 168.526 45.752C167.614 46.76 167.158 47.936 167.158 49.28V59ZM188.722 59H185.41V33.224H189.442L201.97 53.276H202.114L201.97 48.308V33.224H205.282V59H201.826L188.722 37.976H188.578L188.722 42.944V59ZM208.893 50.18C208.893 47.468 209.745 45.224 211.449 43.448C213.177 41.672 215.349 40.784 217.965 40.784C220.581 40.784 222.741 41.672 224.445 43.448C226.173 45.224 227.037 47.468 227.037 50.18C227.037 52.916 226.173 55.16 224.445 56.912C222.741 58.688 220.581 59.576 217.965 59.576C215.349 59.576 213.177 58.688 211.449 56.912C209.745 55.136 208.893 52.892 208.893 50.18ZM212.205 50.18C212.205 52.076 212.757 53.612 213.861 54.788C214.965 55.964 216.333 56.552 217.965 56.552C219.597 56.552 220.965 55.964 222.069 54.788C223.173 53.612 223.725 52.076 223.725 50.18C223.725 48.308 223.173 46.784 222.069 45.608C220.941 44.408 219.573 43.808 217.965 43.808C216.357 43.808 214.989 44.408 213.861 45.608C212.757 46.784 212.205 48.308 212.205 50.18ZM254.678 41.36L248.99 59H245.606L241.214 45.464L236.858 59H233.51L227.822 41.36H231.278L235.202 54.68H235.238L239.594 41.36H243.014L247.37 54.68H247.406L251.294 41.36H254.678Z" fill="white"/>
</svg>
