<svg width="34" height="34" viewBox="0 0 34 34" fill="none" xmlns="http://www.w3.org/2000/svg">
<circle cx="16.6863" cy="16.6863" r="16.6863" fill="#D5D5D5"/>
<path d="M23.7117 12.2839C23.2061 12.5079 22.6629 12.6593 22.0919 12.7278C22.6811 12.3752 23.1219 11.8203 23.332 11.1666C22.7785 11.4954 22.1726 11.7269 21.5408 11.8509C21.1159 11.3973 20.5532 11.0966 19.9399 10.9955C19.3266 10.8945 18.6972 10.9988 18.1492 11.2921C17.6013 11.5855 17.1655 12.0516 16.9096 12.618C16.6537 13.1844 16.5919 13.8194 16.7339 14.4245C15.6122 14.3682 14.5149 14.0767 13.5132 13.5688C12.5114 13.061 11.6277 12.3482 10.9193 11.4767C10.6771 11.8945 10.5378 12.379 10.5378 12.8949C10.5375 13.3594 10.6519 13.8167 10.8708 14.2264C11.0897 14.636 11.4063 14.9853 11.7925 15.2433C11.3446 15.229 10.9065 15.108 10.5148 14.8902V14.9265C10.5147 15.578 10.7401 16.2093 11.1526 16.7135C11.565 17.2177 12.1392 17.5637 12.7778 17.6927C12.3622 17.8052 11.9266 17.8218 11.5037 17.7412C11.6838 18.3017 12.0347 18.7918 12.5073 19.143C12.9799 19.4942 13.5504 19.6888 14.1391 19.6996C13.1398 20.484 11.9057 20.9095 10.6353 20.9076C10.4103 20.9077 10.1854 20.8946 9.96191 20.8683C11.2514 21.6974 12.7525 22.1374 14.2856 22.1357C19.4752 22.1357 22.3123 17.8375 22.3123 14.1096C22.3123 13.9885 22.3093 13.8662 22.3038 13.7451C22.8556 13.346 23.332 12.8518 23.7105 12.2857L23.7117 12.2839Z" fill="black"/>
</svg>
