<svg width="45" height="46" viewBox="0 0 45 46" fill="none" xmlns="http://www.w3.org/2000/svg">
<path d="M2.22913 2.55332C2.22913 2.22178 2.34568 1.93835 2.50259 1.75819C2.65381 1.58458 2.81106 1.53507 2.92342 1.53507H42.2895C42.4018 1.53507 42.5591 1.58458 42.7103 1.75819C42.8672 1.93834 42.9838 2.22178 42.9838 2.55332V11.9484C42.9838 12.6947 42.6377 13.4811 41.9469 14.4085C41.4784 15.0375 40.9702 15.5891 40.4242 16.1818C40.1225 16.5093 39.8092 16.8493 39.4848 17.2218C38.2062 18.6898 37.5163 20.6418 37.5163 22.641C37.5163 24.6403 38.2062 26.5922 39.4848 28.0602C39.8092 28.4328 40.1225 28.7728 40.4242 29.1003C40.9702 29.6929 41.4784 30.2446 41.9469 30.8736C42.6377 31.801 42.9838 32.5874 42.9838 33.3337V42.7287C42.9838 43.0603 42.8672 43.3437 42.7103 43.5239C42.5591 43.6975 42.4019 43.747 42.2895 43.747H2.92342C2.81106 43.747 2.65381 43.6975 2.50259 43.5239C2.34569 43.3437 2.22913 43.0603 2.22913 42.7287V2.55332ZM16.1846 39.5522C16.4877 39.3058 16.8214 39.1939 17.1389 39.1939C17.4565 39.1939 17.7902 39.3058 18.0933 39.5522C18.1698 39.6144 18.2513 39.6817 18.3371 39.7525C18.7599 40.1013 19.287 40.5362 19.8372 40.8815C20.5246 41.3129 21.4014 41.7105 22.4477 41.7105H35.3903C38.8172 41.7105 41.5952 38.9325 41.5952 35.5056C41.5952 33.2339 40.3014 31.3665 39.007 30.0482C38.3991 29.4291 37.8636 28.7035 37.4233 27.8887C36.5786 26.3257 36.1238 24.5075 36.1238 22.641C36.1238 20.7745 36.5786 18.9563 37.4233 17.3934C37.8636 16.5786 38.3991 15.853 39.007 15.2339C40.3014 13.9156 41.5952 12.0481 41.5952 9.77648C41.5952 6.34961 38.8172 3.57158 35.3903 3.57158H22.4477C21.4014 3.57158 20.5246 3.96913 19.8372 4.40052C19.287 4.74589 18.7599 5.18079 18.3371 5.52959C18.2513 5.60039 18.1698 5.66764 18.0933 5.72987C17.7902 5.97631 17.4565 6.08814 17.1389 6.08814C16.8214 6.08814 16.4877 5.97631 16.1846 5.72987C16.1081 5.66764 16.0266 5.60039 15.9408 5.5296C15.518 5.1808 14.9909 4.7459 14.4407 4.40052C13.7533 3.96913 12.8764 3.57158 11.8302 3.57158H10.2464C6.58546 3.57158 3.61772 6.53932 3.61772 10.2002V35.0818C3.61772 38.7427 6.58546 41.7105 10.2464 41.7105H11.8302C12.8764 41.7105 13.7533 41.3129 14.4407 40.8815C14.9909 40.5362 15.518 40.1013 15.9408 39.7525C16.0266 39.6817 16.1081 39.6144 16.1846 39.5522ZM17.1389 18.6374C16.7366 18.6374 16.3012 18.4556 15.9449 18.0465C15.5829 17.6309 15.3511 17.0281 15.3511 16.3636C15.3511 15.6991 15.5829 15.0963 15.9449 14.6807C16.3012 14.2717 16.7366 14.0899 17.1389 14.0899C17.5413 14.0899 17.9767 14.2717 18.333 14.6807C18.695 15.0963 18.9267 15.6991 18.9267 16.3636C18.9267 17.0281 18.695 17.6309 18.333 18.0465C17.9767 18.4556 17.5413 18.6374 17.1389 18.6374ZM17.1389 31.1922C16.7366 31.1922 16.3012 31.0104 15.9449 30.6013C15.5829 30.1857 15.3511 29.583 15.3511 28.9184C15.3511 28.2539 15.5829 27.6512 15.9449 27.2356C16.3012 26.8265 16.7366 26.6447 17.1389 26.6447C17.5413 26.6447 17.9767 26.8265 18.333 27.2356C18.695 27.6512 18.9267 28.2539 18.9267 28.9184C18.9267 29.583 18.695 30.1857 18.333 30.6013C17.9767 31.0104 17.5413 31.1922 17.1389 31.1922Z" fill="#00DBA2" stroke="url(#paint0_linear_1_53)" stroke-width="2.98542"/>
<defs>
<linearGradient id="paint0_linear_1_53" x1="22.6065" y1="0.0423584" x2="22.6065" y2="45.2397" gradientUnits="userSpaceOnUse">
<stop stop-color="#4285F4"/>
<stop offset="0.34" stop-color="#54A7ED"/>
<stop offset="0.705" stop-color="#1CE9B6"/>
<stop offset="1" stop-color="#00B698"/>
</linearGradient>
</defs>
</svg>
