<svg width="34" height="33" viewBox="0 0 34 33" fill="none" xmlns="http://www.w3.org/2000/svg">
<path d="M2.2922 12.6458H31.7919C32.8492 12.6458 33.7086 11.6194 33.7086 10.3566C33.7086 9.90249 33.594 9.46083 33.3856 9.0876L29.4482 2.03347C28.9846 1.19992 28.2086 0.702271 27.3701 0.702271H6.71403C5.8807 0.702271 5.09946 1.19992 4.63592 2.03347L0.698463 9.08138C0.490131 9.46083 0.375549 9.9025 0.375549 10.3504C0.375549 11.6194 1.23492 12.6458 2.2922 12.6458ZM5.3755 14.6363C4.45503 14.6363 3.70885 15.3825 3.70885 16.303V29.5657C3.70885 31.2142 4.82863 32.5516 6.20882 32.5516H17.8754C19.2556 32.5516 20.3753 31.2142 20.3753 29.5657V16.303C20.3753 15.3825 19.6292 14.6363 18.7087 14.6363V14.6363C17.7882 14.6363 17.042 15.3825 17.042 16.303V22.7374C17.042 23.7602 16.213 24.5893 15.1902 24.5893H8.89398C7.87124 24.5893 7.04215 23.7602 7.04215 22.7374V16.303C7.04215 15.3825 6.29596 14.6363 5.3755 14.6363V14.6363ZM28.7086 14.6363C27.7881 14.6363 27.042 15.3825 27.042 16.303V30.561C27.042 31.6621 27.7867 32.5516 28.7086 32.5516C29.6305 32.5516 30.3753 31.6621 30.3753 30.561V16.303C30.3753 15.3825 29.6291 14.6363 28.7086 14.6363V14.6363Z" fill="#4285F4"/>
</svg>
