<svg width="35" height="33" viewBox="0 0 35 33" fill="none" xmlns="http://www.w3.org/2000/svg">
<path d="M12.1639 0.445014C11.7676 0.430698 11.3775 0.541959 11.0542 0.761478C10.731 0.980996 10.4928 1.29645 10.3767 1.65875L0.994654 30.046C0.894886 30.3474 0.883638 30.6691 0.962134 30.9762C1.04063 31.2833 1.20586 31.5639 1.4398 31.7874C1.67375 32.0109 1.96743 32.1688 2.28883 32.2438C2.61024 32.3188 2.94702 32.3081 3.26247 32.2127L32.9736 23.2487C33.3528 23.1386 33.683 22.9114 33.9126 22.6027C34.1421 22.294 34.258 21.9213 34.2421 21.5429C33.559 10.1911 24.0432 1.09936 12.1639 0.445014ZM12.5976 24.5799C12.1228 24.5797 11.6528 24.4903 11.2142 24.3166C10.7757 24.1429 10.3773 23.8884 10.0417 23.5676C9.70607 23.2468 9.43989 22.866 9.25833 22.4469C9.07677 22.0278 8.98339 21.5787 8.98351 21.1251C8.98362 20.6715 9.07725 20.2224 9.25902 19.8034C9.4408 19.3844 9.70718 19.0037 10.0429 18.6831C10.3787 18.3625 10.7773 18.1081 11.2159 17.9347C11.6545 17.7612 12.1246 17.672 12.5994 17.6721C13.5581 17.6723 14.4775 18.0364 15.1553 18.6843C15.833 19.3322 16.2136 20.2108 16.2134 21.1268C16.2132 22.0429 15.8321 22.9213 15.154 23.5688C14.4759 24.2164 13.5563 24.5801 12.5976 24.5799ZM23.4397 21.1268C22.965 21.1267 22.4949 21.0373 22.0564 20.8636C21.6178 20.6899 21.2194 20.4354 20.8838 20.1146C20.5482 19.7938 20.282 19.413 20.1005 18.9939C19.9189 18.5748 19.8255 18.1257 19.8256 17.6721C19.8258 17.2185 19.9194 16.7694 20.1012 16.3504C20.2829 15.9314 20.5493 15.5507 20.8851 15.2301C21.2208 14.9094 21.6194 14.6551 22.0581 14.4817C22.4967 14.3082 22.9668 14.219 23.4415 14.2191C24.4002 14.2193 25.3196 14.5834 25.9974 15.2313C26.6752 15.8792 27.0558 16.7578 27.0556 17.6738C27.0553 18.5899 26.6742 19.4683 25.9961 20.1158C25.318 20.7634 24.3984 21.1271 23.4397 21.1268Z" fill="#EA4335"/>
</svg>
