<svg width="34" height="28" viewBox="0 0 34 28" fill="none" xmlns="http://www.w3.org/2000/svg">
<path d="M9.4723 9.85988L4.50727 13.997L9.4723 18.134C9.63696 18.269 9.77328 18.4352 9.8734 18.6231C9.97351 18.811 10.0354 19.0168 10.0556 19.2287C10.0758 19.4407 10.0538 19.6545 9.9909 19.8579C9.92802 20.0613 9.82549 20.2502 9.68924 20.4138C9.55298 20.5774 9.38569 20.7124 9.19701 20.811C9.00833 20.9096 8.80199 20.9699 8.5899 20.9883C8.37781 21.0068 8.16416 20.9831 7.96128 20.9186C7.75839 20.8541 7.57028 20.7501 7.4078 20.6125L0.956218 15.2362C0.774513 15.0848 0.628318 14.8954 0.52799 14.6812C0.427662 14.467 0.375656 14.2334 0.375656 13.997C0.375656 13.7605 0.427662 13.5269 0.52799 13.3127C0.628318 13.0986 0.774513 12.9091 0.956218 12.7577L7.4078 7.3814C7.73693 7.11167 8.15931 6.98294 8.58293 7.02325C9.00655 7.06356 9.39707 7.26964 9.66942 7.5966C9.94177 7.92356 10.0739 8.34491 10.037 8.76884C10 9.19276 9.79708 9.58492 9.4723 9.85988ZM33.1281 12.7577L26.6765 7.3814C26.514 7.24384 26.3259 7.13981 26.123 7.0753C25.9201 7.0108 25.7065 6.9871 25.4944 7.00558C25.2823 7.02405 25.076 7.08432 24.8873 7.18293C24.6986 7.28154 24.5313 7.41652 24.3951 7.5801C24.2588 7.74368 24.1563 7.93261 24.0934 8.13601C24.0305 8.33941 24.0085 8.55324 24.0287 8.76517C24.0489 8.97711 24.1108 9.18296 24.2109 9.37084C24.311 9.55873 24.4473 9.72493 24.612 9.85988L29.577 13.997L24.612 18.134C24.4473 18.269 24.311 18.4352 24.2109 18.6231C24.1108 18.811 24.0489 19.0168 24.0287 19.2287C24.0085 19.4407 24.0305 19.6545 24.0934 19.8579C24.1563 20.0613 24.2588 20.2502 24.3951 20.4138C24.5313 20.5774 24.6986 20.7124 24.8873 20.811C25.076 20.9096 25.2823 20.9699 25.4944 20.9883C25.7065 21.0068 25.9201 20.9831 26.123 20.9186C26.3259 20.8541 26.514 20.7501 26.6765 20.6125L33.1281 15.2362C33.3098 15.0848 33.456 14.8954 33.5563 14.6812C33.6567 14.467 33.7087 14.2334 33.7087 13.997C33.7087 13.7605 33.6567 13.5269 33.5563 13.3127C33.456 13.0986 33.3098 12.9091 33.1281 12.7577ZM21.8943 0.652938C21.6952 0.580533 21.4838 0.548061 21.2721 0.557377C21.0605 0.566692 20.8527 0.617613 20.6608 0.707231C20.4688 0.796848 20.2964 0.923406 20.1533 1.07968C20.0103 1.23595 19.8994 1.41887 19.8271 1.61799L11.225 25.2738C11.0792 25.6757 11.0989 26.1191 11.2799 26.5065C11.4608 26.8938 11.7882 27.1935 12.19 27.3396C12.3664 27.4048 12.553 27.438 12.7411 27.4377C13.0723 27.4378 13.3954 27.3359 13.6666 27.146C13.9379 26.956 14.1441 26.6871 14.2572 26.3759L22.8593 2.72013C22.9317 2.52103 22.9642 2.30962 22.9549 2.09797C22.9456 1.88633 22.8947 1.67858 22.805 1.48662C22.7154 1.29465 22.5889 1.12222 22.4326 0.979178C22.2763 0.836133 22.0934 0.725276 21.8943 0.652938Z" fill="#109756"/>
</svg>
