<svg width="35" height="35" viewBox="0 0 35 35" fill="none" xmlns="http://www.w3.org/2000/svg">
<path fill-rule="evenodd" clip-rule="evenodd" d="M28.9157 18.6034C27.1137 19.4485 25.0875 19.6906 23.1372 19.2937L16.3047 12.4648C16.0478 12.2079 15.867 11.8819 15.8159 11.5222C15.5632 9.74388 15.8328 7.92597 16.5981 6.29215C17.4423 4.48979 18.8447 3.00738 20.5975 2.06464C22.3503 1.12189 24.3603 0.768981 26.3294 1.05821C28.2985 1.34744 30.1221 2.26342 31.5298 3.67039C32.9374 5.07736 33.8544 6.90043 34.1446 8.86942C34.4348 10.8384 34.083 12.8485 33.1411 14.6018C32.1993 16.3551 30.7176 17.7583 28.9157 18.6034ZM21.6541 20.5914L14.6452 13.5188L1.99688 27.9702C1.30187 28.6645 0.91112 29.6064 0.910599 30.5888C0.910341 31.0752 1.00589 31.5569 1.1918 32.0064C1.37771 32.4559 1.65033 32.8644 1.9941 33.2085C2.33787 33.5526 2.74606 33.8257 3.19535 34.0121C3.64465 34.1985 4.12626 34.2945 4.61268 34.2948C5.59505 34.2953 6.5374 33.9056 7.23241 33.2113L21.6541 20.5914Z" fill="#F4B400"/>
</svg>
