<svg width="32" height="32" viewBox="0 0 32 32" fill="none" xmlns="http://www.w3.org/2000/svg">
<path d="M16 0C7.16356 0 0 7.16356 0 16C0 24.8364 7.16356 32 16 32C24.8364 32 32 24.8364 32 16C32 7.16356 24.8364 0 16 0ZM1.82222 16.8889H5.36267C5.44444 19.1164 5.82667 21.2187 6.45511 23.1111H3.696C2.62311 21.2596 1.96267 19.1476 1.82222 16.8889ZM16.8889 7.11111V1.84978C19.3307 2.23733 21.4773 4.20978 22.9324 7.11111H16.8889ZM23.6898 8.88889C24.36 10.7404 24.7733 12.8533 24.8604 15.1111H16.8889V8.88889H23.6898ZM15.1111 1.84978V7.11111H9.06756C10.5218 4.20978 12.6693 2.23733 15.1111 1.84978ZM15.1111 8.88889V15.1111H7.13956C7.22667 12.8533 7.64 10.7404 8.31022 8.88889H15.1111ZM5.36356 15.1111H1.82222C1.96267 12.8533 2.62311 10.7404 3.69511 8.88889H6.45422C5.82756 10.7813 5.44533 12.8844 5.36356 15.1111ZM7.13956 16.8889H15.1111V23.1111H8.31022C7.64 21.2596 7.22667 19.1476 7.13956 16.8889ZM15.1111 24.8889V30.1502C12.6693 29.7618 10.5218 27.7902 9.06756 24.8889H15.1111ZM16.8889 30.1502V24.8889H22.9333C21.4782 27.7902 19.3307 29.7618 16.8889 30.1502ZM16.8889 23.1111V16.8889H24.8613C24.7733 19.1476 24.3609 21.2596 23.6907 23.1111H16.8889ZM26.6373 16.8889H30.1769C30.0373 19.1476 29.3769 21.2596 28.304 23.1111H25.5449C26.1724 21.2187 26.5547 19.1164 26.6373 16.8889ZM26.6373 15.1111C26.5547 12.8844 26.1724 10.7813 25.5449 8.88889H28.304C29.3769 10.7404 30.0373 12.8533 30.1769 15.1111H26.6373ZM27.0924 7.11111H24.8676C24.2302 5.68533 23.44 4.43111 22.5396 3.37867C24.3076 4.296 25.8569 5.57067 27.0924 7.11111ZM9.46044 3.37867C8.55911 4.43111 7.76889 5.68533 7.13156 7.11111H4.90756C6.14311 5.57067 7.69244 4.29689 9.46044 3.37867ZM4.90756 24.8889H7.13244C7.76889 26.3147 8.55911 27.5689 9.46044 28.6204C7.69244 27.7031 6.14311 26.4293 4.90756 24.8889ZM22.5396 28.6204C23.4409 27.568 24.2302 26.3147 24.8676 24.8889H27.0924C25.8569 26.4293 24.3076 27.7031 22.5396 28.6204Z" fill="#3B88C3"/>
</svg>
