<svg width="274" height="212" viewBox="0 0 274 212" fill="none" xmlns="http://www.w3.org/2000/svg">
<path d="M29.1035 156.318C29.1035 161.892 31.5589 167.021 31.5589 172.501C31.5589 176.881 31.6839 181.281 31.5589 185.659C31.528 186.739 31.1124 187.669 31.1124 188.796C31.1124 189.8 31.1124 190.805 31.1124 191.809C31.1124 194.046 31.1124 196.282 31.1124 198.518C31.1124 202.288 29.7732 205.746 29.7732 209.443" stroke="white" stroke-width="1.99252" stroke-linecap="round"/>
<path d="M29.9961 209.432C30.0154 209.587 30.6739 209.912 30.8003 209.975C31.1867 210.168 31.6681 210.293 32.0994 210.388C33.3831 210.669 34.7492 210.731 36.0586 210.731C36.6111 210.731 37.2453 210.845 37.7874 210.944C38.3369 211.046 38.9508 210.979 39.5092 210.979C40.9618 210.979 42.4145 210.979 43.8671 210.979C44.9153 210.979 45.9636 210.979 47.0118 210.979C47.4689 210.979 47.926 210.979 48.3831 210.979C49.1492 210.979 49.9064 210.823 50.6617 210.697C51.817 210.504 53.0164 210.317 54.0882 209.838C54.4747 209.665 54.833 209.565 55.2086 209.339C55.3675 209.244 55.5478 209.076 55.7173 209.013C55.8454 208.966 55.9779 208.961 56.0884 208.862C56.1922 208.768 56.4639 208.736 56.4734 208.566C56.4956 208.166 56.4734 207.758 56.4734 207.356C56.4734 205.5 56.5352 203.653 56.5352 201.796C56.5352 200.856 56.5971 199.92 56.5971 198.977C56.5971 198.558 56.659 198.146 56.659 197.726C56.659 197.204 56.6219 196.666 56.6727 196.146C56.7726 195.121 56.8236 194.093 56.9373 193.07C56.9883 192.611 56.966 192.151 57.0164 191.691C57.07 191.203 57.2026 190.718 57.2157 190.227C57.2294 189.714 57.3587 189.212 57.4322 188.705C57.5182 188.113 57.5678 187.52 57.6488 186.928C57.8203 185.674 57.7106 184.35 57.7106 183.086C57.7106 181.072 57.558 179.005 57.9237 177.02C58.079 176.177 58.15 175.27 58.2158 174.415C58.2715 173.691 58.3658 172.957 58.4667 172.239C58.5282 171.802 58.616 171.253 58.776 170.844C58.8877 170.558 58.8889 170.278 58.9822 169.998C59.0415 169.821 59.1335 169.63 59.1335 169.438C59.1335 169.206 59.2572 168.96 59.2572 168.727" stroke="white" stroke-width="1.99252" stroke-linecap="round"/>
<path d="M59.1016 169.056C59.1016 168.15 59.662 167.294 60.0391 166.495C60.4434 165.638 60.7863 164.631 60.9476 163.711C61.1131 162.768 61.2763 161.908 61.2763 160.947C61.2763 160.04 61.5529 159.123 61.7982 158.25C62.1417 157.029 62.2996 155.738 62.7551 154.548C62.9462 154.049 63.0322 153.533 63.2335 153.041C63.4081 152.614 63.6055 152.025 63.6926 151.572C63.8539 150.733 64.2623 149.78 64.5818 148.981C64.9259 148.121 65.474 147.316 65.7803 146.459C66.3083 144.98 67.0677 143.515 67.8004 142.09C68.1489 141.412 68.6326 140.802 68.9699 140.128C69.1823 139.703 69.5356 139.376 69.7624 138.963C69.9351 138.649 70.2376 138.122 70.497 137.895C70.7788 137.648 71.0363 137.144 71.2702 136.827C71.5059 136.507 71.7525 136.226 71.9951 135.914C72.5671 135.178 73.364 134.642 74.0249 134C75.5449 132.523 77.3743 131.362 79.0025 129.999C79.7558 129.368 80.5397 128.809 81.3512 128.259C82.162 127.709 83.1023 127.316 83.8932 126.761C85.0477 125.949 86.4072 125.553 87.6337 124.973C88.0395 124.78 88.6427 124.708 89.0931 124.692C89.9192 124.663 90.6896 124.389 91.5095 124.344C92.3341 124.3 93.1998 123.895 94.0031 123.716C94.5451 123.596 95.072 123.36 95.5931 123.175C96.0946 122.997 96.5845 122.706 97.1154 122.692C97.5271 122.68 98.1448 122.285 98.5072 122.087C98.9454 121.848 99.4462 121.694 99.899 121.474C100.602 121.132 101.487 120.784 102.074 120.256C103.148 119.289 104.038 118.115 104.857 116.931C105.167 116.483 105.447 115.974 105.795 115.539C105.878 115.436 105.863 115.14 105.945 114.993C106.028 114.844 106.162 114.681 106.162 114.515C106.162 113.761 106.162 113.007 106.162 112.253" stroke="white" stroke-width="1.99252" stroke-linecap="round"/>
<path d="M106.254 112.079C106.254 111.526 106.187 110.978 106.167 110.445C106.141 109.737 106.269 108.891 106.075 108.213C106.017 108.007 105.889 107.843 105.8 107.642C105.679 107.37 105.605 107.105 105.471 106.821C105.311 106.481 105.121 105.225 104.737 105.115C104.696 105.103 104.396 104.605 104.321 104.53C104.125 104.334 103.863 104.238 103.664 104.057C103.172 103.61 102.463 103.385 101.948 102.984C100.795 102.087 99.514 101.218 97.9854 101.027C97.1758 100.925 96.3761 100.857 95.5545 100.857C94.8074 100.857 93.9394 100.781 93.2252 100.577C92.2557 100.3 91.1719 99.9875 90.1565 99.9875C89.0272 99.9875 87.898 99.9875 86.7687 99.9875C86.1888 99.9875 85.6089 99.9875 85.029 99.9875C84.5828 99.9875 83.8231 100.043 83.4149 99.8522C82.1884 99.2799 80.5979 99.4255 79.2878 99.224C78.5499 99.1105 77.7331 99.2046 76.9874 99.2046C76.074 99.2046 75.1607 99.2046 74.2473 99.2046C73.3758 99.2046 72.5043 99.2046 71.6328 99.2046" stroke="white" stroke-width="1.99252" stroke-linecap="round"/>
<path d="M70.8561 99.291C69.4558 99.291 67.9697 99.2879 66.5743 99.3973C64.6662 99.547 62.7559 99.4329 60.8524 99.5713C59.3424 99.6811 57.8239 99.639 56.3097 99.639C55.5753 99.639 54.8404 99.6307 54.106 99.639C53.5026 99.6458 52.9114 99.8055 52.3083 99.813C49.4 99.8489 46.5643 100.375 43.7351 101.011C42.9245 101.194 42.0261 101.367 41.1931 101.379C40.7583 101.385 40.3006 101.336 39.869 101.398C39.305 101.479 38.7876 101.603 38.2162 101.659C37.4476 101.734 36.6762 101.766 35.9062 101.833C34.1183 101.988 32.283 102.203 30.5129 102.51C29.6613 102.657 28.8069 102.694 27.9516 102.809C26.936 102.946 25.8108 102.977 24.82 103.225C23.6644 103.514 22.4078 103.544 21.2728 103.901C20.3316 104.198 19.4277 104.455 18.5086 104.839C17.3787 105.311 16.1075 105.697 14.9227 106.008C14.1537 106.211 13.4039 106.611 12.6803 106.907C11.5163 107.384 10.4496 108.052 9.35547 108.599" stroke="white" stroke-width="1.99252" stroke-linecap="round"/>
<path d="M9.35086 108.859C8.67 108.957 8.03472 109.504 7.43229 109.821C6.89086 110.106 6.28468 110.448 5.8665 110.908C5.3632 111.462 4.58336 111.806 4.08808 112.339C3.54377 112.925 2.7824 113.341 2.39181 114.079C2.00233 114.814 1.55245 115.573 1.32862 116.379C1.21252 116.797 1 117.21 1 117.65C1 118.127 1 118.604 1 119.08C1 120.041 1.53034 121.417 2.13568 122.173C2.70245 122.882 3.11025 123.43 3.87544 123.908C4.23838 124.135 4.71747 124.19 5.08361 124.396C5.4854 124.622 5.86825 124.861 6.34494 124.952C7.04064 125.085 7.74718 125.35 8.41332 125.58C9.17722 125.845 10.0028 125.946 10.762 126.257C11.1861 126.431 11.6195 126.477 12.0475 126.644C12.4988 126.819 13.0515 127.033 13.5215 127.127C14.5723 127.337 15.5056 127.922 16.4839 128.306C19.5395 129.506 21.4216 132.642 22.9017 135.371C23.2847 136.078 23.7371 136.934 23.9262 137.72C24.141 138.613 24.5462 139.452 24.7478 140.349C24.9957 141.452 25.4339 142.64 26.0526 143.568" stroke="white" stroke-width="1.99252" stroke-linecap="round"/>
<path d="M26.1387 143.83C26.1387 145.034 26.9783 145.937 27.1874 147.087C27.2445 147.402 27.4355 147.695 27.5112 148.006C27.5898 148.329 27.6045 148.67 27.6851 149.001C27.8488 149.674 27.9787 150.305 28.1829 150.958C28.374 151.57 28.3578 152.254 28.5308 152.877C28.6687 153.373 28.5605 153.96 28.8353 154.423C28.9745 154.658 28.9379 154.996 29.0093 155.264C29.0596 155.453 29.1833 155.686 29.1833 155.878C29.1833 156.231 29.2702 156.592 29.2702 156.965" stroke="white" stroke-width="1.99252" stroke-linecap="round"/>
<path d="M9.79102 122.75C10.1481 122.348 10.5366 122.394 10.9652 122.114C11.571 121.717 12.2413 121.426 12.9246 121.159C15.602 120.111 18.4884 119.295 21.3137 118.803C22.9282 118.522 24.7016 118.496 26.2722 118.039C27.2881 117.744 28.4319 117.657 29.4836 117.657C30.9319 117.657 32.2959 117.538 33.7277 117.339C34.7432 117.198 35.8295 117.208 36.8542 117.155C37.9055 117.101 38.9766 116.908 40.0231 116.893C42.5849 116.858 45.1078 116.511 47.6695 116.511C49.7495 116.511 51.8188 116.129 53.9013 116.129C56.2131 116.129 58.531 115.773 60.8474 115.747C65.7891 115.693 70.7256 115.62 75.6734 115.62C78.1161 115.62 80.5589 115.62 83.0016 115.62C83.945 115.62 84.7162 115.985 85.6187 116.129C86.6027 116.287 87.6561 116.583 88.6038 116.893C90.1159 117.388 91.694 117.571 93.1944 118.096C94.6203 118.595 96.0178 119.013 97.5163 119.312" stroke="white" stroke-width="1.99252" stroke-linecap="round"/>
<path d="M72.1908 76.9551C71.8762 76.9944 71.3078 77.3958 71.0486 77.574C70.6353 77.8581 70.1739 78.076 69.7289 78.343C69.4773 78.494 69.1255 78.6226 68.8507 78.7389C68.6062 78.8423 68.3804 79.0819 68.1317 79.2122C67.4917 79.5474 66.9564 80.1006 66.2933 80.3953C66.0051 80.5234 65.8568 80.7864 65.6198 80.9687C65.4261 81.1177 65.1667 81.3542 65.0191 81.542C64.5955 82.0812 64.0585 82.4889 63.7131 83.1029C62.9691 84.4256 62.4509 85.8522 61.588 87.1074C60.8849 88.1301 60.4333 89.2837 60.2137 90.5521C59.9744 91.9352 60.15 93.4903 60.15 94.8934C60.15 95.5955 60.1706 96.1632 60.7052 96.6772C60.9034 96.8678 61.3153 97.0287 61.4424 97.2688C61.6106 97.5866 62.0614 98.2244 62.4435 98.4155" stroke="white" stroke-width="1.99252" stroke-linecap="round"/>
<path d="M71.207 77.4471C71.6485 77.4471 72.0353 77.2544 72.4675 77.1604C72.9317 77.0595 73.4084 77.0195 73.8737 76.9374C74.7972 76.7744 75.7652 76.4642 76.7132 76.4642C77.5808 76.4642 78.4485 76.4642 79.3161 76.4642C80.2028 76.4642 81.2037 76.2999 82.0237 76.6689C82.2469 76.7694 82.5002 76.739 82.7108 76.8373C82.9177 76.9339 83.0972 77.0583 83.3115 77.1376C83.7258 77.2911 84.0981 77.6003 84.481 77.8157C84.9165 78.0607 85.3936 78.1776 85.7597 78.5301C85.9174 78.682 86.1284 78.7053 86.2785 78.8395C86.4013 78.9495 86.4981 79.0846 86.6425 79.1672C86.9582 79.3476 87.3147 79.7272 87.589 79.9863C87.8056 80.1908 88.1159 80.5794 88.3717 80.7189C88.6964 80.896 88.8761 81.2179 89.1271 81.4789C89.4185 81.7819 89.8115 82.1226 90.0463 82.4618C90.2431 82.746 90.4798 83.0817 90.6243 83.3947C90.7261 83.6154 90.9094 83.7857 90.9428 84.0363C90.9671 84.2184 91.0108 84.3956 91.1112 84.555C91.3261 84.8965 91.4252 85.4426 91.5571 85.8383C91.6716 86.1818 91.8092 86.5012 91.9121 86.8485C92.0159 87.199 91.9453 87.5969 92.0531 87.9634C92.2149 88.5134 92.262 89.0862 92.358 89.6517C92.5074 90.5311 92.5855 91.346 92.5855 92.2364C92.5855 92.8034 92.7405 93.6975 92.4627 94.1977C92.2986 94.4931 92.2477 94.8324 92.0941 95.1396C92.0044 95.319 91.9448 95.4526 91.9303 95.6493C91.9114 95.9033 91.6532 96.0696 91.6072 96.3228C91.4808 97.0178 91.1106 97.6143 90.8654 98.2886C90.7663 98.5612 90.6035 98.88 90.4741 99.1532C90.3499 99.4155 90.2559 99.7628 90.0463 99.9723" stroke="white" stroke-width="1.99252" stroke-linecap="round"/>
<path d="M77.1861 76.3823C77.1404 75.9255 76.916 75.4206 76.7765 74.9898C76.4444 73.9642 76.1379 72.9267 75.8391 71.8909C75.6704 71.3059 75.4622 70.7319 75.1747 70.1981C75.0495 69.9655 74.8926 69.691 74.8926 69.4199" stroke="white" stroke-width="1.99252" stroke-linecap="round"/>
<path d="M77.4316 74.8258C77.4605 74.5951 77.7091 74.446 77.823 74.2525C77.8882 74.1415 78.1588 73.9609 78.2689 73.8793C78.5193 73.6939 78.7602 73.5021 79.0152 73.315C79.4442 73.0005 79.9383 72.9386 80.4441 72.8418C81.3 72.6779 82.0374 72.6143 82.9151 72.6143C83.6359 72.6143 84.3792 72.7906 85.0493 73.0648C85.5561 73.2721 86.1037 73.3534 86.6056 73.5972C87.258 73.9141 87.7423 74.4369 88.3257 74.8258" stroke="white" stroke-width="1.99252" stroke-linecap="round"/>
<path d="M83.9062 76.5453C84.8952 76.5453 85.8842 76.5453 86.8732 76.5453C87.4475 76.5453 87.6383 76.4087 88.0882 76.0993C88.3505 75.919 88.5743 75.6038 88.8209 75.4805" stroke="white" stroke-width="1.99252" stroke-linecap="round"/>
<path d="M75.219 72.6961C73.782 72.5655 72.5248 71.8246 71.0825 71.7177C70.4552 71.6713 69.8112 71.7039 69.2031 71.8588C68.352 72.0756 67.6248 72.7019 66.9643 73.2695C66.3932 73.7603 65.8985 74.2902 65.5126 74.9077C65.3692 75.1372 65.1996 75.4063 65.0803 75.6449C65.0052 75.7952 64.8714 75.8894 64.8164 76.0544" stroke="white" stroke-width="1.99252" stroke-linecap="round"/>
<path d="M65.2246 76.2178C65.2486 76.0259 66.4525 76.1358 66.658 76.1358C66.8956 76.1358 67.135 76.1271 67.3725 76.1358C67.6146 76.1448 67.8084 76.3811 68.046 76.4453C69.1136 76.7338 70.8246 77.9451 71.9412 77.2007" stroke="white" stroke-width="1.99252" stroke-linecap="round"/>
<path d="M88.0352 87.7422C88.0352 88.505 88.5114 89.0971 88.5114 89.8764C88.5114 90.432 88.5114 90.9876 88.5114 91.5432C88.5114 92.6162 88.0352 95.7998 88.0352 94.7268" stroke="white" stroke-width="1.99252" stroke-linecap="round"/>
<path d="M86.4452 85.3613C86.4666 85.533 86.687 85.686 86.7631 85.8383" stroke="white" stroke-width="1.99252" stroke-linecap="round"/>
<path d="M60.3474 141.141C59.9157 142.738 59.2127 144.241 58.6112 145.779C57.2476 149.265 55.9961 152.795 54.8042 156.344C52.6509 162.755 51.8652 169.155 51.8652 175.912C51.8652 177.423 52.3117 178.89 52.3117 180.426C52.3117 181.319 52.3117 182.212 52.3117 183.105" stroke="white" stroke-width="1.99252" stroke-linecap="round"/>
<path d="M200.512 15.4287C201.006 15.6342 201.448 16.4231 201.711 16.8694C201.969 17.307 202.323 17.7038 202.558 18.1527C202.916 18.836 203.541 19.4455 203.824 20.1685C204.118 20.92 204.674 21.7973 204.756 22.6141C204.821 23.2705 205.198 23.9068 205.198 24.5572C205.198 25.3937 205.359 26.3806 205.004 27.1481C204.545 28.1396 204.591 29.2378 204.265 30.2595C204.1 30.7808 203.94 31.3425 203.672 31.8213C203.451 32.2168 203.103 32.6866 203.018 33.1288C202.922 33.6379 202.65 34.1779 202.365 34.6058" stroke="#E8EAED" stroke-width="2.40946" stroke-linecap="round"/>
<path d="M201.947 38.292C201.853 39.3281 200.933 40.2374 200.479 41.1453C200.213 41.6764 199.98 42.0853 199.544 42.4969C199.323 42.7064 198.784 43.0851 198.493 43.2143C198.087 43.395 197.287 43.4033 196.991 43.7733C196.71 44.1246 194.139 43.9215 193.754 43.7566C192.379 43.167 190.863 42.526 189.783 41.4456" stroke="#E8EAED" stroke-width="2.40946" stroke-linecap="round"/>
<path d="M197.676 40.4688C197.188 40.4688 196.522 39.2027 196.323 38.8264C196.053 38.3135 195.724 37.8361 195.454 37.3236C195.3 37.0327 195.236 36.6637 195.067 36.4111" stroke="#E8EAED" stroke-width="2.40946" stroke-linecap="round"/>
<path d="M193.228 39.7936C192.844 39.7936 192.524 39.2191 192.316 38.9455C192.09 38.6483 191.904 38.3332 191.731 38.0009C191.565 37.6815 191.289 37.4528 191.124 37.1421C190.826 36.5781 190.427 35.789 190.427 35.1562" stroke="#E8EAED" stroke-width="2.40946" stroke-linecap="round"/>
<path d="M197.486 13.9814C197.42 14.6464 196.897 15.3427 196.677 15.9685C196.353 16.8904 196.026 17.7562 195.72 18.6916C195.413 19.6312 195.426 20.5165 195.426 21.4883" stroke="#E8EAED" stroke-width="2.40946" stroke-linecap="round"/>
<path d="M190.273 12.9512C190.067 14.6862 189.822 16.4376 189.693 18.1765C189.648 18.7786 189.581 19.5683 189.717 20.1636C189.843 20.7111 189.976 21.7774 190.273 22.2243" stroke="#E8EAED" stroke-width="2.40946" stroke-linecap="round"/>
<path d="M203.166 45.3728C201.96 47.8503 200.6 51.6215 197.322 51.6215C194.75 51.6215 192.377 50.3379 190.495 48.6771C189.749 48.0192 189.092 47.311 188.644 46.4143C188.27 45.6675 188.239 44.8405 188.239 44.0099C188.239 43.4421 188.239 42.8742 188.239 42.3063C188.239 41.894 188.586 41.6089 188.586 41.207" stroke="#E8EAED" stroke-width="2.40946" stroke-linecap="round"/>
<path d="M203.631 45.7207C203.631 49.3659 203.616 53.0212 203.515 56.6494C203.496 57.3316 203.16 58.1024 203.027 58.7709C202.866 59.5747 202.332 60.3272 202.152 61.1367C202.03 61.688 201.808 62.327 201.574 62.8467C201.387 63.2607 201.29 63.9474 201.021 64.2931C200.738 64.6568 200.745 65.0948 200.449 65.4567C200.165 65.8028 200.039 66.3171 199.754 66.6589C199.499 66.9651 199.437 67.3649 199.285 67.7132C199.073 68.1981 198.798 68.6353 198.629 69.1211C197.895 71.2412 197.531 73.7638 196.167 75.5819C195.405 76.5975 194.219 77.234 193.332 78.1212C192.755 78.6988 192.025 79.1575 191.532 79.8055C190.949 80.5733 190.165 81.3247 189.513 82.0491C188.179 83.5316 186.647 84.7976 185.29 86.2728C184.367 87.2763 183.903 88.4339 183.207 89.5835C182.373 90.9615 181.832 92.4796 181.272 93.9743C180.613 95.7324 179.775 97.3778 179.035 99.0915C178.242 100.927 177.292 102.833 176.097 104.447C175.558 105.175 175.113 105.945 174.47 106.587C173.879 107.179 173.196 107.798 172.735 108.49C172.294 109.151 171.559 109.564 171.05 110.175C170.785 110.493 170.143 111.447 169.726 111.447" stroke="#E8EAED" stroke-width="2.40946" stroke-linecap="round"/>
<path d="M169.379 112.025C169.343 112.677 168.625 113.38 168.222 113.851C167.711 114.448 167.075 114.925 166.544 115.497C166.308 115.751 165.954 116.088 165.618 116.191C165.109 116.348 164.708 116.896 164.21 117.117C161.736 118.216 159.179 120.104 157.801 122.446C156.313 124.975 154.748 127.55 153.931 130.366C153.584 131.561 153.297 132.777 152.857 133.921C152.741 134.224 152.675 134.571 152.607 134.879C152.546 135.152 152.344 135.36 152.253 135.631" stroke="#E8EAED" stroke-width="2.40946" stroke-linecap="round"/>
<path d="M152.832 135.864C152.526 136.476 152.183 137.001 151.932 137.651C151.663 138.35 151.44 138.973 151.212 139.683C150.862 140.773 150.434 142.057 150.402 143.219C150.339 145.479 150.171 147.713 150.171 149.982C150.171 152.239 149.999 154.455 149.566 156.667C149.111 158.996 148.621 161.337 148.229 163.688C148.007 165.021 147.554 166.261 147.252 167.57C146.979 168.752 146.784 169.923 146.352 171.068C146.157 171.584 146.111 172.15 145.889 172.662C145.66 173.191 145.43 173.865 145.285 174.423C144.95 175.708 144.041 176.864 143.575 178.126C142.945 179.829 142.871 181.719 142.045 183.372C141.49 184.481 140.762 185.496 140.219 186.612C139.677 187.727 139.451 188.902 138.972 190.045C138.818 190.413 138.364 192.442 137.905 191.524" stroke="#E8EAED" stroke-width="2.40946" stroke-linecap="round"/>
<path d="M137.438 191.986C137.438 192.625 136.805 193.185 136.255 193.401C135.842 193.563 135.56 193.999 135.187 194.236C134.318 194.79 133.554 195.82 133.098 196.731C132.753 197.421 131.814 199.504 132.462 200.266C132.966 200.86 133.684 201.244 134.429 201.244" stroke="#E8EAED" stroke-width="2.40946" stroke-linecap="round"/>
<path d="M154.799 201.821C147.478 201.821 140.141 201.705 132.813 201.705" stroke="#E8EAED" stroke-width="2.40946" stroke-linecap="round"/>
<path d="M154.797 201.358C155.693 201.358 156.487 200.594 157.105 199.976C157.846 199.235 158.037 198.45 158.037 197.424C158.037 196.302 157.768 195.485 157.292 194.531C157.084 194.115 156.774 193.66 156.353 193.425C156.1 193.284 155.845 192.911 155.55 192.911C155.256 192.911 154.959 192.683 154.74 192.512C154.665 192.454 154.479 192.476 154.457 192.377C154.402 192.131 154.426 191.914 154.335 191.664C154.038 190.847 154.219 189.776 154.219 188.919C154.219 188.045 154.278 187.087 154.425 186.225C154.529 185.611 154.453 184.994 154.592 184.374C154.8 183.447 154.959 182.484 155.202 181.564C155.549 180.257 155.8 178.673 156.533 177.521C157.016 176.762 157.337 175.879 157.806 175.097C158.203 174.436 158.647 173.803 159.053 173.149C159.836 171.891 160.726 170.717 161.451 169.427C162.593 167.397 163.605 165.358 164.659 163.288C165.573 161.493 166.361 159.694 167.121 157.836C167.598 156.67 168.061 155.507 168.625 154.378C168.837 153.955 169.123 153.497 169.262 153.047C169.335 152.808 169.539 152.725 169.654 152.52C169.785 152.286 169.787 152.068 169.982 151.858C170.53 151.266 170.901 150.394 171.338 149.71C171.563 149.359 171.91 148.98 172.039 148.592" stroke="#E8EAED" stroke-width="2.40946" stroke-linecap="round"/>
<path d="M154.453 195.92C154.453 197.598 154.106 199.395 154.106 201.011" stroke="#E8EAED" stroke-width="2.40946" stroke-linecap="round"/>
<path d="M149.357 196.729C148.916 197.784 148.589 199.297 148.547 200.458C148.542 200.62 148.547 201.513 148.547 200.895" stroke="#E8EAED" stroke-width="2.40946" stroke-linecap="round"/>
<path d="M144.73 196.15C143.942 197.799 143.805 199.347 143.805 201.139C143.805 201.52 143.805 202.665 143.805 202.283" stroke="#E8EAED" stroke-width="2.40946" stroke-linecap="round"/>
<path d="M140.566 196.15C140.118 196.363 140 197.156 139.885 197.584C139.656 198.436 139.641 199.292 139.641 200.168C139.641 200.642 139.641 201.115 139.641 201.589" stroke="#E8EAED" stroke-width="2.40946" stroke-linecap="round"/>
<path d="M172.386 148.477C173.522 148.477 174.658 148.477 175.793 148.477C177.36 148.477 179.05 148.486 180.602 148.682C181.796 148.834 183.863 148.82 184.305 150.257C184.415 150.616 184.702 151.023 184.858 151.369C185.033 151.759 185.112 152.412 184.883 152.784C184.238 153.833 185.132 155.328 185.636 156.223C185.923 156.734 186.47 157.144 186.825 157.618C187.351 158.32 187.725 159.113 188.214 159.817C188.87 160.762 188.554 161.817 187.776 162.594C187.347 163.023 187.069 163.572 186.735 164.073C186.418 164.548 185.899 165.063 185.719 165.603C185.492 166.284 184.998 166.897 184.774 167.57C184.532 168.297 184.356 169.087 184.016 169.768C183.743 170.313 183.726 171.134 183.726 171.735C183.726 172.594 183.581 173.703 184.099 174.448C184.491 175.012 184.729 175.659 185.179 176.191C185.625 176.717 186.33 177.416 186.613 178.029C187.297 179.512 188.25 180.909 188.934 182.407C189.868 184.453 191.288 186.362 192.116 188.463C192.852 190.333 193.92 192.008 194.809 193.786C195.968 196.103 196.918 198.648 196.918 201.243" stroke="#E8EAED" stroke-width="2.40946" stroke-linecap="round"/>
<path d="M219.488 201.589C214.19 201.589 208.876 201.474 203.571 201.474C202.364 201.474 201.137 201.545 199.932 201.474C199.403 201.442 198.798 201.242 198.197 201.242" stroke="#E8EAED" stroke-width="2.40946" stroke-linecap="round"/>
<path d="M219.833 201.01C220.089 201.238 220.738 201.147 221.048 201.12C221.658 201.067 222.045 200.481 222.43 200.085C223.594 198.888 223.768 197.536 223.768 195.945C223.768 194.565 222.628 193.312 221.363 192.795C220.564 192.467 219.7 192.327 218.856 192.158C218.26 192.039 217.636 192.084 217.056 191.959C215.826 191.693 214.563 191.522 213.302 191.522C212.636 191.522 211.971 191.438 211.335 191.226C210.824 191.056 210.262 190.997 209.792 190.712C208.074 189.669 206.371 188.775 205.189 187.034C203.812 185.008 203.064 182.565 202.412 180.233C202.178 179.4 201.855 178.584 201.55 177.777C201.306 177.131 201.183 176.396 200.849 175.784C200.395 174.95 199.921 174.081 199.647 173.181C199.239 171.839 199.236 170.584 199.236 169.188C199.236 168.083 200.323 165.953 201.145 165.261C203.614 163.181 206.824 161.625 208.615 158.825C210.032 156.612 210.692 154.204 210.692 151.6" stroke="#E8EAED" stroke-width="2.40946" stroke-linecap="round"/>
<path d="M212.085 152.642C212.5 153.169 212.724 153.865 212.953 154.487C213.212 155.187 213.585 155.83 213.795 156.55C213.953 157.091 214.164 157.605 214.342 158.138C214.462 158.499 214.74 158.792 214.837 159.147C215.307 160.873 216.989 162.322 217.935 163.808C218.434 164.592 219.276 165.107 219.954 165.724C221.023 166.696 221.97 167.8 223.027 168.784C224.752 170.39 226.572 172.019 228.093 173.83C229.117 175.051 229.558 176.424 229.558 178.009C229.558 179.93 229.765 181.981 229.501 183.885C229.257 185.64 229.096 187.456 229.096 189.234C229.096 190.197 229.066 191.05 228.838 191.985C228.702 192.548 228.828 193.107 228.459 193.599C228.002 194.208 227.848 195.014 227.713 195.752C227.625 196.238 227.731 196.939 228.048 197.308C228.345 197.655 228.186 198.025 228.401 198.388C228.887 199.208 229.027 199.939 229.88 200.497C230.994 201.225 232.988 201.011 234.245 201.011C238.619 201.011 242.988 200.895 247.353 200.895C249.447 200.895 251.538 201.127 253.64 201.127C254.871 201.127 258.561 201.242 257.33 201.242" stroke="#E8EAED" stroke-width="2.40946" stroke-linecap="round"/>
<path d="M257.322 201.127C260.591 201.283 263.851 201.127 267.101 201.127C267.928 201.127 268.755 201.127 269.582 201.127C270.032 201.127 270.507 201.195 270.919 201.011C271.405 200.795 271.493 199.982 271.613 199.501C271.759 198.919 271.622 198.298 271.697 197.707C271.763 197.187 271.903 196.742 271.903 196.209C271.903 195.423 271.967 194.607 271.896 193.824C271.812 192.899 271.305 192.25 270.81 191.529C270.49 191.063 269.899 190.658 269.383 190.455C268.755 190.209 268.18 189.755 267.506 189.581C267.003 189.452 266.407 189.108 265.885 189.093C265.238 189.073 264.733 188.672 264.124 188.63C263.409 188.58 262.567 187.996 261.925 187.704C261.082 187.321 260.468 186.678 259.778 186.084C258.781 185.226 258.476 183.618 258.274 182.381C258.173 181.766 258.114 181.03 257.67 180.53C257 179.777 255.465 179.664 254.494 179.315C251.394 178.198 250.111 175.245 248.824 172.487C248.106 170.95 247.69 169.287 246.972 167.749C246.734 167.239 246.833 166.785 246.786 166.239C246.558 163.622 246.677 160.952 246.677 158.318C246.677 156.788 246.593 155.276 246.908 153.773C247.22 152.289 247.151 150.71 247.628 149.26C248.146 147.689 248.588 146.046 249.222 144.516C249.618 143.562 249.916 142.56 250.277 141.591C250.704 140.446 251.328 139.388 251.742 138.229C252.353 136.522 252.892 134.796 253.478 133.086C253.955 131.695 253.844 130.032 254.43 128.689C254.735 127.989 254.361 127.173 254.571 126.464C254.743 125.886 254.661 125.242 254.661 124.639" stroke="#E8EAED" stroke-width="2.40946" stroke-linecap="round"/>
<path d="M215.085 195.11C215.942 195.237 216.85 196.779 217.348 197.425C217.514 197.641 218.312 198.471 218.312 198.749C218.312 199.145 218.198 199.849 218.672 200.086" stroke="#E8EAED" stroke-width="2.40946" stroke-linecap="round"/>
<path d="M209.997 195.11C210.264 196.619 210.852 198.049 211.322 199.501C211.401 199.745 211.901 201.012 211.733 201.012" stroke="#E8EAED" stroke-width="2.40946" stroke-linecap="round"/>
<path d="M204.553 196.15C204.122 196.419 204.437 198.967 204.437 199.57C204.437 200.1 204.553 200.629 204.553 201.126" stroke="#E8EAED" stroke-width="2.40946" stroke-linecap="round"/>
<path d="M261.142 193.606C262.321 195.729 264.15 197.759 264.15 200.318" stroke="#E8EAED" stroke-width="2.40946" stroke-linecap="round"/>
<path d="M252.691 193.143V200.896" stroke="#E8EAED" stroke-width="2.40946" stroke-linecap="round"/>
<path d="M243.086 193.722C242.947 194.887 242.985 196.049 242.97 197.219C242.96 198.044 242.739 198.846 242.739 199.668C242.739 199.947 242.739 200.225 242.739 200.504C242.739 200.899 242.97 201.209 242.97 201.59" stroke="#E8EAED" stroke-width="2.40946" stroke-linecap="round"/>
<path d="M267.506 193.49C268.788 194.324 269.599 195.828 270.489 197.026C270.759 197.39 271.009 197.835 271.209 198.235" stroke="#E8EAED" stroke-width="2.40946" stroke-linecap="round"/>
<path d="M231.519 179.257C232.315 180.538 232.915 181.912 233.486 183.3C233.787 184.031 234.232 184.692 234.554 185.416C234.951 186.31 235.647 187.094 235.981 188C236.368 189.052 236.801 190.093 237.074 191.182C237.545 193.068 237.421 195.028 237.421 196.955C237.421 197.998 237.579 199.179 237.331 200.201C237.244 200.559 237.189 200.877 237.189 201.243" stroke="#E8EAED" stroke-width="2.40946" stroke-linecap="round"/>
<path d="M254.507 128.361C255.53 127.337 255.441 125.338 255.441 123.977C255.441 122.933 255.868 121.956 255.907 120.943C255.959 119.604 256.594 117.865 257.49 116.87C258.405 115.853 258.294 114.406 259.124 113.369C259.357 113.077 259.492 112.192 259.694 111.787C259.962 111.252 260.05 110.818 260.291 110.282C261.75 107.039 261.043 102.609 261.043 99.1295C261.043 92.2709 261.51 85.4365 261.51 78.5874C261.51 76.2295 261.29 73.9405 260.343 71.766C259.861 70.6611 259.666 68.6476 259.642 67.4345C259.62 66.3154 259.409 65.2439 259.409 64.1146C259.409 58.0936 259.752 51.6866 258.294 45.8549C257.777 43.7904 257.958 41.3985 257.256 39.3707C256.992 38.6087 256.585 37.8987 256.322 37.1401C256.078 36.4331 255.453 35.0559 254.974 34.5204C254.522 34.016 254.252 33.3841 253.806 32.8864C253.219 32.2302 252.194 31.4848 251.757 30.7855C251.077 29.6969 249.05 29.1707 247.971 28.4512" stroke="#E8EAED" stroke-width="2.40946" stroke-linecap="round"/>
<path d="M235.364 29.1506C238.541 30.2502 242.746 30.8723 245.389 28.2299C246.102 27.5169 247.221 27.3311 247.97 26.5829C248.579 25.9736 249.449 25.3566 250.2 24.9488C250.843 24.6 251.397 24.0326 251.938 23.5482C252.346 23.1833 254.287 22.587 253.546 22.0309C252.506 21.251 251.288 21.2721 250.057 21.8105C248.228 22.6107 245.85 22.6145 243.872 22.6145C240.308 22.6145 236.875 22.1066 233.497 20.9805" stroke="#E8EAED" stroke-width="2.40946" stroke-linecap="round"/>
<path d="M240.023 19.5807C239.218 19.48 238.33 16.4866 237.689 15.8457C236.671 14.8274 234.902 13.9565 233.591 13.3947C231.934 12.6843 230.375 11.7209 228.832 10.8529C227.86 10.3063 226.653 10.089 225.732 9.54303C224.787 8.98324 223.517 9.10308 222.749 8.37587C222.017 7.68229 220.911 7.08573 220.065 6.52137C219.23 5.9651 218.083 5.21348 217.134 5.09483C215.86 4.93554 214.74 4.38935 213.412 4.69281C212.638 4.86965 211.774 5.27557 210.961 5.09483C209.763 4.82855 209.318 2.54004 207.81 2.54004C206.174 2.54004 204.719 3.38737 203.245 4.05735C201.759 4.73257 200.193 4.17407 198.706 4.17407" stroke="#E8EAED" stroke-width="2.40946" stroke-linecap="round"/>
<path d="M195.479 6.50801C196.368 5.61852 197.258 4.75441 197.258 3.40767C197.258 2.86428 197.385 2.40375 196.869 2.11689C196.416 1.86556 195.466 2.08885 195.01 2.14777C194.04 2.27285 193.13 2.35413 192.255 2.81478C191.541 3.19045 190.664 4.30226 191.1 5.174C191.403 5.78038 192.184 6.26485 192.811 6.42155C193.429 6.57614 193.987 6.863 194.59 7.06385" stroke="#E8EAED" stroke-width="2.40946" stroke-linecap="round"/>
<path d="M190.041 7.8418C188.661 8.76165 187.929 9.57144 187.929 11.2633C187.929 12.3447 188.344 13.4518 188.818 14.4007" stroke="#E8EAED" stroke-width="2.40946" stroke-linecap="round"/>
<path d="M212.161 8.87654C213.211 8.87654 214.2 8.4461 215.252 8.39349C215.673 8.37243 216.115 8.29688 216.562 8.29688C217.184 8.29688 217.736 8.50924 218.322 8.70479C218.947 8.91306 219.705 9.07537 220.131 9.59575C220.831 10.4514 221.712 11.1961 222.476 11.9895C223.243 12.7859 223.916 13.9222 225.01 14.2867" stroke="#E8EAED" stroke-width="2.40946" stroke-linecap="round"/>
<path d="M224.92 15.5416C222.426 15.5416 220.021 16.5078 217.535 16.5078C217.016 16.5078 216.497 16.5078 215.978 16.5078C215.238 16.5078 214.778 16.4386 214.1 16.2126C213.748 16.0954 213.563 15.7784 213.327 15.5416C213.201 15.4159 213.055 15.1159 212.94 15.0586" stroke="#E8EAED" stroke-width="2.40946" stroke-linecap="round"/>
<path d="M217.861 13.1281C217.657 13.0828 217.636 12.8123 217.389 12.7416C217.157 12.6754 217.083 12.3851 216.799 12.3552C216.593 12.3335 216.307 12.0609 216.122 11.9688" stroke="#E8EAED" stroke-width="2.40946" stroke-linecap="round"/>
<path d="M204.804 50.9297C205.462 51.2783 205.961 51.9874 206.41 52.5642C206.949 53.2572 207.487 53.9812 208.002 54.6962C208.872 55.9051 209.93 56.9686 210.716 58.2494C212.235 60.7241 214.287 62.9711 216.345 65.0291C216.648 65.3323 217.092 65.612 217.496 65.7682C218.36 66.1019 219.035 66.3274 219.834 66.8484C220.374 67.2003 220.841 67.6937 221.241 68.1986C221.728 68.8131 222.434 69.2832 222.997 69.8331C224.01 70.8233 225.227 71.6228 226.23 72.626C226.618 73.0136 226.763 73.8261 226.934 74.3387" stroke="#E8EAED" stroke-width="1.20473" stroke-linecap="round"/>
<path d="M227.961 83.8043C227.961 82.3377 225.858 80.9561 224.663 80.4785C223.538 80.0282 222.457 79.6605 221.309 79.2633C220.331 78.9248 219.268 78.8531 218.303 78.4886C217.29 78.106 216.276 77.4878 215.368 76.8968C211.668 74.4871 208.798 71.1291 207.231 66.976C206.861 65.9948 206.265 65.094 205.831 64.1334C205.445 63.2769 204.92 62.4262 204.396 61.6461C203.95 60.9832 203.813 60.1446 203.372 59.4999C203.138 59.1569 203.101 58.7941 202.889 58.4766" stroke="#E8EAED" stroke-width="1.20473" stroke-linecap="round"/>
<path d="M200.589 65.8955C200.915 67.9639 201.411 69.5987 202.252 71.4599C202.715 72.4862 203.133 73.5742 203.467 74.6508C204.021 76.4358 204.734 78.2019 205.378 79.9594C206.041 81.7663 207.401 83.33 208.761 84.6284C210.182 85.9847 212.249 86.6611 214.084 87.1939C215.722 87.6693 217.428 88.1545 219.009 88.7644C220.913 89.499 222.602 90.4017 224.225 91.6639C225.127 92.3653 226.04 93.0404 226.911 93.7817C227.748 94.4939 228.274 95.5005 228.958 96.34C229.426 96.9149 230.006 97.7679 230.237 98.4862C230.32 98.7452 230.521 99.1549 230.521 99.4101" stroke="#E8EAED" stroke-width="1.20473" stroke-linecap="round"/>
<path d="M233.611 24.1049C233.78 24.0837 233.733 24.0452 233.795 23.9209" stroke="#E8EAED" stroke-width="2.40946" stroke-linecap="round"/>
<path d="M234.163 22.084C234.356 23.1425 235.176 24.0627 235.519 25.0916C235.807 25.9545 236.042 26.889 236.263 27.7729C236.548 28.9112 236.549 30.3078 236.549 31.484C236.549 35.1297 236.732 38.7949 236.732 42.4541C236.732 43.876 236.424 45.1914 236.182 46.5832C236.084 47.1435 235.835 48.467 235.448 48.8771C235.335 48.9964 234.87 49.763 234.795 49.7845C234.21 49.9517 233.613 49.7 233.062 49.6214C230.83 49.3025 228.324 49.6112 226.078 49.6112C222.785 49.6112 219.479 49.4276 216.199 49.4276C214.151 49.4276 211.951 48.0586 210.204 47.1439C208.491 46.2464 207.23 44.5485 205.351 43.9222" stroke="#E8EAED" stroke-width="1.20473" stroke-linecap="round"/>
<path d="M245.907 32.1768C246.057 33.8229 246.626 35.3701 246.642 37.0501C246.657 38.6394 246.504 40.109 246.315 41.6787C245.955 44.6698 246.091 47.7039 246.091 50.7117C246.091 51.9607 245.907 53.1371 245.907 54.382C245.907 55.7035 244.795 54.8594 243.981 54.4738C243.328 54.1646 242.9 53.9924 242.319 53.5664C241.73 53.1344 241.125 52.8093 240.412 52.7202C239.799 52.6435 239.339 52.3633 238.679 52.3633C237.861 52.3633 237.022 53.046 236.375 53.4644C234.448 54.7113 233.162 56.3984 231.491 57.8688C231.007 58.295 230.446 59.072 229.85 59.3369C229.75 59.3815 229.142 59.7039 229.391 59.7039" stroke="#E8EAED" stroke-width="1.20473" stroke-linecap="round"/>
<path d="M249.949 35.2988C250.054 36.8732 250.695 38.3888 250.825 39.9886C251.006 42.1993 250.866 44.4702 250.866 46.6869C250.866 49.1378 250.683 51.5815 250.683 54.0173C250.683 56.2008 250.383 58.4449 249.694 60.5117C249.452 61.2368 249.378 61.9487 249.031 62.6425C248.852 63.0008 248.37 63.683 248.307 64.029C248.171 64.7774 247.624 66.1869 246.788 66.4555C245.91 66.7377 244.623 66.4963 243.709 66.4963C242.55 66.4963 241.391 66.4963 240.233 66.4963C239.655 66.4963 238.739 66.3305 238.204 66.5982C237.09 67.1551 236.313 69.337 235.716 70.3501C235.037 71.5038 234.342 72.6116 233.626 73.7451C233.349 74.183 233.22 74.5806 232.698 74.7544" stroke="#E8EAED" stroke-width="1.20473" stroke-linecap="round"/>
<path d="M257.98 67.2598C256.89 68.6226 256.959 71.0757 256.537 72.7039C256.232 73.8808 256.028 75.0482 255.646 76.1954C255.489 76.6654 255.049 78.0976 254.627 78.3391C253.75 78.8401 252.92 79.3552 252.345 80.2493C251.001 82.3404 249.944 84.5462 249.575 87.0306C249.427 88.0322 249.39 89.0343 249.236 90.0339C249.075 91.082 248.658 92.1323 248.62 93.1964C248.604 93.6618 248.044 95.1473 248.429 95.3401" stroke="#E8EAED" stroke-width="1.20473" stroke-linecap="round"/>
<path d="M260.846 88.0801C259.287 88.2218 258.338 89.8399 257.789 91.094C257.11 92.6458 256.434 94.2245 255.794 95.7953C254.938 97.8973 253.749 100 253.247 102.258C252.814 104.207 251.245 106.193 250.265 107.936C249.899 108.587 249.494 109.027 248.811 109.369C248.503 109.523 247.627 109.857 247.665 109.857" stroke="#E8EAED" stroke-width="1.20473" stroke-linecap="round"/>
<path d="M259.893 106.992C259.019 107.08 258.324 107.713 257.791 108.372C257.068 109.266 256.261 110.023 255.51 110.887C254.73 111.784 253.968 112.724 252.825 113.105" stroke="#E8EAED" stroke-width="1.20473" stroke-linecap="round"/>
<path d="M253.775 123.419C251.511 123.85 249.711 127.345 248.809 129.15" stroke="#E8EAED" stroke-width="1.20473" stroke-linecap="round"/>
<path d="M243.848 127.24C242.559 128.815 241.35 130.547 239.454 131.443C238.292 131.991 236.71 131.825 235.464 131.825C234.622 131.825 233.812 132.016 232.959 132.016" stroke="#E8EAED" stroke-width="1.20473" stroke-linecap="round"/>
<path d="M244.416 139.466C243.158 139.606 241.865 141.144 240.702 141.567C239.764 141.908 238.964 142.749 238.027 143.053C237.758 143.14 235.88 143.985 236.393 144.241" stroke="#E8EAED" stroke-width="1.20473" stroke-linecap="round"/>
<path d="M240.601 147.297C239.762 148.052 238.814 148.962 238.309 149.971" stroke="#E8EAED" stroke-width="1.20473" stroke-linecap="round"/>
<path d="M246.521 169.074C245.718 169.074 245.377 167.284 245.089 166.686C244.571 165.61 243.937 164.501 243.232 163.534C242.189 162.106 240.955 160.65 239.687 159.48C238.574 158.453 237.433 157.587 236.355 156.509C235.164 155.318 234.345 154.06 233.436 152.646C230.973 148.813 227.914 145.317 225.997 141.099C224.703 138.252 223.299 135.456 221.869 132.684C221.22 131.427 220.811 130.036 220.012 128.853C219.732 128.439 219.632 127.644 219.205 127.431" stroke="#E8EAED" stroke-width="1.20473" stroke-linecap="round"/>
<path d="M237.351 157.613C237.351 156.311 237.495 154.929 237.309 153.644C237.135 152.447 236.801 151.397 236.778 150.163C236.765 149.442 236.679 148.589 236.577 147.871C236.478 147.178 236.124 146.541 236.014 145.854C235.878 145.007 235.875 144.212 235.812 143.361C235.662 141.333 234.613 139.318 234.486 137.322C234.394 135.878 233.944 134.264 233.297 132.971C232.811 131.998 232.255 131.041 232.045 129.957C231.868 129.045 231.334 128.387 231.228 127.431C231.051 125.836 230.03 124.244 229.71 122.645C229.496 121.575 229.1 120.407 228.373 119.599C227.826 118.991 227.384 118.24 226.654 117.838C225.153 117.012 223.504 116.119 222.069 115.206C221.444 114.808 220.642 114.654 219.958 114.346C219.177 113.995 218.305 113.53 217.485 113.306C216.695 113.091 215.992 112.68 215.193 112.425C214.345 112.156 213.504 111.713 212.667 111.385C211.034 110.747 209.198 110.284 207.828 109.093C207.177 108.528 206.303 108.267 205.641 107.671C203.855 106.063 202.072 104.569 200.378 102.874C198.824 101.321 197.152 99.5862 195.995 97.7167C195.504 96.9245 195.025 96.1117 194.658 95.2546C194.507 94.9044 194.321 94.3595 193.989 94.1934" stroke="#E8EAED" stroke-width="1.20473" stroke-linecap="round"/>
<path d="M197.569 77.0752C197.569 81.2172 197.247 85.3482 197.247 89.4616C197.247 93.5926 196.282 97.6751 196.282 101.848C196.282 105.433 195.739 109.505 196.354 113.037C196.676 114.892 197.499 118.817 199.178 119.936C200.382 120.739 201.284 123.332 202.216 124.53C203.622 126.338 204.029 128.641 204.647 130.803C205.381 133.373 204.979 136.106 205.541 138.703C205.828 140.03 205.832 141.097 206.274 142.421C206.77 143.91 207.639 145.587 208.508 146.89" stroke="#E8EAED" stroke-width="1.20473" stroke-linecap="round"/>
<path d="M190.498 84.7959C188.358 85.5091 189.532 96.2025 189.532 98.1296C189.532 102.554 190.442 106.512 190.837 110.856C191.132 114.099 193.6 117.767 194.823 120.758C195.649 122.777 197.254 124.404 197.254 126.62" stroke="#E8EAED" stroke-width="1.20473" stroke-linecap="round"/>
<path d="M190.813 119.865C190.813 122.079 191.655 123.847 192.422 125.907C193.142 127.843 193.836 129.935 194.495 131.912C195.154 133.887 196.191 135.645 197.569 137.221C198.526 138.314 199.857 139.562 200.465 140.777" stroke="#E8EAED" stroke-width="1.20473" stroke-linecap="round"/>
<path d="M180.193 100.562C178.877 105.972 178.352 112.473 180.586 117.685C181.815 120.553 182.663 123.733 184.375 126.301" stroke="#E8EAED" stroke-width="1.20473" stroke-linecap="round"/>
<path d="M174.091 110.856C174.091 116.93 171.517 122.657 171.517 128.73C171.517 131.715 172.81 134.049 173.448 136.916C173.733 138.203 174.232 139.496 174.395 140.795C174.603 142.46 173.218 142.751 172.804 143.994" stroke="#E8EAED" stroke-width="1.20473" stroke-linecap="round"/>
<path d="M166.684 118.578C166.975 121.772 167.054 124.334 165.648 127.265C164.715 129.208 163.789 130.747 163.789 132.877C163.789 134.116 163.789 135.356 163.789 136.595" stroke="#E8EAED" stroke-width="1.20473" stroke-linecap="round"/>
<path d="M165.398 159.759C165.398 156.388 165.196 153.374 163.397 150.429C162.387 148.777 160.23 147.55 159.947 145.424C159.663 143.297 159.929 140.996 159.929 138.847" stroke="#E8EAED" stroke-width="1.20473" stroke-linecap="round"/>
<path d="M151.566 150.75C153.193 152.581 154.089 154.871 155.248 157.024C155.99 158.403 154.444 162.967 155.748 163.619" stroke="#E8EAED" stroke-width="1.20473" stroke-linecap="round"/>
<path d="M177.627 147.854C179.845 145.389 181.649 139.811 185.67 139.811" stroke="#E8EAED" stroke-width="1.20473" stroke-linecap="round"/>
<path d="M235.215 168.122C232.272 166.918 228.893 166.796 225.956 165.548C223.75 164.611 221.635 163.206 219.611 161.974C218.118 161.065 216.793 160.144 215.625 158.81C215.196 158.319 214.791 157.428 214.303 157.184" stroke="#E8EAED" stroke-width="1.20473" stroke-linecap="round"/>
<path d="M240.363 175.202C237.813 175.202 235.137 173.441 232.535 173.021C230.912 172.759 229.476 172.628 227.816 172.628" stroke="#E8EAED" stroke-width="1.20473" stroke-linecap="round"/>
<path d="M150.49 136.688C150.364 137.891 148.913 138.445 148.011 138.931C146.863 139.549 145.684 139.981 144.443 140.347C143.321 140.679 142.197 141.006 141.085 141.351C139.778 141.756 138.417 141.852 137.097 142.171C133.97 142.925 130.865 143.897 127.934 145.24C125.522 146.346 123.245 147.398 121.185 149.084C119.526 150.441 118.099 152.268 116.817 153.977C116.265 154.713 115.658 155.405 115.138 156.167C114.566 157.006 114.021 157.889 113.42 158.706C111.055 161.915 110.471 165.891 110.12 169.744C110.029 170.748 110.018 171.84 109.996 172.84C109.965 174.24 110.176 175.929 111.17 177.005C112.183 178.102 113.853 178.502 115.308 178.809C116.176 178.991 117.234 179.127 118.129 179.182C119.201 179.249 120.249 179.307 121.33 179.307C123.761 179.307 126.12 178.659 128.531 178.487C129.561 178.414 130.516 177.956 131.522 177.89C131.957 177.862 132.345 177.5 132.788 177.412C133.52 177.265 134.408 176.853 135.083 176.526C136.392 175.893 137.624 175.063 138.737 174.139C139.307 173.665 139.883 173.197 140.455 172.722C140.865 172.382 141.171 171.935 141.57 171.607C142.928 170.488 143.662 168.633 145.23 167.737C145.532 167.565 146.08 167.18 146.293 166.885C146.444 166.674 146.66 166.512 146.83 166.32C146.987 166.144 146.936 165.925 147.067 165.73" stroke="#E8EAED" stroke-width="2.40946" stroke-linecap="round"/>
<path d="M165.372 164.313C166.109 164.313 167.219 165.624 167.261 166.32C167.324 167.358 167.221 168.902 167.799 169.81C168.377 170.718 168.803 171.672 169.452 172.505C170.164 173.421 172.567 172.041 173.19 171.58C174.939 170.288 176.686 168.979 177.034 166.674C177.338 164.658 177.013 162.336 175.939 160.601C175.253 159.493 173.813 158.646 172.508 158.522C171.696 158.444 170.959 157.747 170.16 157.702C169.585 157.669 168.983 157.528 168.442 157.348" stroke="#E8EAED" stroke-width="2.40946" stroke-linecap="round"/>
<path d="M168.56 159.119C171.002 159.119 172.848 161.637 173.636 163.723C173.71 163.918 174.115 166.192 173.682 166.058C173.123 165.886 172.765 164.773 172.574 164.314C172.164 163.333 171.983 162.343 171.983 161.284C171.983 161.141 171.933 160.856 171.996 160.713C172.249 160.144 173.451 161.337 173.584 161.507C174.146 162.227 175.244 164.489 174.266 165.311C172.455 166.832 171.648 163.228 171.563 162.176C171.514 161.556 171.378 160.104 171.813 159.545C172.157 159.103 172.908 160.997 172.928 161.047C173.644 162.898 174.245 164.914 174.41 166.898C174.476 167.697 174.502 168.771 173.931 169.43C173.645 169.76 173.056 169.574 172.744 169.403C171.466 168.704 171.119 166.849 171.065 165.534C171.013 164.273 171.058 162.718 171.695 161.585C172.087 160.888 172.725 161.779 173 162.143C174.101 163.6 175.034 165.506 174.974 167.37C174.947 168.229 174.615 169.288 173.761 169.672C172.152 170.396 172.738 164.155 172.98 163.5C173.206 162.889 173.872 161.7 174.607 162.582C175.796 164.01 175.313 167.065 173.931 168.243C173.106 168.945 171.736 167.029 171.38 166.531C170.454 165.234 170.27 163.851 169.747 162.412C169.604 162.02 169.63 161.959 169.76 162.471C170.158 164.039 170.559 165.67 170.75 167.278C170.782 167.545 170.962 168.413 170.776 168.682C170.519 169.056 169.719 166.494 169.701 166.406C169.393 164.928 169.386 163.416 169.386 161.913C169.386 161.226 169.388 160.986 169.963 161.69C171.312 163.34 172.018 165.512 172.482 167.56C172.53 167.774 173.117 170.129 172.783 170.309C172.538 170.441 171.276 168.534 171.183 168.393C170.06 166.705 169.328 164.679 169.006 162.681C168.882 161.912 168.865 161.225 168.566 160.497C168.559 160.479 168.261 159.781 168.232 159.854C168.159 160.029 168.269 160.527 168.284 160.647C168.397 161.554 168.548 162.456 168.704 163.356C169.057 165.401 169.511 167.42 169.898 169.456C169.942 169.692 169.968 169.925 169.976 170.164C169.986 170.458 169.955 169.577 169.924 169.285C169.769 167.828 169.352 166.576 168.763 165.245C168.516 164.688 167.978 163.437 168.114 164.93C168.306 167.042 169.352 169.075 170.258 170.958C170.444 171.343 170.87 172.541 170.803 172.119C170.388 169.53 168.901 167.052 167.995 164.602C167.876 164.28 167.678 163.41 167.32 163.251C167.101 163.154 166.705 162.819 166.664 162.595C166.59 162.188 166.552 161.838 166.552 161.415C166.552 161.29 166.546 161.685 166.625 161.782C166.778 161.969 166.948 162.078 167.025 162.307" stroke="#E8EAED" stroke-width="0.602364" stroke-linecap="round"/>
<path d="M148.012 156.877C147.684 156.914 147.291 157.462 146.943 157.592C146.31 157.829 145.665 158.264 145.061 158.582C144.37 158.947 143.599 159.289 142.936 159.711C142.167 160.2 141.132 160.259 140.339 160.773C138.812 161.762 137.107 162.415 135.616 163.462C134.077 164.544 132.402 165.425 130.92 166.611C129.421 167.81 127.893 169.078 126.08 169.811C124.521 170.441 122.935 170.572 121.265 170.572C120.356 170.572 119.546 170.592 119.298 169.628C119.146 169.037 118.753 168.496 119.035 167.85C119.281 167.289 119.567 166.699 119.678 166.086C119.953 164.574 120.368 162.5 121.344 161.245C121.806 160.652 122.208 160.019 122.656 159.422C123.147 158.767 123.766 158.404 124.414 157.933C125.551 157.106 126.972 156.64 128.185 155.933C128.948 155.488 129.872 155.138 130.684 154.778C131.824 154.274 132.919 153.69 134.075 153.217C134.991 152.843 135.917 152.525 136.823 152.155C137.205 151.999 137.588 151.842 137.971 151.689C138.397 151.519 138.828 151.597 139.27 151.505C141.036 151.137 142.651 150.176 144.353 149.557C145.815 149.026 146.976 147.781 148.367 147.144C149.065 146.824 149.741 146.248 150.321 145.753C150.58 145.533 150.818 145.085 151.082 144.953" stroke="#E8EAED" stroke-width="2.40946" stroke-linecap="round"/>
<path d="M144.351 140.938C144.351 142.286 144.462 143.684 144.141 145.004C144.028 145.466 143.878 145.896 143.878 146.368" stroke="#E8EAED" stroke-width="2.40946" stroke-linecap="round"/>
<path d="M135.377 143.653C134.86 144.748 134.778 146.026 134.144 147.064C133.935 147.405 133.781 147.79 133.606 148.14" stroke="#E8EAED" stroke-width="2.40946" stroke-linecap="round"/>
<path d="M125.938 147.55C125.428 148.596 125.04 150.053 124.993 151.236C124.972 151.756 124.639 152.226 124.639 152.744" stroke="#E8EAED" stroke-width="2.40946" stroke-linecap="round"/>
<path d="M117.192 154.987C117.26 156.209 117.853 157.135 118.373 158.175" stroke="#E8EAED" stroke-width="2.40946" stroke-linecap="round"/>
<path d="M111.764 164.785C112.513 164.853 113.327 165.453 114.066 165.671C114.386 165.765 114.733 165.73 115.063 165.73C115.587 165.73 115.542 165.783 115.542 166.32" stroke="#E8EAED" stroke-width="2.40946" stroke-linecap="round"/>
<path d="M113.308 177.417C113.775 177.37 114.001 176.744 114.213 176.394C114.743 175.516 115.364 174.706 115.971 173.882C116.431 173.256 117.053 172.73 117.44 172.052C117.55 171.86 117.713 171.868 117.912 171.868" stroke="#E8EAED" stroke-width="2.40946" stroke-linecap="round"/>
<path d="M126.994 178.598C126.688 177.717 126.681 176.495 126.64 175.555C126.623 175.164 126.404 174.863 126.404 174.466C126.404 174.099 126.018 172.652 126.404 172.459" stroke="#E8EAED" stroke-width="2.40946" stroke-linecap="round"/>
<path d="M138.691 173.287C138.102 173.051 137.486 172.92 136.907 172.631C135.959 172.157 135.42 171.614 134.782 170.794C134.501 170.433 134.265 170.036 134.061 169.627C133.645 168.794 135.271 169.155 135.74 169.155" stroke="#E8EAED" stroke-width="2.40946" stroke-linecap="round"/>
<path d="M144.002 167.029C142.434 166.204 142.231 164.82 142.231 163.251" stroke="#E8EAED" stroke-width="2.40946" stroke-linecap="round"/>
<path d="M227.906 19.7607C227.186 19.8408 227.189 21.5963 226.93 22.1291C226.599 22.81 226.369 23.4676 226.026 24.154C225.354 25.4976 224.669 25.8414 223.26 26.0975C221.691 26.3828 220.035 25.8009 218.803 24.8772C217.506 23.9039 216.251 22.9725 215.54 21.5506" stroke="#E8EAED" stroke-width="1.20473" stroke-linecap="round"/>
<path d="M229.206 21.2256C229.206 23.0105 229.368 24.7808 229.368 26.559C229.368 28.3519 229.266 30.1757 229.377 31.9647C229.46 33.286 229.585 34.4384 229.332 35.7613C229.199 36.4585 229.319 37.2918 228.627 37.732C227.864 38.2173 226.568 37.9851 225.725 37.9851C224.974 37.9851 224.704 37.7352 224.125 37.3342C223.469 36.8801 222.831 36.3389 222.128 35.9602C221.922 35.8498 220.832 35.1686 221.395 35.5444" stroke="#E8EAED" stroke-width="1.20473" stroke-linecap="round"/>
<path d="M221.391 38.4736C220.299 38.6722 219.196 39.7529 218.335 40.4262C218.037 40.6599 217.198 41.0771 217.974 41.0771" stroke="#E8EAED" stroke-width="1.20473" stroke-linecap="round"/>
<path d="M226.281 41.7276C223.748 42.1076 222.399 45.1564 219.574 44.0056C216.882 42.9089 213.728 42.5251 211.312 40.9141" stroke="#E8EAED" stroke-width="1.20473" stroke-linecap="round"/>
<path d="M213.468 24.1963C213.788 27.2328 213.584 30.1899 213.584 33.2221C213.584 34.0212 213.453 35.2122 213.006 35.8836" stroke="#E8EAED" stroke-width="1.20473" stroke-linecap="round"/>
</svg>
