<svg width="248" height="80" viewBox="0 0 248 80" fill="none" xmlns="http://www.w3.org/2000/svg">
<rect x="5.52864" y="6.31846" width="241.682" height="72.6624" rx="4.73885" fill="white" stroke="white" stroke-width="1.57962"/>
<rect width="243.261" height="74.242" rx="7.89809" fill="#4285F4"/>
<path d="M40.0995 28.0994V35.2646H44.3076C45.3691 35.2646 46.2694 34.9234 47.0087 34.241C47.748 33.5396 48.1176 32.6771 48.1176 31.6536C48.1176 30.7058 47.7669 29.8812 47.0656 29.1799C46.3832 28.4596 45.5207 28.0994 44.4782 28.0994H40.0995ZM40.0995 45.9554H37.4836V25.5973H44.4213C46.1841 25.5973 47.6816 26.1849 48.9137 27.3602C50.1648 28.5164 50.7903 29.9476 50.7903 31.6536C50.7903 33.0563 50.3259 34.3073 49.3971 35.4067C48.4872 36.4872 47.3309 37.1791 45.9282 37.4823L45.8714 37.5676L51.5864 45.8417V45.9554H48.4872L42.9996 37.7098H40.0995V45.9554ZM59.4442 46.4103C57.397 46.4103 55.71 45.709 54.3831 44.3063C53.0562 42.9036 52.3928 41.1313 52.3928 38.9893C52.3928 36.8663 53.0373 35.1034 54.3262 33.7007C55.6152 32.2791 57.2643 31.5683 59.2736 31.5683C61.3397 31.5683 62.9794 32.2412 64.1925 33.587C65.4246 34.9139 66.0407 36.781 66.0407 39.1883L66.0122 39.4727H55.0655C55.1034 40.8375 55.5583 41.9369 56.4303 42.7709C57.3022 43.6049 58.3448 44.022 59.5579 44.022C61.226 44.022 62.5339 43.1879 63.4817 41.5198L65.8132 42.6572C65.1877 43.8324 64.3157 44.7517 63.1974 45.4152C62.098 46.0786 60.8469 46.4103 59.4442 46.4103ZM55.2645 37.3117H63.2542C63.1784 36.345 62.7803 35.5489 62.06 34.9234C61.3587 34.2789 60.4109 33.9566 59.2167 33.9566C58.231 33.9566 57.3781 34.2599 56.6578 34.8665C55.9564 35.4731 55.492 36.2882 55.2645 37.3117ZM74.827 44.022C76.1159 44.022 77.168 43.5576 77.983 42.6287C78.836 41.6999 79.2625 40.4868 79.2625 38.9893C79.2625 37.5297 78.836 36.3261 77.983 35.3783C77.149 34.4305 76.097 33.9566 74.827 33.9566C73.5759 33.9566 72.5239 34.4305 71.6709 35.3783C70.8179 36.3261 70.3914 37.5297 70.3914 38.9893C70.3914 40.4678 70.8179 41.6715 71.6709 42.6003C72.5239 43.5481 73.5759 44.022 74.827 44.022ZM74.7417 52.5519C73.9645 52.5519 73.2347 52.4476 72.5523 52.2391C71.8699 52.0496 71.2444 51.7747 70.6757 51.4146C70.126 51.0544 69.6521 50.6279 69.2541 50.1351C68.856 49.6422 68.5527 49.0925 68.3442 48.486L70.8179 47.4624C71.1022 48.2775 71.5951 48.9314 72.2964 49.4243C72.9978 49.9171 73.8128 50.1635 74.7417 50.1635C76.1633 50.1635 77.2722 49.737 78.0683 48.884C78.8645 48.031 79.2625 46.8558 79.2625 45.3583V44.022H79.1488C78.656 44.7612 77.983 45.3488 77.13 45.7848C76.296 46.2018 75.3861 46.4103 74.4005 46.4103C72.5807 46.4103 71.0169 45.6995 69.709 44.2779C68.42 42.8183 67.7755 41.0554 67.7755 38.9893C67.7755 36.9232 68.42 35.1698 69.709 33.7292C71.0169 32.2886 72.5807 31.5683 74.4005 31.5683C75.3861 31.5683 76.296 31.7862 77.13 32.2222C77.983 32.6392 78.656 33.2174 79.1488 33.9566H79.2625V32.0232H81.7646V45.3583C81.7646 47.5951 81.1296 49.3484 79.8596 50.6184C78.5707 51.9074 76.8647 52.5519 74.7417 52.5519ZM88.3376 27.218C88.3376 27.7298 88.1575 28.1658 87.7973 28.5259C87.4372 28.8861 87.0012 29.0661 86.4894 29.0661C85.9776 29.0661 85.5417 28.8861 85.1815 28.5259C84.8213 28.1658 84.6413 27.7298 84.6413 27.218C84.6413 26.7062 84.8213 26.2702 85.1815 25.9101C85.5417 25.5499 85.9776 25.3698 86.4894 25.3698C87.0012 25.3698 87.4372 25.5499 87.7973 25.9101C88.1575 26.2702 88.3376 26.7062 88.3376 27.218ZM87.7973 32.0232V45.9554H85.1815V32.0232H87.7973ZM101.864 42.0885C101.864 43.3017 101.333 44.3252 100.272 45.1593C99.2102 45.9933 97.8739 46.4103 96.2626 46.4103C94.8599 46.4103 93.6278 46.0502 92.5663 45.3299C91.5048 44.5906 90.7466 43.6239 90.2917 42.4297L92.6232 41.4345C92.9644 42.2686 93.4572 42.9225 94.1017 43.3964C94.7652 43.8514 95.4855 44.0788 96.2626 44.0788C97.0967 44.0788 97.7886 43.8988 98.3383 43.5386C98.9069 43.1784 99.1913 42.7519 99.1913 42.2591C99.1913 41.3682 98.5089 40.7142 97.1441 40.2972L94.7557 39.7001C92.0451 39.0177 90.6898 37.7098 90.6898 35.7764C90.6898 34.5063 91.2015 33.4922 92.2251 32.734C93.2677 31.9568 94.5946 31.5683 96.2058 31.5683C97.4379 31.5683 98.5468 31.8621 99.5325 32.4497C100.537 33.0373 101.238 33.8239 101.637 34.8096L99.305 35.7764C99.0396 35.1887 98.6036 34.7338 97.9971 34.4116C97.4094 34.0704 96.746 33.8998 96.0067 33.8998C95.3244 33.8998 94.7083 34.0704 94.1586 34.4116C93.6278 34.7528 93.3625 35.1698 93.3625 35.6626C93.3625 36.4588 94.1112 37.0274 95.6087 37.3686L97.7127 37.9088C100.48 38.5912 101.864 39.9845 101.864 42.0885ZM109.518 46.1829C108.381 46.1829 107.433 45.8322 106.675 45.1309C105.935 44.4295 105.556 43.4533 105.537 42.2022V34.4116H103.092V32.0232H105.537V27.7582H108.153V32.0232H111.565V34.4116H108.153V41.3492C108.153 42.2781 108.333 42.9131 108.693 43.2543C109.054 43.5765 109.461 43.7376 109.916 43.7376C110.125 43.7376 110.324 43.7187 110.513 43.6808C110.722 43.6239 110.911 43.5576 111.082 43.4817L111.906 45.8132C111.224 46.0597 110.428 46.1829 109.518 46.1829ZM120.17 46.4103C118.123 46.4103 116.436 45.709 115.109 44.3063C113.782 42.9036 113.119 41.1313 113.119 38.9893C113.119 36.8663 113.763 35.1034 115.052 33.7007C116.341 32.2791 117.99 31.5683 119.999 31.5683C122.066 31.5683 123.705 32.2412 124.918 33.587C126.15 34.9139 126.766 36.781 126.766 39.1883L126.738 39.4727H115.791C115.829 40.8375 116.284 41.9369 117.156 42.7709C118.028 43.6049 119.071 44.022 120.284 44.022C121.952 44.022 123.26 43.1879 124.208 41.5198L126.539 42.6572C125.914 43.8324 125.042 44.7517 123.923 45.4152C122.824 46.0786 121.573 46.4103 120.17 46.4103ZM115.99 37.3117H123.98C123.904 36.345 123.506 35.5489 122.786 34.9234C122.085 34.2789 121.137 33.9566 119.943 33.9566C118.957 33.9566 118.104 34.2599 117.384 34.8665C116.682 35.4731 116.218 36.2882 115.99 37.3117ZM131.775 45.9554H129.159V32.0232H131.661V34.2978H131.775C132.04 33.5586 132.58 32.933 133.395 32.4212C134.229 31.8905 135.044 31.6251 135.84 31.6251C136.599 31.6251 137.243 31.7389 137.774 31.9663L136.978 34.4969C136.656 34.3642 136.144 34.2978 135.442 34.2978C134.457 34.2978 133.594 34.6959 132.855 35.492C132.135 36.2882 131.775 37.217 131.775 38.2785V45.9554ZM148.806 45.9554H146.19V25.5973H149.375L159.27 41.4345H159.383L159.27 37.5108V25.5973H161.885V45.9554H159.156L148.806 29.3505H148.692L148.806 33.2742V45.9554ZM164.737 38.9893C164.737 36.8473 165.41 35.075 166.756 33.6723C168.12 32.2696 169.836 31.5683 171.902 31.5683C173.968 31.5683 175.674 32.2696 177.02 33.6723C178.385 35.075 179.067 36.8473 179.067 38.9893C179.067 41.1502 178.385 42.9225 177.02 44.3063C175.674 45.709 173.968 46.4103 171.902 46.4103C169.836 46.4103 168.12 45.709 166.756 44.3063C165.41 42.9036 164.737 41.1313 164.737 38.9893ZM167.353 38.9893C167.353 40.4868 167.789 41.6999 168.661 42.6287C169.533 43.5576 170.613 44.022 171.902 44.022C173.191 44.022 174.271 43.5576 175.143 42.6287C176.015 41.6999 176.451 40.4868 176.451 38.9893C176.451 37.5108 176.015 36.3071 175.143 35.3783C174.253 34.4305 173.172 33.9566 171.902 33.9566C170.632 33.9566 169.552 34.4305 168.661 35.3783C167.789 36.3071 167.353 37.5108 167.353 38.9893ZM200.898 32.0232L196.406 45.9554H193.733L190.264 35.2646L186.824 45.9554H184.18L179.687 32.0232H182.417L185.516 42.5434H185.544L188.985 32.0232H191.686L195.126 42.5434H195.155L198.226 32.0232H200.898Z" fill="white"/>
</svg>
