<svg width="35" height="32" viewBox="0 0 35 32" fill="none" xmlns="http://www.w3.org/2000/svg">
<path d="M33.784 6.07573L24.4338 0.540013C23.9968 0.281287 23.4372 0.429252 23.0973 0.806552C21.9013 2.13403 19.8793 3.00899 17.578 3.00899C15.2766 3.00899 13.2547 2.13403 12.0587 0.806552C11.7188 0.429252 11.1591 0.281287 10.7221 0.540013L1.37196 6.07573C0.960558 6.32455 0.793915 6.92172 0.997011 7.41315L3.97575 14.5357C4.18406 15.0271 4.68399 15.2262 5.09539 14.9836L8.04288 13.2605C8.59489 12.937 9.24063 13.416 9.24063 14.1562V29.9316C9.24063 31.0327 9.98531 31.9222 10.9071 31.9222H24.2385C25.1602 31.9222 25.9049 31.0327 25.9049 29.9316V14.15C25.9049 13.416 26.5507 12.9308 27.1027 13.2543L30.0502 14.9774C30.4616 15.2262 30.9615 15.0271 31.1698 14.5295L34.1537 7.41315C34.3621 6.92172 34.1954 6.31833 33.784 6.07573Z" fill="#4285F4"/>
</svg>
